Ubuntu-CondensedBoldItalic.ufo
<glyph name="exclam" format="2">
  <advance width="258"/>
  <unicode hex="0021"/>
  <outline>
    <contour>
      <point x="146" y="221" type="curve"/>
      <point x="214" y="221" type="line"/>
      <point x="256" y="298"/>
      <point x="302" y="433"/>
      <point x="322" y="515" type="curve" smooth="yes"/>
      <point x="365" y="693" type="line"/>
      <point x="221" y="693" type="line"/>
      <point x="178" y="515" type="line" smooth="yes"/>
      <point x="158" y="433"/>
      <point x="142" y="298"/>
    </contour>
    <contour>
      <point x="138" y="-13" type="curve"/>
      <point x="186" y="-13"/>
      <point x="235" y="32"/>
      <point x="235" y="91" type="curve"/>
      <point x="235" y="136"/>
      <point x="202" y="164"/>
      <point x="156" y="164" type="curve"/>
      <point x="108" y="164"/>
      <point x="59" y="117"/>
      <point x="59" y="58" type="curve"/>
      <point x="59" y="15"/>
      <point x="92" y="-13"/>
    </contour>
  </outline>
</glyph>
<glyph name="numbersign" format="2">
	<advance width="533"/>
	<unicode hex="0023"/>
	<outline>
		<contour>
			<point x="66" y="0" type="line"/>
			<point x="179" y="0" type="line"/>
			<point x="245" y="175" type="line"/>
			<point x="326" y="175" type="line"/>
			<point x="260" y="0" type="line"/>
			<point x="373" y="0" type="line"/>
			<point x="439" y="175" type="line"/>
			<point x="551" y="175" type="line"/>
			<point x="575" y="275" type="line"/>
			<point x="477" y="275" type="line"/>
			<point x="531" y="419" type="line"/>
			<point x="609" y="419" type="line"/>
			<point x="633" y="519" type="line"/>
			<point x="568" y="519" type="line"/>
			<point x="634" y="693" type="line"/>
			<point x="521" y="693" type="line"/>
			<point x="455" y="519" type="line"/>
			<point x="374" y="519" type="line"/>
			<point x="440" y="693" type="line"/>
			<point x="327" y="693" type="line"/>
			<point x="261" y="519" type="line"/>
			<point x="149" y="519" type="line"/>
			<point x="125" y="419" type="line"/>
			<point x="224" y="419" type="line"/>
			<point x="170" y="275" type="line"/>
			<point x="91" y="275" type="line"/>
			<point x="67" y="175" type="line"/>
			<point x="132" y="175" type="line"/>
		</contour>
		<contour>
			<point x="283" y="275" type="line"/>
			<point x="337" y="419" type="line"/>
			<point x="418" y="419" type="line"/>
			<point x="364" y="275" type="line"/>
		</contour>
	</outline>
</glyph>
<glyph name="ampersand" format="2">
	<advance width="520"/>
	<unicode hex="0026"/>
	<outline>
		<contour>
			<point x="225" y="-14" type="curve"/>
			<point x="277" y="-14"/>
			<point x="336" y="11"/>
			<point x="383" y="55" type="curve"/>
			<point x="392" y="37"/>
			<point x="399" y="19"/>
			<point x="404" y="0" type="curve"/>
			<point x="534" y="0" type="line"/>
			<point x="522" y="58"/>
			<point x="505" y="107"/>
			<point x="484" y="146" type="curve"/>
			<point x="530" y="208"/>
			<point x="566" y="280"/>
			<point x="581" y="361" type="curve"/>
			<point x="469" y="377" type="line"/>
			<point x="461" y="329"/>
			<point x="445" y="287"/>
			<point x="426" y="250" type="curve"/>
			<point x="375" y="354" type="line"/>
			<point x="396" y="367" type="line" smooth="yes"/>
			<point x="497" y="429"/>
			<point x="527" y="510"/>
			<point x="527" y="575" type="curve" smooth="yes"/>
			<point x="527" y="656"/>
			<point x="478" y="707"/>
			<point x="385" y="707" type="curve" smooth="yes"/>
			<point x="266" y="707"/>
			<point x="188" y="621"/>
			<point x="188" y="508" type="curve" smooth="yes"/>
			<point x="188" y="470"/>
			<point x="195" y="436"/>
			<point x="215" y="393" type="curve"/>
			<point x="203" y="386" type="line" smooth="yes"/>
			<point x="106" y="329"/>
			<point x="60" y="242"/>
			<point x="60" y="147" type="curve" smooth="yes"/>
			<point x="60" y="49"/>
			<point x="122" y="-14"/>
		</contour>
		<contour>
			<point x="254" y="99" type="curve"/>
			<point x="217" y="99"/>
			<point x="184" y="126"/>
			<point x="184" y="181" type="curve" smooth="yes"/>
			<point x="184" y="216"/>
			<point x="198" y="256"/>
			<point x="240" y="293" type="curve" smooth="yes"/>
			<point x="257" y="308" type="line"/>
			<point x="341" y="140" type="line"/>
			<point x="312" y="114"/>
			<point x="282" y="99"/>
		</contour>
		<contour>
			<point x="332" y="441" type="line"/>
			<point x="317" y="474"/>
			<point x="310" y="499"/>
			<point x="310" y="521" type="curve" smooth="yes"/>
			<point x="310" y="572"/>
			<point x="336" y="607"/>
			<point x="369" y="607" type="curve" smooth="yes"/>
			<point x="391" y="607"/>
			<point x="407" y="590"/>
			<point x="407" y="559" type="curve" smooth="yes"/>
			<point x="407" y="521"/>
			<point x="397" y="486"/>
			<point x="345" y="450" type="curve"/>
		</contour>
	</outline>
</glyph>
<glyph name="quotesingle" format="2">
	<advance width="234"/>
	<unicode hex="0027"/>
	<outline>
		<contour>
			<point x="192" y="471" type="curve"/>
			<point x="265" y="471" type="line"/>
			<point x="295" y="534"/>
			<point x="335" y="635"/>
			<point x="348" y="689" type="curve" smooth="yes"/>
			<point x="365" y="760" type="line"/>
			<point x="232" y="760" type="line"/>
			<point x="215" y="689" type="line" smooth="yes"/>
			<point x="202" y="635"/>
			<point x="192" y="534"/>
		</contour>
	</outline>
</glyph>
<glyph name="parenleft" format="2">
  <advance width="313"/>
  <unicode hex="0028"/>
  <outline>
    <contour>
      <point x="175" y="-187" type="curve"/>
      <point x="274" y="-135" type="line"/>
      <point x="245" y="-53"/>
      <point x="234" y="16"/>
      <point x="234" y="103" type="curve" smooth="yes"/>
      <point x="234" y="305"/>
      <point x="324" y="544"/>
      <point x="473" y="726" type="curve"/>
      <point x="387" y="785" type="line"/>
      <point x="233" y="632"/>
      <point x="103" y="340"/>
      <point x="103" y="112" type="curve" smooth="yes"/>
      <point x="103" y="-2"/>
      <point x="128" y="-102"/>
    </contour>
  </outline>
</glyph>
<glyph name="parenright" format="2">
	<advance width="313"/>
	<unicode hex="0029"/>
	<outline>
		<contour>
			<point x="70" y="-187" type="line"/>
			<point x="224" y="-34"/>
			<point x="354" y="258"/>
			<point x="354" y="486" type="curve" smooth="yes"/>
			<point x="354" y="600"/>
			<point x="329" y="700"/>
			<point x="282" y="785" type="curve"/>
			<point x="183" y="733" type="line"/>
			<point x="212" y="651"/>
			<point x="223" y="582"/>
			<point x="223" y="495" type="curve" smooth="yes"/>
			<point x="223" y="293"/>
			<point x="133" y="54"/>
			<point x="-16" y="-128" type="curve"/>
		</contour>
	</outline>
</glyph>
<glyph name="asterisk" format="2">
	<advance width="417"/>
	<unicode hex="002A"/>
	<outline>
		<contour>
			<point x="295" y="378" type="line"/>
			<point x="306" y="393"/>
			<point x="316" y="413"/>
			<point x="339" y="504" type="curve"/>
			<point x="362" y="414"/>
			<point x="372" y="394"/>
			<point x="382" y="379" type="curve"/>
			<point x="484" y="453" type="line"/>
			<point x="474" y="468"/>
			<point x="458" y="484"/>
			<point x="378" y="534" type="curve"/>
			<point x="471" y="528"/>
			<point x="493" y="531"/>
			<point x="510" y="537" type="curve"/>
			<point x="471" y="657" type="line"/>
			<point x="454" y="651"/>
			<point x="434" y="641"/>
			<point x="362" y="582" type="curve"/>
			<point x="396" y="667"/>
			<point x="400" y="688"/>
			<point x="400" y="707" type="curve"/>
			<point x="274" y="707" type="line"/>
			<point x="274" y="688"/>
			<point x="278" y="667"/>
			<point x="312" y="580" type="curve"/>
			<point x="241" y="639"/>
			<point x="222" y="649"/>
			<point x="204" y="655" type="curve"/>
			<point x="165" y="535" type="line"/>
			<point x="183" y="529"/>
			<point x="204" y="526"/>
			<point x="298" y="532" type="curve"/>
			<point x="219" y="483"/>
			<point x="204" y="467"/>
			<point x="193" y="452" type="curve"/>
		</contour>
	</outline>
</glyph>
<glyph name="plus" format="2">
	<advance width="452"/>
	<unicode hex="002B"/>
	<outline>
		<contour>
			<point x="198" y="121" type="line"/>
			<point x="312" y="121" type="line"/>
			<point x="342" y="246" type="line"/>
			<point x="460" y="246" type="line"/>
			<point x="486" y="356" type="line"/>
			<point x="368" y="356" type="line"/>
			<point x="398" y="481" type="line"/>
			<point x="284" y="481" type="line"/>
			<point x="254" y="356" type="line"/>
			<point x="136" y="356" type="line"/>
			<point x="110" y="246" type="line"/>
			<point x="228" y="246" type="line"/>
		</contour>
	</outline>
</glyph>
<glyph name="comma" format="2">
  <advance width="238"/>
  <unicode hex="002C"/>
  <outline>
    <contour>
      <point x="88" y="-157.0" type="line"/>
      <point x="163" y="-69"/>
      <point x="210" y="16"/>
      <point x="221" y="147.0" type="curve"/>
      <point x="88" y="147.0" type="line"/>
      <point x="78" y="54"/>
      <point x="49" y="-38"/>
      <point x="-2" y="-131.0" type="curve"/>
    </contour>
  </outline>
</glyph>
<glyph name="period" format="2">
  <advance width="238"/>
  <unicode hex="002E"/>
  <outline>
    <contour>
      <point x="127" y="-13" type="curve" smooth="yes"/>
      <point x="174" y="-13"/>
      <point x="221" y="31"/>
      <point x="221" y="88" type="curve" smooth="yes"/>
      <point x="221" y="131"/>
      <point x="189" y="158"/>
      <point x="145" y="158" type="curve" smooth="yes"/>
      <point x="98" y="158"/>
      <point x="51" y="113"/>
      <point x="51" y="56" type="curve" smooth="yes"/>
      <point x="51" y="14"/>
      <point x="83" y="-13"/>
    </contour>
  </outline>
</glyph>
<glyph name="slash" format="2">
  <advance width="324"/>
  <unicode hex="002F"/>
  <outline>
    <contour>
      <point x="-74" y="-185.0" type="line"/>
      <point x="53" y="-185.0" type="line"/>
      <point x="519" y="783.0" type="line"/>
      <point x="392" y="783.0" type="line"/>
    </contour>
  </outline>
</glyph>
<glyph name="zero" format="2">
	<advance width="434"/>
	<unicode hex="0030"/>
	<outline>
		<contour>
			<point x="236" y="-14" type="curve" smooth="yes"/>
			<point x="412" y="-14"/>
			<point x="507" y="297"/>
			<point x="507" y="558" type="curve" smooth="yes"/>
			<point x="507" y="651"/>
			<point x="453" y="707"/>
			<point x="364" y="707" type="curve" smooth="yes"/>
			<point x="190" y="707"/>
			<point x="95" y="400"/>
			<point x="95" y="135" type="curve" smooth="yes"/>
			<point x="95" y="41"/>
			<point x="147" y="-14"/>
		</contour>
		<contour>
			<point x="254" y="105" type="curve"/>
			<point x="235" y="105"/>
			<point x="230" y="118"/>
			<point x="230" y="142" type="curve" smooth="yes"/>
			<point x="230" y="264"/>
			<point x="285" y="588"/>
			<point x="348" y="588" type="curve" smooth="yes"/>
			<point x="367" y="588"/>
			<point x="372" y="575"/>
			<point x="372" y="551" type="curve" smooth="yes"/>
			<point x="372" y="429"/>
			<point x="317" y="105"/>
		</contour>
	</outline>
</glyph>
<glyph name="one" format="2">
  <advance width="434"/>
  <unicode hex="0031"/>
  <outline>
    <contour>
      <point x="187" y="0" type="line"/>
      <point x="325" y="0" type="line"/>
      <point x="491" y="693" type="line"/>
      <point x="393" y="693" type="line"/>
      <point x="338" y="636"/>
      <point x="259" y="589"/>
      <point x="185" y="556" type="curve"/>
      <point x="227" y="456" type="line"/>
      <point x="244" y="461"/>
      <point x="276" y="473"/>
      <point x="305" y="492" type="curve"/>
    </contour>
  </outline>
</glyph>
<glyph name="two" format="2">
	<advance width="434"/>
	<unicode hex="0032"/>
	<outline>
		<contour>
			<point x="59" y="0" type="curve"/>
			<point x="411" y="0" type="line"/>
			<point x="438" y="114" type="line"/>
			<point x="231" y="114" type="line"/>
			<point x="256" y="170"/>
			<point x="293" y="220"/>
			<point x="355" y="287" type="curve" smooth="yes"/>
			<point x="453" y="392"/>
			<point x="512" y="461"/>
			<point x="512" y="555" type="curve" smooth="yes"/>
			<point x="512" y="647"/>
			<point x="458" y="707"/>
			<point x="365" y="707" type="curve" smooth="yes"/>
			<point x="294" y="707"/>
			<point x="229" y="686"/>
			<point x="175" y="645" type="curve"/>
			<point x="218" y="552" type="line"/>
			<point x="251" y="576"/>
			<point x="281" y="589"/>
			<point x="316" y="589" type="curve" smooth="yes"/>
			<point x="346" y="589"/>
			<point x="370" y="574"/>
			<point x="370" y="532" type="curve" smooth="yes"/>
			<point x="370" y="465"/>
			<point x="322" y="416"/>
			<point x="227" y="317" type="curve" smooth="yes"/>
			<point x="149" y="235"/>
			<point x="81" y="130"/>
		</contour>
	</outline>
</glyph>
<glyph name="six" format="2">
	<advance width="434"/>
	<unicode hex="0036"/>
	<outline>
		<contour>
			<point x="242" y="-14" type="curve" smooth="yes"/>
			<point x="383" y="-14"/>
			<point x="468" y="150"/>
			<point x="468" y="293" type="curve" smooth="yes"/>
			<point x="468" y="382"/>
			<point x="421" y="435"/>
			<point x="360" y="435" type="curve" smooth="yes"/>
			<point x="338" y="435"/>
			<point x="313" y="432"/>
			<point x="292" y="421" type="curve"/>
			<point x="337" y="512"/>
			<point x="409" y="583"/>
			<point x="517" y="587" type="curve"/>
			<point x="531" y="698" type="line"/>
			<point x="285" y="698"/>
			<point x="98" y="448"/>
			<point x="98" y="175" type="curve" smooth="yes"/>
			<point x="98" y="47"/>
			<point x="157" y="-14"/>
		</contour>
		<contour>
			<point x="260" y="105" type="curve" smooth="yes"/>
			<point x="239" y="105"/>
			<point x="230" y="118"/>
			<point x="230" y="152" type="curve" smooth="yes"/>
			<point x="230" y="197"/>
			<point x="236" y="252"/>
			<point x="250" y="306" type="curve"/>
			<point x="262" y="317"/>
			<point x="277" y="324"/>
			<point x="292" y="324" type="curve" smooth="yes"/>
			<point x="312" y="324"/>
			<point x="328" y="310"/>
			<point x="328" y="272" type="curve" smooth="yes"/>
			<point x="328" y="196"/>
			<point x="301" y="105"/>
		</contour>
	</outline>
</glyph>
<glyph name="seven" format="2">
  <advance width="434"/>
  <unicode hex="0037"/>
  <outline>
    <contour>
      <point x="95" y="0" type="curve"/>
      <point x="235" y="0" type="line"/>
      <point x="294" y="197"/>
      <point x="407" y="431"/>
      <point x="541" y="597" type="curve"/>
      <point x="564" y="693" type="line"/>
      <point x="211" y="693" type="line"/>
      <point x="180" y="574" type="line"/>
      <point x="394" y="574" type="line"/>
      <point x="270" y="416"/>
      <point x="141" y="165"/>
    </contour>
  </outline>
</glyph>
<glyph name="nine" format="2">
  <advance width="434"/>
  <unicode hex="0039"/>
  <outline>
    <contour>
      <point x="68" y="-7" type="curve" smooth="yes"/>
      <point x="327" y="-7"/>
      <point x="504" y="247"/>
      <point x="504" y="516" type="curve" smooth="yes"/>
      <point x="504" y="644"/>
      <point x="445" y="705"/>
      <point x="360" y="705" type="curve" smooth="yes"/>
      <point x="220" y="705"/>
      <point x="135" y="539"/>
      <point x="135" y="394" type="curve" smooth="yes"/>
      <point x="135" y="305"/>
      <point x="182" y="252"/>
      <point x="243" y="252" type="curve" smooth="yes"/>
      <point x="264" y="252"/>
      <point x="287" y="255"/>
      <point x="307" y="264" type="curve"/>
      <point x="260" y="176"/>
      <point x="185" y="107"/>
      <point x="74" y="104" type="curve"/>
      <point x="56" y="-7" type="line"/>
      <point x="60" y="-7"/>
      <point x="64" y="-7"/>
    </contour>
    <contour>
      <point x="311" y="364" type="curve" smooth="yes"/>
      <point x="291" y="364"/>
      <point x="275" y="378"/>
      <point x="275" y="416" type="curve" smooth="yes"/>
      <point x="275" y="494"/>
      <point x="302" y="586"/>
      <point x="342" y="586" type="curve" smooth="yes"/>
      <point x="363" y="586"/>
      <point x="372" y="573"/>
      <point x="372" y="539" type="curve" smooth="yes"/>
      <point x="372" y="492"/>
      <point x="365" y="437"/>
      <point x="350" y="381" type="curve"/>
      <point x="337" y="369"/>
      <point x="324" y="364"/>
    </contour>
  </outline>
</glyph>
<glyph name="less" format="2">
  <advance width="434"/>
  <unicode hex="003C"/>
  <outline>
    <contour>
      <point x="374" y="66" type="line"/>
      <point x="433" y="167" type="line"/>
      <point x="249" y="294" type="line"/>
      <point x="495" y="421" type="line"/>
      <point x="485" y="532" type="line"/>
      <point x="130" y="350" type="line"/>
      <point x="106" y="248" type="line"/>
    </contour>
  </outline>
</glyph>
<glyph name="equal" format="2">
  <advance width="434"/>
  <unicode hex="003D"/>
  <outline>
    <contour>
      <point x="126" y="347" type="line"/>
      <point x="476" y="347" type="line"/>
      <point x="502" y="457" type="line"/>
      <point x="152" y="457" type="line"/>
    </contour>
    <contour>
      <point x="77" y="141" type="line"/>
      <point x="427" y="141" type="line"/>
      <point x="453" y="251" type="line"/>
      <point x="103" y="251" type="line"/>
    </contour>
  </outline>
</glyph>
<glyph name="greater" format="2">
  <advance width="434"/>
  <unicode hex="003E"/>
  <outline>
    <contour>
      <point x="92" y="66" type="line"/>
      <point x="447" y="248" type="line"/>
      <point x="471" y="350" type="line"/>
      <point x="203" y="532" type="line"/>
      <point x="144" y="431" type="line"/>
      <point x="328" y="304" type="line"/>
      <point x="82" y="177" type="line"/>
    </contour>
  </outline>
</glyph>
<glyph name="question" format="2">
	<advance width="367"/>
	<unicode hex="003F"/>
	<outline>
		<contour>
			<point x="154" y="221" type="curve"/>
			<point x="279" y="221" type="line"/>
			<point x="279" y="289"/>
			<point x="323" y="331"/>
			<point x="370" y="376" type="curve" smooth="yes"/>
			<point x="420" y="425"/>
			<point x="473" y="478"/>
			<point x="473" y="567" type="curve" smooth="yes"/>
			<point x="473" y="644"/>
			<point x="421" y="707"/>
			<point x="327" y="707" type="curve" smooth="yes"/>
			<point x="264" y="707"/>
			<point x="212" y="695"/>
			<point x="168" y="666" type="curve"/>
			<point x="195" y="563" type="line"/>
			<point x="229" y="581"/>
			<point x="254" y="589"/>
			<point x="278" y="589" type="curve" smooth="yes"/>
			<point x="311" y="589"/>
			<point x="330" y="572"/>
			<point x="330" y="540" type="curve" smooth="yes"/>
			<point x="330" y="489"/>
			<point x="289" y="454"/>
			<point x="248" y="411" type="curve" smooth="yes"/>
			<point x="203" y="365"/>
			<point x="154" y="306"/>
		</contour>
		<contour>
			<point x="175" y="-13" type="curve"/>
			<point x="223" y="-13"/>
			<point x="272" y="32"/>
			<point x="272" y="91" type="curve"/>
			<point x="272" y="136"/>
			<point x="239" y="164"/>
			<point x="193" y="164" type="curve"/>
			<point x="145" y="164"/>
			<point x="96" y="117"/>
			<point x="96" y="58" type="curve"/>
			<point x="96" y="15"/>
			<point x="129" y="-13"/>
		</contour>
	</outline>
</glyph>
<glyph name="at" format="2">
	<advance width="826"/>
	<unicode hex="0040"/>
	<outline>
		<contour>
			<point x="391" y="-161" type="curve" smooth="yes"/>
			<point x="461" y="-161"/>
			<point x="535" y="-151"/>
			<point x="565" y="-134" type="curve"/>
			<point x="567" y="-41" type="line"/>
			<point x="533" y="-53"/>
			<point x="472" y="-64"/>
			<point x="411" y="-64" type="curve" smooth="yes"/>
			<point x="276" y="-64"/>
			<point x="208" y="12"/>
			<point x="208" y="152" type="curve" smooth="yes"/>
			<point x="208" y="425"/>
			<point x="380" y="618"/>
			<point x="550" y="618" type="curve" smooth="yes"/>
			<point x="693" y="618"/>
			<point x="755" y="545"/>
			<point x="755" y="429" type="curve" smooth="yes"/>
			<point x="755" y="230"/>
			<point x="671" y="128"/>
			<point x="641" y="128" type="curve" smooth="yes"/>
			<point x="623" y="128"/>
			<point x="615" y="137"/>
			<point x="615" y="161" type="curve" smooth="yes"/>
			<point x="615" y="178"/>
			<point x="619" y="202"/>
			<point x="627" y="234" type="curve" smooth="yes"/>
			<point x="687" y="486" type="line"/>
			<point x="655" y="503"/>
			<point x="593" y="513"/>
			<point x="555" y="513" type="curve" smooth="yes"/>
			<point x="403" y="513"/>
			<point x="287" y="359"/>
			<point x="287" y="173" type="curve" smooth="yes"/>
			<point x="287" y="94"/>
			<point x="332" y="31"/>
			<point x="410" y="31" type="curve" smooth="yes"/>
			<point x="453" y="31"/>
			<point x="487" y="51"/>
			<point x="511" y="72" type="curve"/>
			<point x="535" y="44"/>
			<point x="569" y="31"/>
			<point x="615" y="31" type="curve" smooth="yes"/>
			<point x="757" y="31"/>
			<point x="866" y="228"/>
			<point x="866" y="441" type="curve" smooth="yes"/>
			<point x="866" y="619"/>
			<point x="757" y="716"/>
			<point x="567" y="716" type="curve" smooth="yes"/>
			<point x="310" y="716"/>
			<point x="93" y="480"/>
			<point x="93" y="130" type="curve" smooth="yes"/>
			<point x="93" y="-74"/>
			<point x="223" y="-161"/>
		</contour>
		<contour>
			<point x="454" y="132" type="curve" smooth="yes"/>
			<point x="424" y="132"/>
			<point x="409" y="149"/>
			<point x="409" y="183" type="curve" smooth="yes"/>
			<point x="409" y="300"/>
			<point x="470" y="415"/>
			<point x="525" y="415" type="curve" smooth="yes"/>
			<point x="533" y="415"/>
			<point x="540" y="414"/>
			<point x="548" y="410" type="curve"/>
			<point x="506" y="231" type="line" smooth="yes"/>
			<point x="499" y="200"/>
			<point x="495" y="176"/>
			<point x="495" y="154" type="curve"/>
			<point x="487" y="140"/>
			<point x="470" y="132"/>
		</contour>
	</outline>
</glyph>
<glyph name="A" format="2">
	<advance width="508"/>
	<unicode hex="0041"/>
	<outline>
		<contour>
			<point x="10" y="0" type="curve"/>
			<point x="152" y="0" type="line"/>
			<point x="167" y="42"/>
			<point x="186" y="91"/>
			<point x="209" y="146" type="curve"/>
			<point x="367" y="146" type="line"/>
			<point x="365" y="90"/>
			<point x="362" y="41"/>
			<point x="358" y="0" type="curve"/>
			<point x="502" y="0" type="line"/>
			<point x="514" y="272"/>
			<point x="501" y="510"/>
			<point x="490" y="693" type="curve"/>
			<point x="347" y="693" type="line"/>
			<point x="244" y="510"/>
			<point x="122" y="272"/>
		</contour>
		<contour>
			<point x="258" y="261" type="line"/>
			<point x="292" y="338"/>
			<point x="331" y="425"/>
			<point x="375" y="519" type="curve"/>
			<point x="374" y="425"/>
			<point x="372" y="338"/>
			<point x="370" y="261" type="curve"/>
		</contour>
	</outline>
</glyph>
<glyph name="B" format="2">
  <advance width="529"/>
  <unicode hex="0042"/>
  <outline>
    <contour>
      <point x="227" y="-10" type="curve" smooth="yes"/>
      <point x="433" y="-10"/>
      <point x="535" y="98"/>
      <point x="535" y="231" type="curve" smooth="yes"/>
      <point x="535" y="285"/>
      <point x="511" y="331"/>
      <point x="457" y="363" type="curve"/>
      <point x="558" y="405"/>
      <point x="594" y="481"/>
      <point x="594" y="557" type="curve" smooth="yes"/>
      <point x="594" y="651"/>
      <point x="528" y="703"/>
      <point x="400" y="703" type="curve" smooth="yes"/>
      <point x="353" y="703"/>
      <point x="301" y="697"/>
      <point x="232" y="683" type="curve"/>
      <point x="70" y="7" type="line"/>
      <point x="124" y="-4"/>
      <point x="179" y="-10"/>
    </contour>
    <contour>
      <point x="267" y="105" type="curve" smooth="yes"/>
      <point x="261" y="105"/>
      <point x="252" y="106"/>
      <point x="236" y="108" type="curve"/>
      <point x="283" y="303" type="line"/>
      <point x="317" y="303" type="line" smooth="yes"/>
      <point x="364" y="303"/>
      <point x="389" y="277"/>
      <point x="389" y="228" type="curve" smooth="yes"/>
      <point x="389" y="146"/>
      <point x="345" y="105"/>
    </contour>
    <contour>
      <point x="310" y="415" type="line"/>
      <point x="351" y="587" type="line"/>
      <point x="365" y="588"/>
      <point x="377" y="588"/>
      <point x="385" y="588" type="curve"/>
      <point x="428" y="588"/>
      <point x="448" y="570"/>
      <point x="448" y="531" type="curve" smooth="yes"/>
      <point x="448" y="477"/>
      <point x="425" y="415"/>
      <point x="332" y="415" type="curve" smooth="yes"/>
    </contour>
  </outline>
</glyph>
<glyph name="C" format="2">
  <advance width="470"/>
  <unicode hex="0043"/>
  <outline>
    <contour>
      <point x="317" y="-14" type="curve" smooth="yes"/>
      <point x="375" y="-14"/>
      <point x="428" y="-1"/>
      <point x="467" y="20" type="curve"/>
      <point x="461" y="139" type="line"/>
      <point x="430" y="119"/>
      <point x="393" y="110"/>
      <point x="361" y="110" type="curve" smooth="yes"/>
      <point x="308" y="110"/>
      <point x="264" y="139"/>
      <point x="264" y="220" type="curve" smooth="yes"/>
      <point x="264" y="484"/>
      <point x="364" y="585"/>
      <point x="458" y="585" type="curve" smooth="yes"/>
      <point x="489" y="585"/>
      <point x="518" y="579"/>
      <point x="543" y="565" type="curve"/>
      <point x="590" y="681" type="line"/>
      <point x="561" y="698"/>
      <point x="513" y="707"/>
      <point x="461" y="707" type="curve"/>
      <point x="255" y="707"/>
      <point x="118" y="496"/>
      <point x="118" y="231" type="curve" smooth="yes"/>
      <point x="118" y="75"/>
      <point x="178" y="-14"/>
    </contour>
  </outline>
</glyph>
<glyph name="D" format="2">
  <advance width="570"/>
  <unicode hex="0044"/>
  <outline>
    <contour>
      <point x="256" y="-10" type="curve" smooth="yes"/>
      <point x="516" y="-10"/>
      <point x="622" y="257"/>
      <point x="622" y="476" type="curve" smooth="yes"/>
      <point x="622" y="628"/>
      <point x="549" y="703"/>
      <point x="400" y="703" type="curve" smooth="yes"/>
      <point x="336" y="703"/>
      <point x="285" y="695"/>
      <point x="232" y="683" type="curve"/>
      <point x="71" y="11" type="line"/>
      <point x="121" y="-3"/>
      <point x="193" y="-10"/>
    </contour>
    <contour>
      <point x="293" y="110" type="curve" smooth="yes"/>
      <point x="281" y="110"/>
      <point x="258" y="113"/>
      <point x="238" y="118" type="curve"/>
      <point x="349" y="580" type="line"/>
      <point x="364" y="582"/>
      <point x="378" y="583"/>
      <point x="387" y="583" type="curve" smooth="yes"/>
      <point x="446" y="583"/>
      <point x="475" y="545"/>
      <point x="475" y="464" type="curve" smooth="yes"/>
      <point x="475" y="284"/>
      <point x="401" y="110"/>
    </contour>
  </outline>
</glyph>
<glyph name="E" format="2">
  <advance width="472"/>
  <unicode hex="0045"/>
  <outline>
    <contour>
      <point x="68" y="0" type="line"/>
      <point x="434" y="0" type="line"/>
      <point x="463" y="119" type="line"/>
      <point x="238" y="119" type="line"/>
      <point x="283" y="306" type="line"/>
      <point x="470" y="306" type="line"/>
      <point x="498" y="421" type="line"/>
      <point x="311" y="421" type="line"/>
      <point x="348" y="574" type="line"/>
      <point x="551" y="574" type="line"/>
      <point x="579" y="693" type="line"/>
      <point x="234" y="693" type="line"/>
    </contour>
  </outline>
</glyph>
<glyph name="F" format="2">
  <advance width="443"/>
  <unicode hex="0046"/>
  <outline>
    <contour>
      <point x="68" y="0" type="line"/>
      <point x="210" y="0" type="line"/>
      <point x="282" y="300" type="line"/>
      <point x="465" y="300" type="line"/>
      <point x="493" y="415" type="line"/>
      <point x="310" y="415" type="line"/>
      <point x="348" y="574" type="line"/>
      <point x="547" y="574" type="line"/>
      <point x="575" y="693" type="line"/>
      <point x="234" y="693" type="line"/>
    </contour>
  </outline>
</glyph>
<glyph name="G" format="2">
  <advance width="533"/>
  <unicode hex="0047"/>
  <outline>
    <contour>
      <point x="330" y="-14" type="curve"/>
      <point x="421" y="-14"/>
      <point x="483" y="10"/>
      <point x="488" y="14" type="curve"/>
      <point x="573" y="366" type="line"/>
      <point x="431" y="366" type="line"/>
      <point x="369" y="109" type="line"/>
      <point x="358" y="108"/>
      <point x="355" y="108"/>
      <point x="352" y="108" type="curve"/>
      <point x="293" y="108"/>
      <point x="264" y="140"/>
      <point x="264" y="218" type="curve" smooth="yes"/>
      <point x="264" y="454"/>
      <point x="352" y="584"/>
      <point x="468" y="584" type="curve"/>
      <point x="512" y="584"/>
      <point x="548" y="576"/>
      <point x="570" y="562" type="curve"/>
      <point x="622" y="682" type="line"/>
      <point x="596" y="697"/>
      <point x="549" y="707"/>
      <point x="499" y="707" type="curve"/>
      <point x="275" y="707"/>
      <point x="119" y="519"/>
      <point x="119" y="214" type="curve" smooth="yes"/>
      <point x="119" y="63"/>
      <point x="191" y="-14"/>
    </contour>
  </outline>
</glyph>
<glyph name="H" format="2">
  <advance width="568"/>
  <unicode hex="0048"/>
  <outline>
    <contour>
      <point x="68" y="0" type="line"/>
      <point x="210" y="0" type="line"/>
      <point x="282" y="300" type="line"/>
      <point x="430" y="300" type="line"/>
      <point x="358" y="0" type="line"/>
      <point x="500" y="0" type="line"/>
      <point x="666" y="693" type="line"/>
      <point x="524" y="693" type="line"/>
      <point x="459" y="420" type="line"/>
      <point x="311" y="420" type="line"/>
      <point x="376" y="693" type="line"/>
      <point x="234" y="693" type="line"/>
    </contour>
  </outline>
</glyph>
<glyph name="J" format="2">
  <advance width="395"/>
  <unicode hex="004A"/>
  <outline>
    <contour>
      <point x="143" y="-14.0" type="curve" smooth="yes"/>
      <point x="282" y="-14"/>
      <point x="349" y="53"/>
      <point x="382" y="189.0" type="curve" smooth="yes"/>
      <point x="503" y="693.0" type="line"/>
      <point x="361" y="693.0" type="line"/>
      <point x="242" y="194.0" type="line" smooth="yes"/>
      <point x="229" y="138"/>
      <point x="202" y="108"/>
      <point x="164" y="108.0" type="curve" smooth="yes"/>
      <point x="133" y="108"/>
      <point x="102" y="120"/>
      <point x="79" y="140.0" type="curve"/>
      <point x="11" y="31.0" type="line"/>
      <point x="46" y="4"/>
      <point x="97" y="-14"/>
    </contour>
  </outline>
</glyph>
<glyph name="K" format="2">
  <advance width="504"/>
  <unicode hex="004B"/>
  <outline>
    <contour>
      <point x="68" y="0" type="line"/>
      <point x="210" y="0" type="line"/>
      <point x="281" y="298" type="line"/>
      <point x="328" y="218"/>
      <point x="357" y="102"/>
      <point x="359" y="0" type="curve"/>
      <point x="502" y="0" type="line"/>
      <point x="494" y="119"/>
      <point x="459" y="243"/>
      <point x="411" y="345" type="curve"/>
      <point x="515" y="474"/>
      <point x="599" y="602"/>
      <point x="657" y="693" type="curve"/>
      <point x="512" y="693" type="line"/>
      <point x="464" y="616"/>
      <point x="392" y="497"/>
      <point x="302" y="385" type="curve"/>
      <point x="376" y="693" type="line"/>
      <point x="234" y="693" type="line"/>
    </contour>
  </outline>
</glyph>
<glyph name="L" format="2">
  <advance width="433"/>
  <unicode hex="004C"/>
  <outline>
    <contour>
      <point x="68" y="0" type="line"/>
      <point x="417" y="0" type="line"/>
      <point x="446" y="119" type="line"/>
      <point x="238" y="119" type="line"/>
      <point x="376" y="693" type="line"/>
      <point x="234" y="693" type="line"/>
    </contour>
  </outline>
</glyph>
<glyph name="M" format="2">
  <advance width="709"/>
  <unicode hex="004D"/>
  <outline>
    <contour>
      <point x="51" y="0" type="curve"/>
      <point x="186" y="0" type="line"/>
      <point x="214" y="114"/>
      <point x="258" y="285"/>
      <point x="312" y="467" type="curve"/>
      <point x="321" y="322"/>
      <point x="319" y="201"/>
      <point x="320" y="89" type="curve"/>
      <point x="431" y="89" type="line"/>
      <point x="485" y="197"/>
      <point x="543" y="316"/>
      <point x="618" y="455" type="curve"/>
      <point x="586" y="278"/>
      <point x="549" y="111"/>
      <point x="523" y="0" type="curve"/>
      <point x="658" y="0" type="line"/>
      <point x="706" y="223"/>
      <point x="755" y="506"/>
      <point x="785" y="693" type="curve"/>
      <point x="645" y="693" type="line"/>
      <point x="592" y="608"/>
      <point x="501" y="448"/>
      <point x="422" y="289" type="curve"/>
      <point x="419" y="437"/>
      <point x="408" y="608"/>
      <point x="396" y="693" type="curve"/>
      <point x="256" y="693" type="line"/>
      <point x="196" y="506"/>
      <point x="109" y="223"/>
    </contour>
  </outline>
</glyph>
<glyph name="N" format="2">
  <advance width="579"/>
  <unicode hex="004E"/>
  <outline>
    <contour>
      <point x="68" y="0" type="line"/>
      <point x="203" y="0" type="line"/>
      <point x="306" y="428" type="line"/>
      <point x="357" y="248"/>
      <point x="385" y="102"/>
      <point x="400" y="0" type="curve"/>
      <point x="511" y="0" type="line"/>
      <point x="677" y="693" type="line"/>
      <point x="542" y="693" type="line"/>
      <point x="450" y="310" type="line"/>
      <point x="418" y="453"/>
      <point x="383" y="582"/>
      <point x="346" y="693" type="curve"/>
      <point x="234" y="693" type="line"/>
    </contour>
  </outline>
</glyph>
<glyph name="O" format="2">
  <advance width="593"/>
  <unicode hex="004F"/>
  <guideline x="722" y="402" angle="90.0" identifier="dCOSXbZjJN"/>
  <outline>
    <contour>
      <point x="319" y="-13" type="curve" smooth="yes"/>
      <point x="522" y="-13"/>
      <point x="642" y="243"/>
      <point x="642" y="468" type="curve" smooth="yes"/>
      <point x="642" y="616"/>
      <point x="582" y="707"/>
      <point x="442" y="707" type="curve" smooth="yes"/>
      <point x="237" y="707"/>
      <point x="117" y="452"/>
      <point x="117" y="225" type="curve" smooth="yes"/>
      <point x="117" y="78"/>
      <point x="178" y="-13"/>
    </contour>
    <contour>
      <point x="331" y="110" type="curve" smooth="yes"/>
      <point x="278" y="110"/>
      <point x="263" y="152"/>
      <point x="263" y="222" type="curve" smooth="yes"/>
      <point x="263" y="321"/>
      <point x="314" y="585"/>
      <point x="426" y="585" type="curve" smooth="yes"/>
      <point x="475" y="585"/>
      <point x="495" y="542"/>
      <point x="495" y="472" type="curve" smooth="yes"/>
      <point x="495" y="370"/>
      <point x="440" y="110"/>
    </contour>
  </outline>
</glyph>
<glyph name="P" format="2">
  <advance width="499"/>
  <unicode hex="0050"/>
  <outline>
    <contour>
      <point x="70" y="0" type="line"/>
      <point x="212" y="0" type="line"/>
      <point x="269" y="239" type="line"/>
      <point x="292" y="239" type="line" smooth="yes"/>
      <point x="469" y="239"/>
      <point x="596" y="354"/>
      <point x="596" y="529" type="curve" smooth="yes"/>
      <point x="596" y="640"/>
      <point x="526" y="703"/>
      <point x="402" y="703" type="curve"/>
      <point x="346" y="703"/>
      <point x="295" y="697"/>
      <point x="234" y="683" type="curve"/>
    </contour>
    <contour>
      <point x="298" y="357" type="line"/>
      <point x="351" y="578" type="line"/>
      <point x="364" y="582"/>
      <point x="377" y="583"/>
      <point x="382" y="583" type="curve" smooth="yes"/>
      <point x="428" y="583"/>
      <point x="452" y="559"/>
      <point x="452" y="511" type="curve" smooth="yes"/>
      <point x="452" y="409"/>
      <point x="405" y="357"/>
      <point x="313" y="357" type="curve" smooth="yes"/>
    </contour>
  </outline>
</glyph>
<glyph name="Q" format="2">
  <advance width="593"/>
  <unicode hex="0051"/>
  <outline>
    <contour>
      <point x="482" y="-188" type="curve"/>
      <point x="524" y="-82" type="line"/>
      <point x="432" y="-80"/>
      <point x="391" y="-47"/>
      <point x="383" y="-5" type="curve" smooth="yes"/>
      <point x="383" y="-5"/>
      <point x="383" y="-4"/>
      <point x="383" y="-4" type="curve"/>
      <point x="547" y="43"/>
      <point x="642" y="268"/>
      <point x="642" y="468" type="curve" smooth="yes"/>
      <point x="642" y="616"/>
      <point x="582" y="707"/>
      <point x="442" y="707" type="curve" smooth="yes"/>
      <point x="237" y="707"/>
      <point x="117" y="452"/>
      <point x="117" y="225" type="curve" smooth="yes"/>
      <point x="117" y="102"/>
      <point x="160" y="18"/>
      <point x="257" y="-6" type="curve"/>
      <point x="257" y="-6"/>
      <point x="257" y="-7"/>
      <point x="257" y="-7" type="curve" smooth="yes"/>
      <point x="265" y="-114"/>
      <point x="315" y="-170"/>
    </contour>
    <contour>
      <point x="331" y="110" type="curve" smooth="yes"/>
      <point x="278" y="110"/>
      <point x="263" y="152"/>
      <point x="263" y="222" type="curve" smooth="yes"/>
      <point x="263" y="321"/>
      <point x="314" y="585"/>
      <point x="426" y="585" type="curve" smooth="yes"/>
      <point x="475" y="585"/>
      <point x="495" y="542"/>
      <point x="495" y="472" type="curve" smooth="yes"/>
      <point x="495" y="370"/>
      <point x="440" y="110"/>
    </contour>
  </outline>
</glyph>
<glyph name="R" format="2">
  <advance width="519"/>
  <unicode hex="0052"/>
  <outline>
    <contour>
      <point x="68" y="0" type="line"/>
      <point x="210" y="0" type="line"/>
      <point x="271" y="255" type="line"/>
      <point x="307" y="255" type="line"/>
      <point x="312.661" y="255.0"/>
      <point x="318.339" y="255.0"/>
      <point x="324" y="255" type="curve"/>
      <point x="352" y="174"/>
      <point x="362" y="87"/>
      <point x="371" y="0" type="curve"/>
      <point x="513" y="0" type="line"/>
      <point x="508" y="89"/>
      <point x="491" y="196"/>
      <point x="455" y="295" type="curve"/>
      <point x="560" y="364"/>
      <point x="589" y="458"/>
      <point x="589" y="543" type="curve" smooth="yes"/>
      <point x="589" y="648"/>
      <point x="523" y="703"/>
      <point x="400" y="703" type="curve" smooth="yes"/>
      <point x="337" y="703"/>
      <point x="285" y="695"/>
      <point x="232" y="682" type="curve"/>
    </contour>
    <contour>
      <point x="299" y="368" type="line"/>
      <point x="349" y="579" type="line"/>
      <point x="367" y="584"/>
      <point x="375" y="585"/>
      <point x="382" y="585" type="curve" smooth="yes"/>
      <point x="419" y="585"/>
      <point x="442" y="562"/>
      <point x="442" y="518" type="curve" smooth="yes"/>
      <point x="442" y="432"/>
      <point x="392" y="368"/>
      <point x="310" y="368" type="curve" smooth="yes"/>
    </contour>
  </outline>
</glyph>
<glyph name="S" format="2">
  <advance width="415"/>
  <unicode hex="0053"/>
  <outline>
    <contour>
      <point x="195" y="-14" type="curve" smooth="yes"/>
      <point x="349" y="-14"/>
      <point x="445" y="90"/>
      <point x="445" y="228" type="curve" smooth="yes"/>
      <point x="445" y="303"/>
      <point x="405" y="353"/>
      <point x="367" y="395" type="curve" smooth="yes"/>
      <point x="331" y="434"/>
      <point x="297" y="467"/>
      <point x="297" y="508" type="curve" smooth="yes"/>
      <point x="297" y="562"/>
      <point x="328" y="587"/>
      <point x="382" y="587" type="curve" smooth="yes"/>
      <point x="416" y="587"/>
      <point x="457" y="578"/>
      <point x="482" y="565" type="curve"/>
      <point x="528" y="675" type="line"/>
      <point x="489" y="696"/>
      <point x="449" y="707"/>
      <point x="392" y="707" type="curve" smooth="yes"/>
      <point x="259" y="707"/>
      <point x="154" y="613"/>
      <point x="154" y="481" type="curve" smooth="yes"/>
      <point x="154" y="407"/>
      <point x="196" y="362"/>
      <point x="235" y="321" type="curve" smooth="yes"/>
      <point x="269" y="286"/>
      <point x="300" y="253"/>
      <point x="300" y="206" type="curve" smooth="yes"/>
      <point x="300" y="145"/>
      <point x="269" y="106"/>
      <point x="215" y="106" type="curve" smooth="yes"/>
      <point x="176" y="106"/>
      <point x="120" y="119"/>
      <point x="87" y="147" type="curve"/>
      <point x="39" y="29" type="line"/>
      <point x="78" y="7"/>
      <point x="131" y="-14"/>
    </contour>
  </outline>
</glyph>
<glyph name="T" format="2">
  <advance width="453"/>
  <unicode hex="0054"/>
  <outline>
    <contour>
      <point x="156" y="0" type="line"/>
      <point x="298" y="0" type="line"/>
      <point x="436" y="574" type="line"/>
      <point x="574" y="574" type="line"/>
      <point x="602" y="693" type="line"/>
      <point x="183" y="693" type="line"/>
      <point x="155" y="574" type="line"/>
      <point x="294" y="574" type="line"/>
    </contour>
  </outline>
</glyph>
<glyph name="U" format="2">
	<advance width="550"/>
	<unicode hex="0055"/>
	<outline>
		<contour>
			<point x="289" y="-14" type="curve" smooth="yes"/>
			<point x="430" y="-14"/>
			<point x="506" y="70"/>
			<point x="542" y="219" type="curve" smooth="yes"/>
			<point x="656" y="693" type="line"/>
			<point x="514" y="693" type="line"/>
			<point x="400" y="218" type="line" smooth="yes"/>
			<point x="382" y="142"/>
			<point x="358" y="110"/>
			<point x="311" y="110" type="curve" smooth="yes"/>
			<point x="276" y="110"/>
			<point x="251" y="130"/>
			<point x="251" y="178" type="curve" smooth="yes"/>
			<point x="251" y="190"/>
			<point x="253" y="205"/>
			<point x="257" y="222" type="curve" smooth="yes"/>
			<point x="370" y="693" type="line"/>
			<point x="228" y="693" type="line"/>
			<point x="118" y="235" type="line" smooth="yes"/>
			<point x="111" y="207"/>
			<point x="108" y="181"/>
			<point x="108" y="158" type="curve" smooth="yes"/>
			<point x="108" y="47"/>
			<point x="178" y="-14"/>
		</contour>
	</outline>
</glyph>
<glyph name="V" format="2">
  <advance width="492"/>
  <unicode hex="0056"/>
  <outline>
    <contour>
      <point x="176.27649735573638" y="0" type="curve"/>
      <point x="319.2764973557364" y="0" type="line"/>
      <point x="422.2764973557364" y="182"/>
      <point x="538.2764973557364" y="422"/>
      <point x="650.2764973557364" y="693" type="curve"/>
      <point x="508.2764973557364" y="693" type="line"/>
      <point x="464.2764973557364" y="572"/>
      <point x="393.2764973557364" y="394"/>
      <point x="291.2764973557364" y="174" type="curve"/>
      <point x="294.2764973557364" y="397"/>
      <point x="303.2764973557364" y="575"/>
      <point x="314.2764973557364" y="693" type="curve"/>
      <point x="170.27649735573638" y="693" type="line"/>
      <point x="158.27649735573638" y="422"/>
      <point x="165.27649735573638" y="182"/>
    </contour>
  </outline>
</glyph>
<glyph name="W" format="2">
  <advance width="763"/>
  <unicode hex="0057"/>
  <outline>
    <contour>
      <point x="126" y="0" type="curve"/>
      <point x="265" y="0" type="line"/>
      <point x="317" y="99"/>
      <point x="389" y="268"/>
      <point x="445" y="407" type="curve"/>
      <point x="438" y="268"/>
      <point x="435" y="100"/>
      <point x="439" y="0" type="curve"/>
      <point x="573" y="0" type="line"/>
      <point x="666" y="194"/>
      <point x="798" y="547"/>
      <point x="848" y="693" type="curve"/>
      <point x="707" y="693" type="line"/>
      <point x="674" y="580"/>
      <point x="615" y="397"/>
      <point x="546" y="214" type="curve"/>
      <point x="548" y="338"/>
      <point x="553" y="487"/>
      <point x="562" y="618" type="curve"/>
      <point x="427" y="618" type="line"/>
      <point x="376" y="488"/>
      <point x="314" y="339"/>
      <point x="258" y="215" type="curve"/>
      <point x="274" y="399"/>
      <point x="296" y="581"/>
      <point x="315" y="693" type="curve"/>
      <point x="171" y="693" type="line"/>
      <point x="153" y="547"/>
      <point x="127" y="195"/>
    </contour>
  </outline>
</glyph>
<glyph name="X" format="2">
	<advance width="507"/>
	<unicode hex="0058"/>
	<outline>
		<contour>
			<point x="7" y="0" type="curve"/>
			<point x="157" y="0" type="line"/>
			<point x="192" y="67"/>
			<point x="228" y="126"/>
			<point x="313" y="250" type="curve"/>
			<point x="341" y="126"/>
			<point x="353" y="63"/>
			<point x="358" y="0" type="curve"/>
			<point x="504" y="0" type="line"/>
			<point x="497" y="92"/>
			<point x="473" y="202"/>
			<point x="433" y="357" type="curve"/>
			<point x="506" y="469"/>
			<point x="578" y="581"/>
			<point x="651" y="693" type="curve"/>
			<point x="500" y="693" type="line"/>
			<point x="458" y="619"/>
			<point x="416" y="546"/>
			<point x="374" y="472" type="curve"/>
			<point x="331" y="693" type="line"/>
			<point x="180" y="693" type="line"/>
			<point x="252" y="371" type="line"/>
			<point x="137" y="205"/>
			<point x="60" y="96"/>
		</contour>
	</outline>
</glyph>
<glyph name="Y" format="2">
  <advance width="492"/>
  <unicode hex="0059"/>
  <outline>
    <contour>
      <point x="174" y="0" type="line"/>
      <point x="316" y="0" type="line"/>
      <point x="379" y="261" type="line"/>
      <point x="479" y="401"/>
      <point x="598" y="590"/>
      <point x="653" y="693" type="curve"/>
      <point x="502" y="693" type="line"/>
      <point x="461" y="604"/>
      <point x="405" y="501"/>
      <point x="341" y="402" type="curve"/>
      <point x="327" y="502"/>
      <point x="319" y="604"/>
      <point x="317" y="693" type="curve"/>
      <point x="167" y="693" type="line"/>
      <point x="177" y="590"/>
      <point x="205" y="402"/>
      <point x="237" y="261" type="curve"/>
    </contour>
  </outline>
</glyph>
<glyph name="Z" format="2">
  <advance width="448"/>
  <unicode hex="005A"/>
  <outline>
    <contour>
      <point x="30" y="0" type="line"/>
      <point x="422" y="0" type="line"/>
      <point x="451" y="119" type="line"/>
      <point x="225" y="119" type="line"/>
      <point x="313" y="258"/>
      <point x="435" y="433"/>
      <point x="552" y="572" type="curve"/>
      <point x="581" y="693" type="line"/>
      <point x="211" y="693" type="line"/>
      <point x="183" y="574" type="line"/>
      <point x="399" y="574" type="line"/>
      <point x="264" y="409"/>
      <point x="149" y="242"/>
      <point x="51" y="87" type="curve"/>
    </contour>
  </outline>
</glyph>
<glyph name="bracketleft" format="2">
  <advance width="320"/>
  <unicode hex="005B"/>
  <outline>
    <contour>
      <point x="27" y="-185.0" type="line"/>
      <point x="248" y="-185.0" type="line"/>
      <point x="272" y="-84.0" type="line"/>
      <point x="177" y="-84.0" type="line"/>
      <point x="361" y="681.0" type="line"/>
      <point x="456" y="681.0" type="line"/>
      <point x="480" y="783.0" type="line"/>
      <point x="259" y="783.0" type="line"/>
    </contour>
  </outline>
</glyph>
<glyph name="backslash" format="2">
	<advance width="315"/>
	<unicode hex="005C"/>
	<outline>
		<contour>
			<point x="197" y="-185" type="line"/>
			<point x="318" y="-185" type="line"/>
			<point x="286" y="783" type="line"/>
			<point x="165" y="783" type="line"/>
		</contour>
	</outline>
</glyph>
<glyph name="bracketright" format="2">
  <advance width="320"/>
  <unicode hex="005D"/>
  <outline>
    <contour>
      <point x="-16.0" y="-185.0" type="line"/>
      <point x="205.0" y="-185.0" type="line"/>
      <point x="437.0" y="783.0" type="line"/>
      <point x="216.0" y="783.0" type="line"/>
      <point x="192.0" y="682.0" type="line"/>
      <point x="287.0" y="682.0" type="line"/>
      <point x="103.0" y="-83.0" type="line"/>
      <point x="8.0" y="-83.0" type="line"/>
    </contour>
  </outline>
</glyph>
<glyph name="asciicircum" format="2">
  <advance width="434"/>
  <unicode hex="005E"/>
  <outline>
    <contour>
      <point x="380" y="295" type="line"/>
      <point x="499" y="328" type="line"/>
      <point x="437" y="693" type="line"/>
      <point x="325" y="693" type="line"/>
      <point x="97" y="341" type="line"/>
      <point x="197" y="295" type="line"/>
      <point x="347" y="538" type="line"/>
    </contour>
  </outline>
</glyph>
<glyph name="underscore" format="2">
  <advance width="368"/>
  <unicode hex="005F"/>
  <outline>
    <contour>
      <point x="-44" y="-185.0" type="line"/>
      <point x="324" y="-185.0" type="line"/>
      <point x="352" y="-68.0" type="line"/>
      <point x="-16" y="-68.0" type="line"/>
    </contour>
  </outline>
</glyph>
<glyph name="grave" format="2">
  <advance width="255"/>
  <unicode hex="0060"/>
  <outline>
    <contour>
      <point x="326" y="578.0" type="line"/>
      <point x="389" y="630.0" type="line"/>
      <point x="278" y="785.0" type="line"/>
      <point x="189" y="712.0" type="line"/>
    </contour>
  </outline>
</glyph>
<glyph name="a" format="2">
  <advance width="480"/>
  <unicode hex="0061"/>
  <outline>
    <contour>
      <point x="215" y="-10" type="curve" smooth="yes"/>
      <point x="265" y="-10"/>
      <point x="307" y="9"/>
      <point x="332" y="30" type="curve"/>
      <point x="338" y="17"/>
      <point x="343" y="4"/>
      <point x="349" y="-11" type="curve"/>
      <point x="468" y="9" type="line"/>
      <point x="449" y="72"/>
      <point x="443" y="145"/>
      <point x="462" y="223" type="curve" smooth="yes"/>
      <point x="531" y="511" type="line"/>
      <point x="494" y="531"/>
      <point x="424" y="543"/>
      <point x="382" y="543" type="curve" smooth="yes"/>
      <point x="214" y="543"/>
      <point x="86" y="366"/>
      <point x="86" y="153" type="curve" smooth="yes"/>
      <point x="86" y="62"/>
      <point x="121" y="-10"/>
    </contour>
    <contour>
      <point x="269" y="105" type="curve" smooth="yes"/>
      <point x="234" y="105"/>
      <point x="226" y="125"/>
      <point x="226" y="164" type="curve" smooth="yes"/>
      <point x="226" y="298"/>
      <point x="290" y="430"/>
      <point x="347" y="430" type="curve" smooth="yes"/>
      <point x="356" y="430"/>
      <point x="363" y="429"/>
      <point x="372" y="424" type="curve"/>
      <point x="323" y="219" type="line" smooth="yes"/>
      <point x="315" y="184"/>
      <point x="311" y="156"/>
      <point x="311" y="131" type="curve"/>
      <point x="302" y="116"/>
      <point x="286" y="105"/>
    </contour>
  </outline>
</glyph>
<glyph name="b" format="2">
  <advance width="471"/>
  <unicode hex="0062"/>
  <outline>
    <contour>
      <point x="215" y="-10" type="curve" smooth="yes"/>
      <point x="384" y="-10"/>
      <point x="509" y="165"/>
      <point x="513" y="376" type="curve" smooth="yes"/>
      <point x="515" y="470"/>
      <point x="478" y="543"/>
      <point x="382" y="543" type="curve" smooth="yes"/>
      <point x="362" y="543"/>
      <point x="342" y="536"/>
      <point x="325" y="527" type="curve"/>
      <point x="385" y="776" type="line"/>
      <point x="242" y="754" type="line"/>
      <point x="66" y="22" type="line"/>
      <point x="103" y="2"/>
      <point x="173" y="-10"/>
    </contour>
    <contour>
      <point x="250" y="103" type="curve" smooth="yes"/>
      <point x="241" y="103"/>
      <point x="234" y="104"/>
      <point x="225" y="109" type="curve"/>
      <point x="297" y="411" type="line"/>
      <point x="311" y="423"/>
      <point x="324" y="427"/>
      <point x="337" y="427" type="curve" smooth="yes"/>
      <point x="368" y="427"/>
      <point x="373" y="405"/>
      <point x="373" y="365" type="curve" smooth="yes"/>
      <point x="373" y="236"/>
      <point x="308" y="103"/>
    </contour>
  </outline>
</glyph>
<glyph name="c" format="2">
  <advance width="361"/>
  <unicode hex="0063"/>
  <outline>
    <contour>
      <point x="251" y="-14" type="curve" smooth="yes"/>
      <point x="290" y="-14"/>
      <point x="322" y="-7"/>
      <point x="359" y="9" type="curve"/>
      <point x="353" y="114" type="line"/>
      <point x="333" y="107"/>
      <point x="315" y="104"/>
      <point x="299" y="104" type="curve" smooth="yes"/>
      <point x="256" y="104"/>
      <point x="232" y="130"/>
      <point x="232" y="183" type="curve" smooth="yes"/>
      <point x="232" y="333"/>
      <point x="280" y="429"/>
      <point x="356" y="429" type="curve" smooth="yes"/>
      <point x="376" y="429"/>
      <point x="399" y="425"/>
      <point x="421" y="414" type="curve"/>
      <point x="464" y="525" type="line"/>
      <point x="432" y="540"/>
      <point x="395" y="546"/>
      <point x="354" y="546" type="curve"/>
      <point x="202" y="546"/>
      <point x="92" y="385"/>
      <point x="92" y="164" type="curve" smooth="yes"/>
      <point x="92" y="52"/>
      <point x="151" y="-14"/>
    </contour>
  </outline>
</glyph>
<glyph name="d" format="2">
  <advance width="482"/>
  <unicode hex="0064"/>
  <outline>
    <contour>
      <point x="215" y="-10" type="curve" smooth="yes"/>
      <point x="266" y="-10"/>
      <point x="309" y="9"/>
      <point x="334" y="30" type="curve"/>
      <point x="340" y="17"/>
      <point x="345" y="4"/>
      <point x="351" y="-11" type="curve"/>
      <point x="470" y="9" type="line"/>
      <point x="451" y="72"/>
      <point x="445" y="145"/>
      <point x="464" y="223" type="curve" smooth="yes"/>
      <point x="596" y="776" type="line"/>
      <point x="453" y="754" type="line"/>
      <point x="400" y="535" type="line"/>
      <point x="389" y="540"/>
      <point x="374" y="543"/>
      <point x="361" y="543" type="curve" smooth="yes"/>
      <point x="221" y="543"/>
      <point x="86" y="366"/>
      <point x="86" y="152" type="curve" smooth="yes"/>
      <point x="86" y="62"/>
      <point x="121" y="-10"/>
    </contour>
    <contour>
      <point x="269" y="105" type="curve" smooth="yes"/>
      <point x="234" y="105"/>
      <point x="225" y="125"/>
      <point x="225" y="163" type="curve" smooth="yes"/>
      <point x="225" y="298"/>
      <point x="291" y="428"/>
      <point x="349" y="428" type="curve" smooth="yes"/>
      <point x="355" y="428"/>
      <point x="362" y="428"/>
      <point x="374" y="423" type="curve"/>
      <point x="325" y="219" type="line" smooth="yes"/>
      <point x="317" y="184"/>
      <point x="313" y="156"/>
      <point x="313" y="131" type="curve"/>
      <point x="304" y="116"/>
      <point x="287" y="105"/>
    </contour>
  </outline>
</glyph>
<glyph name="e" format="2">
  <advance width="426"/>
  <unicode hex="0065"/>
  <outline>
    <contour>
      <point x="269" y="-14" type="curve" smooth="yes"/>
      <point x="324" y="-14"/>
      <point x="363" y="-2"/>
      <point x="399" y="14" type="curve"/>
      <point x="392" y="118" type="line"/>
      <point x="367" y="105"/>
      <point x="337" y="100"/>
      <point x="307" y="100" type="curve" smooth="yes"/>
      <point x="256" y="100"/>
      <point x="228" y="118"/>
      <point x="228" y="181" type="curve" smooth="yes"/>
      <point x="228" y="183"/>
      <point x="228" y="185"/>
      <point x="228" y="188" type="curve"/>
      <point x="371" y="198"/>
      <point x="483" y="253"/>
      <point x="490" y="408" type="curve" smooth="yes"/>
      <point x="494" y="494"/>
      <point x="443" y="546"/>
      <point x="357" y="546" type="curve" smooth="yes"/>
      <point x="195" y="546"/>
      <point x="91" y="362"/>
      <point x="91" y="174" type="curve" smooth="yes"/>
      <point x="91" y="71"/>
      <point x="131" y="-14"/>
    </contour>
    <contour>
      <point x="235" y="286" type="curve"/>
      <point x="251" y="377"/>
      <point x="292" y="434"/>
      <point x="331" y="434" type="curve" smooth="yes"/>
      <point x="353" y="434"/>
      <point x="362" y="420"/>
      <point x="362" y="396" type="curve" smooth="yes"/>
      <point x="362" y="356"/>
      <point x="338" y="299"/>
    </contour>
  </outline>
</glyph>
<glyph name="f" format="2">
  <advance width="353"/>
  <unicode hex="0066"/>
  <outline>
    <contour>
      <point x="96" y="-189" type="line"/>
      <point x="150" y="-123"/>
      <point x="189" y="-54"/>
      <point x="223" y="90" type="curve" smooth="yes"/>
      <point x="301" y="418" type="line"/>
      <point x="432" y="418" type="line"/>
      <point x="460" y="532" type="line"/>
      <point x="329" y="532" type="line"/>
      <point x="334" y="554" type="line" smooth="yes"/>
      <point x="349" y="616"/>
      <point x="367" y="659"/>
      <point x="427" y="659" type="curve" smooth="yes"/>
      <point x="452" y="659"/>
      <point x="472" y="651"/>
      <point x="488" y="643" type="curve"/>
      <point x="534" y="752" type="line"/>
      <point x="512" y="766"/>
      <point x="476" y="776"/>
      <point x="435" y="776" type="curve" smooth="yes"/>
      <point x="296" y="776"/>
      <point x="232" y="698"/>
      <point x="198" y="556" type="curve" smooth="yes"/>
      <point x="81" y="72" type="line" smooth="yes"/>
      <point x="62" y="-8"/>
      <point x="21" y="-112"/>
      <point x="-30" y="-169" type="curve"/>
    </contour>
  </outline>
</glyph>
<glyph name="g" format="2">
  <advance width="472"/>
  <unicode hex="0067"/>
  <outline>
    <contour>
      <point x="157" y="-188" type="curve" smooth="yes"/>
      <point x="298" y="-188"/>
      <point x="387" y="-104"/>
      <point x="426" y="62" type="curve" smooth="yes"/>
      <point x="530" y="506" type="line"/>
      <point x="493" y="526"/>
      <point x="423" y="538"/>
      <point x="381" y="538" type="curve" smooth="yes"/>
      <point x="215" y="538"/>
      <point x="93" y="382"/>
      <point x="89" y="194" type="curve" smooth="yes"/>
      <point x="87" y="100"/>
      <point x="123" y="27"/>
      <point x="218" y="27" type="curve" smooth="yes"/>
      <point x="241" y="27"/>
      <point x="263" y="35"/>
      <point x="281" y="45" type="curve"/>
      <point x="280" y="39" type="line" smooth="yes"/>
      <point x="269" y="-26"/>
      <point x="238" y="-76"/>
      <point x="163" y="-76" type="curve" smooth="yes"/>
      <point x="125" y="-76"/>
      <point x="92" y="-65"/>
      <point x="62" y="-48" type="curve"/>
      <point x="18" y="-157" type="line"/>
      <point x="56" y="-177"/>
      <point x="105" y="-188"/>
    </contour>
    <contour>
      <point x="265" y="143" type="curve" smooth="yes"/>
      <point x="236" y="143"/>
      <point x="229" y="165"/>
      <point x="229" y="205" type="curve" smooth="yes"/>
      <point x="229" y="313"/>
      <point x="291" y="425"/>
      <point x="346" y="425" type="curve" smooth="yes"/>
      <point x="355" y="425"/>
      <point x="362" y="424"/>
      <point x="371" y="419" type="curve"/>
      <point x="310" y="163" type="line"/>
      <point x="296" y="147"/>
      <point x="279" y="143"/>
    </contour>
  </outline>
</glyph>
<glyph name="h" format="2">
  <advance width="482"/>
  <unicode hex="0068"/>
  <outline>
    <contour>
      <point x="61" y="0" type="line"/>
      <point x="199" y="0" type="line"/>
      <point x="300" y="422" type="line"/>
      <point x="313" y="426"/>
      <point x="325" y="427"/>
      <point x="331" y="427" type="curve"/>
      <point x="358" y="427"/>
      <point x="374" y="413"/>
      <point x="374" y="374" type="curve" smooth="yes"/>
      <point x="374" y="357"/>
      <point x="371" y="335"/>
      <point x="364" y="307" type="curve" smooth="yes"/>
      <point x="290" y="0" type="line"/>
      <point x="428" y="0" type="line"/>
      <point x="503" y="313" type="line" smooth="yes"/>
      <point x="510" y="343"/>
      <point x="514" y="371"/>
      <point x="514" y="396" type="curve" smooth="yes"/>
      <point x="514" y="488"/>
      <point x="465" y="542"/>
      <point x="383" y="542" type="curve" smooth="yes"/>
      <point x="367" y="542"/>
      <point x="345" y="539"/>
      <point x="326" y="531" type="curve"/>
      <point x="385" y="776" type="line"/>
      <point x="242" y="754" type="line"/>
    </contour>
  </outline>
</glyph>
<glyph name="i" format="2">
  <advance width="260"/>
  <unicode hex="0069"/>
  <outline>
    <contour>
      <point x="61" y="0" type="line"/>
      <point x="199" y="0" type="line"/>
      <point x="327" y="532" type="line"/>
      <point x="189" y="532" type="line"/>
    </contour>
    <contour>
      <point x="281" y="596" type="curve" smooth="yes"/>
      <point x="329" y="596"/>
      <point x="377" y="638"/>
      <point x="377" y="696" type="curve" smooth="yes"/>
      <point x="377" y="738"/>
      <point x="346" y="764"/>
      <point x="305" y="764" type="curve" smooth="yes"/>
      <point x="257" y="764"/>
      <point x="209" y="720"/>
      <point x="209" y="663" type="curve" smooth="yes"/>
      <point x="209" y="622"/>
      <point x="240" y="596"/>
    </contour>
  </outline>
</glyph>
<glyph name="j" format="2">
  <advance width="270"/>
  <unicode hex="006A"/>
  <outline>
    <contour>
      <point x="25" y="-188" type="curve" smooth="yes"/>
      <point x="121" y="-188"/>
      <point x="177" y="-132"/>
      <point x="206" y="-12" type="curve" smooth="yes"/>
      <point x="337" y="532" type="line"/>
      <point x="199" y="532" type="line"/>
      <point x="67" y="-16" type="line" smooth="yes"/>
      <point x="58" y="-53"/>
      <point x="44" y="-73"/>
      <point x="18" y="-73" type="curve" smooth="yes"/>
      <point x="0" y="-73"/>
      <point x="-12" y="-69"/>
      <point x="-26" y="-62" type="curve"/>
      <point x="-65" y="-169" type="line"/>
      <point x="-39" y="-180"/>
      <point x="-5" y="-188"/>
    </contour>
    <contour>
      <point x="291" y="596" type="curve" smooth="yes"/>
      <point x="339" y="596"/>
      <point x="387" y="638"/>
      <point x="387" y="696" type="curve" smooth="yes"/>
      <point x="387" y="738"/>
      <point x="356" y="764"/>
      <point x="315" y="764" type="curve" smooth="yes"/>
      <point x="267" y="764"/>
      <point x="219" y="720"/>
      <point x="219" y="663" type="curve" smooth="yes"/>
      <point x="219" y="622"/>
      <point x="250" y="596"/>
    </contour>
  </outline>
</glyph>
<glyph name="k" format="2">
  <advance width="452"/>
  <unicode hex="006B"/>
  <outline>
    <contour>
      <point x="58" y="0" type="line"/>
      <point x="196" y="0" type="line"/>
      <point x="251" y="228" type="line"/>
      <point x="273" y="173"/>
      <point x="292" y="83"/>
      <point x="299" y="0" type="curve"/>
      <point x="442" y="0" type="line"/>
      <point x="433" y="93"/>
      <point x="407" y="192"/>
      <point x="370" y="278" type="curve"/>
      <point x="445" y="366"/>
      <point x="518" y="457"/>
      <point x="568" y="532" type="curve"/>
      <point x="422" y="532" type="line"/>
      <point x="389" y="476"/>
      <point x="322" y="384"/>
      <point x="274" y="325" type="curve"/>
      <point x="382" y="776" type="line"/>
      <point x="239" y="754" type="line"/>
    </contour>
  </outline>
</glyph>
<glyph name="l" format="2">
  <advance width="268"/>
  <unicode hex="006C"/>
  <outline>
    <contour>
      <point x="243.50979671005064" y="-14" type="curve"/>
      <point x="270.50979671005064" y="98" type="line"/>
      <point x="229.50979671005064" y="101"/>
      <point x="217.50979671005064" y="117"/>
      <point x="227.50979671005064" y="160" type="curve" smooth="yes"/>
      <point x="375.50979671005064" y="776" type="line"/>
      <point x="232.50979671005064" y="754" type="line"/>
      <point x="88.50979671005065" y="158" type="line" smooth="yes"/>
      <point x="60.50979671005065" y="44"/>
      <point x="110.50979671005065" y="-10"/>
    </contour>
  </outline>
</glyph>
<glyph name="m" format="2">
  <advance width="701"/>
  <unicode hex="006D"/>
  <outline>
    <contour>
      <point x="61" y="0" type="line"/>
      <point x="199" y="0" type="line"/>
      <point x="300" y="421" type="line"/>
      <point x="310" y="425"/>
      <point x="322" y="427"/>
      <point x="330" y="427" type="curve" smooth="yes"/>
      <point x="359" y="427"/>
      <point x="372" y="414"/>
      <point x="372" y="383" type="curve" smooth="yes"/>
      <point x="372" y="369"/>
      <point x="370" y="351"/>
      <point x="364" y="328" type="curve" smooth="yes"/>
      <point x="285" y="0" type="line"/>
      <point x="423" y="0" type="line"/>
      <point x="503" y="334" type="line" smooth="yes"/>
      <point x="507" y="352"/>
      <point x="510" y="371"/>
      <point x="510" y="388" type="curve" smooth="yes"/>
      <point x="510" y="394"/>
      <point x="510" y="401"/>
      <point x="509" y="405" type="curve"/>
      <point x="524" y="420"/>
      <point x="542" y="427"/>
      <point x="562" y="427" type="curve" smooth="yes"/>
      <point x="583" y="427"/>
      <point x="596" y="414"/>
      <point x="596" y="382" type="curve" smooth="yes"/>
      <point x="596" y="368"/>
      <point x="593" y="350"/>
      <point x="588" y="328" type="curve" smooth="yes"/>
      <point x="509" y="0" type="line"/>
      <point x="647" y="0" type="line"/>
      <point x="727" y="334" type="line" smooth="yes"/>
      <point x="734" y="363"/>
      <point x="737" y="389"/>
      <point x="737" y="411" type="curve" smooth="yes"/>
      <point x="737" y="499"/>
      <point x="687" y="542"/>
      <point x="599" y="542" type="curve" smooth="yes"/>
      <point x="557" y="542"/>
      <point x="505" y="529"/>
      <point x="465" y="504" type="curve"/>
      <point x="440" y="528"/>
      <point x="403" y="542"/>
      <point x="357" y="542" type="curve" smooth="yes"/>
      <point x="300" y="542"/>
      <point x="243" y="531"/>
      <point x="184" y="513" type="curve"/>
    </contour>
  </outline>
</glyph>
<glyph name="n" format="2">
  <advance width="482"/>
  <unicode hex="006E"/>
  <outline>
    <contour>
      <point x="61" y="0" type="line"/>
      <point x="199" y="0" type="line"/>
      <point x="300" y="421" type="line"/>
      <point x="311" y="425"/>
      <point x="322" y="427"/>
      <point x="331" y="427" type="curve" smooth="yes"/>
      <point x="372" y="427"/>
      <point x="385" y="392"/>
      <point x="364" y="307" type="curve" smooth="yes"/>
      <point x="290" y="0" type="line"/>
      <point x="428" y="0" type="line"/>
      <point x="503" y="313" type="line" smooth="yes"/>
      <point x="540" y="467"/>
      <point x="491" y="542"/>
      <point x="358" y="542" type="curve" smooth="yes"/>
      <point x="300" y="542"/>
      <point x="244" y="531"/>
      <point x="184" y="513" type="curve"/>
    </contour>
  </outline>
</glyph>
<glyph name="o" format="2">
  <advance width="468"/>
  <unicode hex="006F"/>
  <outline>
    <contour>
      <point x="251" y="-11" type="curve" smooth="yes"/>
      <point x="410" y="-11"/>
      <point x="504" y="190"/>
      <point x="504" y="367" type="curve" smooth="yes"/>
      <point x="504" y="476"/>
      <point x="449" y="543"/>
      <point x="346" y="543" type="curve" smooth="yes"/>
      <point x="186.0" y="543.0"/>
      <point x="92" y="343"/>
      <point x="92" y="165" type="curve" smooth="yes"/>
      <point x="92" y="56"/>
      <point x="148" y="-11"/>
    </contour>
    <contour>
      <point x="265" y="103" type="curve" smooth="yes"/>
      <point x="240" y="103.0"/>
      <point x="232.0" y="120.61000882315818"/>
      <point x="232" y="154" type="curve" smooth="yes"/>
      <point x="232" y="229"/>
      <point x="263.94117647058823" y="429.0"/>
      <point x="331" y="429" type="curve" smooth="yes"/>
      <point x="355.0217288664427" y="429.0"/>
      <point x="364" y="411"/>
      <point x="364" y="378" type="curve" smooth="yes"/>
      <point x="364" y="301"/>
      <point x="331" y="103"/>
    </contour>
  </outline>
</glyph>
<glyph name="p" format="2">
  <advance width="472"/>
  <unicode hex="0070"/>
  <guideline x="134" y="511" angle="0" identifier="u3WxqekTTV"/>
  <guideline x="390" y="543" angle="0" identifier="4cwNwYo1Gx"/>
  <outline>
    <contour>
      <point x="17" y="-185" type="line"/>
      <point x="155" y="-185" type="line"/>
      <point x="198" y="-4" type="line"/>
      <point x="213" y="-11"/>
      <point x="230" y="-14"/>
      <point x="243" y="-14" type="curve" smooth="yes"/>
      <point x="376" y="-14"/>
      <point x="514" y="165"/>
      <point x="514" y="380" type="curve" smooth="yes"/>
      <point x="514" y="480"/>
      <point x="470" y="542"/>
      <point x="344" y="542" type="curve" smooth="yes"/>
      <point x="303" y="542"/>
      <point x="227" y="529"/>
      <point x="185" y="513" type="curve"/>
    </contour>
    <contour>
      <point x="250" y="101" type="curve" smooth="yes"/>
      <point x="244" y="101"/>
      <point x="237" y="101"/>
      <point x="225" y="106" type="curve"/>
      <point x="299" y="417" type="line"/>
      <point x="308" y="422"/>
      <point x="322" y="426"/>
      <point x="335" y="426" type="curve" smooth="yes"/>
      <point x="364" y="426"/>
      <point x="374" y="406"/>
      <point x="374" y="367" type="curve" smooth="yes"/>
      <point x="374" y="232"/>
      <point x="306" y="101"/>
    </contour>
  </outline>
</glyph>
<glyph name="q" format="2">
  <advance width="472"/>
  <unicode hex="0071"/>
  <outline>
    <contour>
      <point x="228.22994300139982" y="-185" type="line"/>
      <point x="366.2299430013998" y="-185" type="line"/>
      <point x="533.2299430013998" y="513" type="line"/>
      <point x="496.2299430013998" y="528"/>
      <point x="425.2299430013998" y="542"/>
      <point x="383.2299430013998" y="542" type="curve" smooth="yes"/>
      <point x="215.07473408256055" y="542"/>
      <point x="89.07473408256057" y="367"/>
      <point x="85.07473408256057" y="156" type="curve" smooth="yes"/>
      <point x="83.07473408256057" y="61"/>
      <point x="121.07473408256057" y="-12"/>
      <point x="216.22994300139982" y="-12" type="curve" smooth="yes"/>
      <point x="236.22994300139982" y="-12"/>
      <point x="256.2299430013998" y="-4"/>
      <point x="273.2299430013998" y="5" type="curve"/>
    </contour>
    <contour>
      <point x="261.2299430013998" y="105" type="curve" smooth="yes"/>
      <point x="230.15133852060563" y="105"/>
      <point x="225.15133852060563" y="127"/>
      <point x="225.15133852060563" y="167" type="curve" smooth="yes"/>
      <point x="225.15133852060563" y="296"/>
      <point x="290.15133852060563" y="429"/>
      <point x="348.2299430013998" y="429" type="curve" smooth="yes"/>
      <point x="357.2299430013998" y="429"/>
      <point x="364.2299430013998" y="428"/>
      <point x="373.2299430013998" y="423" type="curve"/>
      <point x="301.2299430013998" y="121" type="line"/>
      <point x="287.2299430013998" y="109"/>
      <point x="274.2299430013998" y="105"/>
    </contour>
  </outline>
</glyph>
<glyph name="r" format="2">
  <advance width="332"/>
  <unicode hex="0072"/>
  <outline>
    <contour>
      <point x="61" y="0" type="line"/>
      <point x="199" y="0" type="line"/>
      <point x="299" y="417" type="line"/>
      <point x="316" y="422"/>
      <point x="331" y="425"/>
      <point x="346" y="425" type="curve" smooth="yes"/>
      <point x="372" y="425"/>
      <point x="396" y="423"/>
      <point x="413" y="416" type="curve"/>
      <point x="453" y="529" type="line"/>
      <point x="426" y="538"/>
      <point x="394" y="542"/>
      <point x="356" y="542" type="curve" smooth="yes"/>
      <point x="298" y="542"/>
      <point x="243" y="530"/>
      <point x="181" y="501" type="curve"/>
    </contour>
  </outline>
</glyph>
<glyph name="s" format="2">
  <advance width="374"/>
  <unicode hex="0073"/>
  <outline>
    <contour>
      <point x="171" y="-14" type="curve" smooth="yes"/>
      <point x="296" y="-14"/>
      <point x="389" y="64"/>
      <point x="389" y="176" type="curve" smooth="yes"/>
      <point x="389" y="229"/>
      <point x="374" y="261"/>
      <point x="328" y="305" type="curve" smooth="yes"/>
      <point x="289" y="342"/>
      <point x="271" y="357"/>
      <point x="271" y="381" type="curve"/>
      <point x="271" y="411"/>
      <point x="293" y="434"/>
      <point x="333" y="434" type="curve" smooth="yes"/>
      <point x="355" y="434"/>
      <point x="376" y="429"/>
      <point x="401" y="418" type="curve"/>
      <point x="446" y="524" type="line"/>
      <point x="431" y="533"/>
      <point x="393" y="546"/>
      <point x="345" y="546" type="curve" smooth="yes"/>
      <point x="220" y="546"/>
      <point x="132" y="458"/>
      <point x="132" y="349" type="curve" smooth="yes"/>
      <point x="132" y="299"/>
      <point x="153" y="267"/>
      <point x="193" y="233" type="curve" smooth="yes"/>
      <point x="234" y="199"/>
      <point x="249" y="180"/>
      <point x="249" y="155" type="curve" smooth="yes"/>
      <point x="249" y="126"/>
      <point x="230" y="98"/>
      <point x="183" y="98" type="curve"/>
      <point x="155" y="98"/>
      <point x="121" y="108"/>
      <point x="96" y="124" type="curve"/>
      <point x="47" y="17" type="line"/>
      <point x="68" y="2"/>
      <point x="115" y="-14"/>
    </contour>
  </outline>
</glyph>
<glyph name="t" format="2">
  <advance width="339"/>
  <unicode hex="0074"/>
  <outline>
    <contour>
      <point x="231.38514999064546" y="-14" type="curve" smooth="yes"/>
      <point x="269.38514999064546" y="-14"/>
      <point x="314.38514999064546" y="-6"/>
      <point x="344.38514999064546" y="7" type="curve"/>
      <point x="337.38514999064546" y="115" type="line"/>
      <point x="317.38514999064546" y="109"/>
      <point x="295.38514999064546" y="106"/>
      <point x="274.38514999064546" y="106" type="curve"/>
      <point x="227.38514999064546" y="106"/>
      <point x="218.38514999064546" y="129"/>
      <point x="232.38514999064546" y="187" type="curve" smooth="yes"/>
      <point x="287.38514999064546" y="419" type="line"/>
      <point x="407.38514999064546" y="419" type="line"/>
      <point x="434.38514999064546" y="532" type="line"/>
      <point x="315.38514999064546" y="532" type="line"/>
      <point x="350.38514999064546" y="681" type="line"/>
      <point x="207.38514999064546" y="659" type="line"/>
      <point x="96.38514999064544" y="195" type="line" smooth="yes"/>
      <point x="63.385149990645445" y="56"/>
      <point x="92.38514999064544" y="-14"/>
    </contour>
  </outline>
</glyph>
<glyph name="u" format="2">
  <advance width="487"/>
  <unicode hex="0075"/>
  <outline>
    <contour>
      <point x="219" y="-10" type="curve" smooth="yes"/>
      <point x="271" y="-10"/>
      <point x="315" y="9"/>
      <point x="341" y="31" type="curve"/>
      <point x="345" y="16"/>
      <point x="351" y="0"/>
      <point x="356" y="-11" type="curve"/>
      <point x="475" y="9" type="line"/>
      <point x="454" y="72"/>
      <point x="452" y="153"/>
      <point x="469" y="223" type="curve" smooth="yes"/>
      <point x="543" y="532" type="line"/>
      <point x="405" y="532" type="line"/>
      <point x="330" y="219" type="line" smooth="yes"/>
      <point x="323" y="189"/>
      <point x="319" y="160"/>
      <point x="318" y="133" type="curve"/>
      <point x="308" y="117"/>
      <point x="292" y="105"/>
      <point x="274" y="105" type="curve" smooth="yes"/>
      <point x="231" y="105"/>
      <point x="221" y="139"/>
      <point x="241.99479589175698" y="225" type="curve" smooth="yes"/>
      <point x="315.994795891757" y="532" type="line"/>
      <point x="177.99479589175698" y="532" type="line"/>
      <point x="102.99479589175698" y="219" type="line" smooth="yes"/>
      <point x="67" y="67"/>
      <point x="127" y="-10"/>
    </contour>
  </outline>
</glyph>
<glyph name="v" format="2">
  <advance width="416"/>
  <unicode hex="0076"/>
  <outline>
    <contour>
      <point x="139.18600053702937" y="0" type="curve"/>
      <point x="279.1860005370294" y="0" type="line"/>
      <point x="356.1860005370294" y="140"/>
      <point x="447.1860005370294" y="324"/>
      <point x="536.1860005370294" y="532" type="curve"/>
      <point x="396.1860005370294" y="532" type="line"/>
      <point x="364.1860005370294" y="439"/>
      <point x="314.1860005370294" y="297"/>
      <point x="245.18600053702937" y="148" type="curve"/>
      <point x="250.18600053702937" y="300"/>
      <point x="257.1860005370294" y="441"/>
      <point x="266.1860005370294" y="532" type="curve"/>
      <point x="132.18600053702937" y="532" type="line"/>
      <point x="123.18600053702937" y="324"/>
      <point x="130.18600053702937" y="140"/>
    </contour>
  </outline>
</glyph>
<glyph name="w" format="2">
  <advance width="617"/>
  <unicode hex="0077"/>
  <outline>
    <contour>
      <point x="133" y="0" type="curve"/>
      <point x="267" y="0" type="line"/>
      <point x="301" y="66"/>
      <point x="340" y="165"/>
      <point x="388" y="302" type="curve"/>
      <point x="385" y="163"/>
      <point x="384" y="66"/>
      <point x="392" y="0" type="curve"/>
      <point x="523" y="0" type="line"/>
      <point x="581" y="125"/>
      <point x="676" y="362"/>
      <point x="722" y="532" type="curve"/>
      <point x="595" y="532" type="line"/>
      <point x="573" y="439"/>
      <point x="531" y="311"/>
      <point x="473" y="148" type="curve"/>
      <point x="478" y="326"/>
      <point x="485" y="442"/>
      <point x="496" y="532" type="curve"/>
      <point x="373" y="532" type="line"/>
      <point x="352" y="442"/>
      <point x="305" y="328"/>
      <point x="239" y="157" type="curve"/>
      <point x="249" y="328"/>
      <point x="261" y="441"/>
      <point x="272" y="532" type="curve"/>
      <point x="135" y="532" type="line"/>
      <point x="126" y="344"/>
      <point x="125" y="106"/>
    </contour>
  </outline>
</glyph>
<glyph name="x" format="2">
  <advance width="409"/>
  <unicode hex="0078"/>
  <outline>
    <contour>
      <point x="6" y="0" type="line"/>
      <point x="150" y="0" type="line"/>
      <point x="254" y="171" type="line"/>
      <point x="265" y="114"/>
      <point x="273" y="54"/>
      <point x="276" y="0" type="curve"/>
      <point x="414" y="0" type="line"/>
      <point x="403" y="83"/>
      <point x="381" y="171"/>
      <point x="352" y="265" type="curve"/>
      <point x="431" y="368"/>
      <point x="481" y="451"/>
      <point x="526" y="532" type="curve"/>
      <point x="386" y="532" type="line"/>
      <point x="364" y="486"/>
      <point x="338" y="434"/>
      <point x="301" y="370" type="curve"/>
      <point x="266" y="532" type="line"/>
      <point x="126" y="532" type="line"/>
      <point x="199" y="280" type="line"/>
    </contour>
  </outline>
</glyph>
<glyph name="y" format="2">
  <advance width="427"/>
  <unicode hex="0079"/>
  <outline>
    <contour>
      <point x="48" y="-188" type="curve" smooth="yes"/>
      <point x="150" y="-188"/>
      <point x="201" y="-146"/>
      <point x="286" y="0" type="curve" smooth="yes"/>
      <point x="371" y="145"/>
      <point x="465" y="341"/>
      <point x="538" y="532" type="curve"/>
      <point x="397" y="532" type="line"/>
      <point x="364" y="433"/>
      <point x="319" y="298"/>
      <point x="256" y="158" type="curve"/>
      <point x="258" y="302"/>
      <point x="264" y="435"/>
      <point x="271" y="532" type="curve"/>
      <point x="136" y="532" type="line"/>
      <point x="130" y="376"/>
      <point x="135" y="212"/>
      <point x="149" y="5" type="curve"/>
      <point x="112" y="-58"/>
      <point x="80" y="-71"/>
      <point x="51" y="-71" type="curve" smooth="yes"/>
      <point x="35" y="-71"/>
      <point x="14" y="-67"/>
      <point x="0" y="-60" type="curve"/>
      <point x="-37" y="-169" type="line"/>
      <point x="-13" y="-181"/>
      <point x="18" y="-188"/>
    </contour>
  </outline>
</glyph>
<glyph name="z" format="2">
  <advance width="358"/>
  <unicode hex="007A"/>
  <outline>
    <contour>
      <point x="28" y="0" type="line"/>
      <point x="344" y="0" type="line"/>
      <point x="371" y="113" type="line"/>
      <point x="203" y="113" type="line"/>
      <point x="270" y="214"/>
      <point x="368" y="349"/>
      <point x="430" y="426" type="curve"/>
      <point x="456" y="532" type="line"/>
      <point x="157" y="532" type="line"/>
      <point x="130" y="419" type="line"/>
      <point x="279" y="419" type="line"/>
      <point x="199" y="316"/>
      <point x="120" y="203"/>
      <point x="51" y="94" type="curve"/>
    </contour>
  </outline>
</glyph>
<glyph name="braceleft" format="2">
  <advance width="320"/>
  <unicode hex="007B"/>
  <outline>
    <contour>
      <point x="246" y="-184.0" type="curve"/>
      <point x="271" y="-77.0" type="line"/>
      <point x="223.0" y="-77.0"/>
      <point x="215" y="-53"/>
      <point x="224" y="-17.0" type="curve" smooth="yes"/>
      <point x="264" y="149.0" type="line" smooth="yes"/>
      <point x="282" y="222"/>
      <point x="271" y="269.0"/>
      <point x="230" y="299.0" type="curve"/>
      <point x="285" y="329.0"/>
      <point x="318" y="377"/>
      <point x="336" y="450.0" type="curve" smooth="yes"/>
      <point x="376" y="616.0" type="line" smooth="yes"/>
      <point x="385" y="654"/>
      <point x="405.0" y="676.0"/>
      <point x="452" y="676.0" type="curve"/>
      <point x="478" y="783.0" type="line"/>
      <point x="334.0" y="783.0"/>
      <point x="277" y="732"/>
      <point x="250" y="618.0" type="curve" smooth="yes"/>
      <point x="215" y="470.0" type="line" smooth="yes"/>
      <point x="197" y="394"/>
      <point x="173" y="357.0"/>
      <point x="130" y="353.0" type="curve"/>
      <point x="104" y="246.0" type="line"/>
      <point x="144" y="242.0"/>
      <point x="152" y="204"/>
      <point x="133" y="128.0" type="curve" smooth="yes"/>
      <point x="97" y="-19.0" type="line" smooth="yes"/>
      <point x="69" y="-133"/>
      <point x="135.0" y="-184.0"/>
    </contour>
  </outline>
</glyph>
<glyph name="bar" format="2">
  <advance width="286"/>
  <unicode hex="007C"/>
  <outline>
    <contour>
      <point x="36" y="-185.0" type="line"/>
      <point x="162" y="-185.0" type="line"/>
      <point x="394" y="783.0" type="line"/>
      <point x="268" y="783.0" type="line"/>
    </contour>
  </outline>
</glyph>
<glyph name="braceright" format="2">
  <advance width="320"/>
  <unicode hex="007D"/>
  <outline>
    <contour>
      <point x="-14.0" y="-184.0" type="line"/>
      <point x="130.0" y="-184.0"/>
      <point x="187.0" y="-133.0"/>
      <point x="214.0" y="-19.0" type="curve" smooth="yes"/>
      <point x="249.0" y="129.0" type="line" smooth="yes"/>
      <point x="267.0" y="205.0"/>
      <point x="291.0" y="242.0"/>
      <point x="334.0" y="246.0" type="curve"/>
      <point x="360.0" y="353.0" type="line"/>
      <point x="320.0" y="357.0"/>
      <point x="312.0" y="395.0"/>
      <point x="331.0" y="471.0" type="curve" smooth="yes"/>
      <point x="367.0" y="618.0" type="line" smooth="yes"/>
      <point x="395.0" y="732.0"/>
      <point x="329.0" y="783.0"/>
      <point x="218.0" y="783.0" type="curve"/>
      <point x="193.0" y="676.0" type="line"/>
      <point x="241.0" y="676.0"/>
      <point x="249.0" y="652.0"/>
      <point x="240.0" y="616.0" type="curve" smooth="yes"/>
      <point x="200.0" y="450.0" type="line" smooth="yes"/>
      <point x="182.0" y="377.0"/>
      <point x="193.0" y="330.0"/>
      <point x="234.0" y="300.0" type="curve"/>
      <point x="179.0" y="270.0"/>
      <point x="146.0" y="222.0"/>
      <point x="128.0" y="149.0" type="curve" smooth="yes"/>
      <point x="88.0" y="-17.0" type="line" smooth="yes"/>
      <point x="79.0" y="-55.0"/>
      <point x="59.0" y="-77.0"/>
      <point x="12.0" y="-77.0" type="curve"/>
    </contour>
  </outline>
</glyph>
<glyph name="asciitilde" format="2">
  <advance width="434"/>
  <unicode hex="007E"/>
  <outline>
    <contour>
      <point x="343" y="207" type="curve" smooth="yes"/>
      <point x="421" y="207"/>
      <point x="475" y="278"/>
      <point x="505" y="371" type="curve"/>
      <point x="418" y="398" type="line"/>
      <point x="394" y="340"/>
      <point x="378" y="330"/>
      <point x="359" y="330" type="curve" smooth="yes"/>
      <point x="324" y="330"/>
      <point x="297" y="398"/>
      <point x="235" y="398" type="curve" smooth="yes"/>
      <point x="157" y="398"/>
      <point x="103" y="327"/>
      <point x="74" y="234" type="curve"/>
      <point x="160" y="207" type="line"/>
      <point x="184" y="265"/>
      <point x="200" y="275"/>
      <point x="220" y="275" type="curve" smooth="yes"/>
      <point x="255" y="275"/>
      <point x="282" y="207"/>
    </contour>
  </outline>
</glyph>
<glyph name="exclamdown" format="2">
  <advance width="240.8412349885274"/>
  <unicode hex="00A1"/>
  <outline>
    <contour>
      <point x="0.8902730458743194" y="-176.17615947723388" type="line"/>
      <point x="150.65270603480997" y="-176.17615947723388" type="line"/>
      <point x="192.81299507924356" y="4.470463790893555" type="line" smooth="yes"/>
      <point x="217.68620817368" y="113.05854352951049"/>
      <point x="229.92250130586336" y="201.70569568634033"/>
      <point x="243.49388323473454" y="296.7647681045532" type="curve"/>
      <point x="132.4668478678952" y="296.7647681045532" type="line"/>
      <point x="96.7448788800263" y="204.05801464080812"/>
      <point x="73.51127380646476" y="105.06065908432006"/>
      <point x="43.05617595545438" y="4.588079738616943" type="curve"/>
    </contour>
    <contour>
      <point x="201.78133559469964" y="354.52742065429686" type="curve" smooth="yes"/>
      <point x="246.3331812678974" y="354.52742065429686"/>
      <point x="294.58216276020914" y="395.351261177063"/>
      <point x="297.3140780992881" y="452.5875508499146" type="curve" smooth="yes"/>
      <point x="299.7708383138634" y="504.05907241821285"/>
      <point x="267.92324611763763" y="529.7062245750427"/>
      <point x="227.33478621115944" y="529.7062245750427" type="curve" smooth="yes"/>
      <point x="182.7829405379617" y="529.7062245750427"/>
      <point x="134.5339590456499" y="488.8823840522766"/>
      <point x="131.80204370657094" y="431.646094379425" type="curve" smooth="yes"/>
      <point x="129.34528349199564" y="380.17457281112667"/>
      <point x="161.19287568822148" y="354.52742065429686"/>
    </contour>
  </outline>
</glyph>
<glyph name="cent" format="2">
	<advance width="452.23655"/>
	<unicode hex="00A2"/>
	<outline>
		<contour>
			<point x="161.33136" y="-109" type="line"/>
			<point x="295.98591" y="-109" type="line"/>
			<point x="328.6574" y="29.23523" type="line"/>
			<point x="355.85393" y="32.76477"/>
			<point x="386.80645" y="43.82331"/>
			<point x="423.54815" y="59.23523" type="curve"/>
			<point x="418.30789" y="171.06066" type="line"/>
			<point x="389.97884" y="157.23735"/>
			<point x="353.20679" y="144.47258"/>
			<point x="322.60319" y="144.47258" type="curve" smooth="yes"/>
			<point x="291.25002" y="144.47258"/>
			<point x="268.39087" y="166.58967"/>
			<point x="271.74038" y="236.7653" type="curve" smooth="yes"/>
			<point x="277.83299" y="364.41139"/>
			<point x="322.77065" y="440.29219"/>
			<point x="384.83189" y="440.29219" type="curve" smooth="yes"/>
			<point x="408.79502" y="440.29219"/>
			<point x="435.33226" y="433.29219"/>
			<point x="458.94038" y="414.52742" type="curve"/>
			<point x="510.17308" y="522.7057" type="line"/>
			<point x="490.88929" y="537.7057"/>
			<point x="473.13595" y="547.58808"/>
			<point x="452.33374" y="552.88238" type="curve"/>
			<point x="486.15024" y="693" type="line"/>
			<point x="351.49568" y="693" type="line"/>
			<point x="316.70159" y="549.11762" type="line"/>
			<point x="223.85914" y="517.35285"/>
			<point x="134.01604" y="400.00106"/>
			<point x="126.01975" y="232.47099" type="curve" smooth="yes"/>
			<point x="121.1821" y="131.11762"/>
			<point x="156.2763" y="71.00053"/>
			<point x="198.65694" y="43.70622" type="curve"/>
		</contour>
	</outline>
</glyph>
<glyph name="sterling" format="2">
	<advance width="452.23655"/>
	<unicode hex="00A3"/>
	<outline>
		<contour>
			<point x="75.75223" y="0" type="curve"/>
			<point x="437.47673" y="0" type="line"/>
			<point x="471.1145" y="117.00212" type="line"/>
			<point x="262.08676" y="117.00212" type="line"/>
			<point x="273.35068" y="165.82437"/>
			<point x="289.09851" y="226.64662"/>
			<point x="300.27399" y="276.35179" type="curve"/>
			<point x="435.81652" y="276.35179" type="line"/>
			<point x="468.26154" y="390.47152" type="line"/>
			<point x="332.97627" y="390.47152" type="line"/>
			<point x="347.45878" y="458.76477" type="line"/>
			<point x="368.85754" y="565.1751"/>
			<point x="405.74089" y="589.4098"/>
			<point x="444.53243" y="589.4098" type="curve" smooth="yes"/>
			<point x="466.43747" y="589.4098"/>
			<point x="490.27602" y="581.4098"/>
			<point x="516.64572" y="566.05696" type="curve"/>
			<point x="576.91631" y="669.47046" type="line"/>
			<point x="541.37219" y="692.11762"/>
			<point x="499.79831" y="706"/>
			<point x="448.06536" y="706" type="curve" smooth="yes"/>
			<point x="357.05246" y="706"/>
			<point x="263.88986" y="650.64715"/>
			<point x="222.49329" y="486.00106" type="curve" smooth="yes"/>
			<point x="197.21432" y="390.47152" type="line"/>
			<point x="130.11232" y="390.47152" type="line"/>
			<point x="97.41004" y="276.35179" type="line"/>
			<point x="164.51204" y="276.35179" type="line"/>
			<point x="145.52988" y="196.82331"/>
			<point x="122.41319" y="105.11814"/>
		</contour>
	</outline>
</glyph>
<glyph name="currency" format="2">
  <advance width="452.236553336746"/>
  <unicode hex="00A4"/>
  <outline>
    <contour>
      <point x="154.92523548716184" y="98.23470300674438" type="line"/>
      <point x="216.92563073744097" y="170.94039869308472" type="line"/>
      <point x="238.8792031229923" y="156.88185516357422"/>
      <point x="260.47456653556225" y="150.9409275817871"/>
      <point x="284.7471948779395" y="150.9409275817871" type="curve" smooth="yes"/>
      <point x="311.1301467026545" y="150.9409275817871"/>
      <point x="331.1823132332238" y="156.88185516357422"/>
      <point x="353.4227658210271" y="170.94039869308472" type="curve"/>
      <point x="408.48260617443174" y="98.23470300674438" type="line"/>
      <point x="501.4822585771476" y="184.23628967285157" type="line"/>
      <point x="447.8806417479169" y="254.05960130691528" type="line"/>
      <point x="458.26222146576646" y="280.64768104553224"/>
      <point x="463.7920110059677" y="311.8238405227661"/>
      <point x="465.4709858346126" y="347.0" type="curve" smooth="yes"/>
      <point x="467.14996066325745" y="382.1761594772339"/>
      <point x="464.5962769739505" y="413.35231895446776"/>
      <point x="456.7528206491355" y="439.9403986930847" type="curve"/>
      <point x="517.019837250737" y="509.76371032714843" type="line"/>
      <point x="433.24302328069484" y="594.8829129409789" type="line"/>
      <point x="371.2847446410687" y="523.0596013069153" type="line"/>
      <point x="349.33117225551734" y="537.1181448364258"/>
      <point x="327.7358088429475" y="543.0590724182128"/>
      <point x="303.4631805005703" y="543.0590724182128" type="curve" smooth="yes"/>
      <point x="277.0802286758552" y="543.0590724182128"/>
      <point x="257.02806214528584" y="537.1181448364258"/>
      <point x="234.78760955748257" y="523.0596013069153" type="curve"/>
      <point x="179.72776920407796" y="595.7652969932556" type="line"/>
      <point x="86.72811680136216" y="509.76371032714843" type="line"/>
      <point x="140.32973363059276" y="439.9403986930847" type="line"/>
      <point x="129.94815391274324" y="413.35231895446776"/>
      <point x="124.41836437254197" y="382.1761594772339"/>
      <point x="122.73938954389712" y="347.0" type="curve" smooth="yes"/>
      <point x="121.06041471525226" y="311.8238405227661"/>
      <point x="123.6140984045592" y="280.64768104553224"/>
      <point x="131.4575547293742" y="254.05960130691528" type="curve"/>
      <point x="71.1484215171197" y="183.35390562057495" type="line"/>
    </contour>
    <contour>
      <point x="289.6775569025294" y="254.23681856155395" type="curve" smooth="yes"/>
      <point x="260.7180848027619" y="254.23681856155395"/>
      <point x="237.9132495656491" y="287.17721725463866"/>
      <point x="240.7686194497309" y="347.0" type="curve" smooth="yes"/>
      <point x="243.6239893338127" y="406.82278274536134"/>
      <point x="269.57334637621295" y="439.763181438446"/>
      <point x="298.5328184759804" y="439.763181438446" type="curve" smooth="yes"/>
      <point x="327.4922905757478" y="439.763181438446"/>
      <point x="350.2971258128606" y="406.82278274536134"/>
      <point x="347.44175592877883" y="347.0" type="curve" smooth="yes"/>
      <point x="344.58638604469706" y="287.17721725463866"/>
      <point x="318.6370290022968" y="254.23681856155395"/>
    </contour>
  </outline>
</glyph>
<glyph name="yen" format="2">
	<advance width="452.23655"/>
	<unicode hex="00A5"/>
	<outline>
		<contour>
			<point x="150.08756" y="0" type="line"/>
			<point x="297.97082" y="0" type="line"/>
			<point x="324.57741" y="111.47046" type="line"/>
			<point x="435.41114" y="111.47046" type="line"/>
			<point x="460.63408" y="201.53059" type="line"/>
			<point x="349.80034" y="201.53059" type="line"/>
			<point x="363.05371" y="276.41139" type="line"/>
			<point x="473.88745" y="276.41139" type="line"/>
			<point x="499.11038" y="366.47152" type="line"/>
			<point x="432.6718" y="366.47152" type="line"/>
			<point x="503.44849" y="479.00053"/>
			<point x="569.25007" y="580.64715"/>
			<point x="631.88266" y="693" type="curve"/>
			<point x="477.92569" y="693" type="line"/>
			<point x="425.65498" y="592.2943"/>
			<point x="383.90107" y="514.06013"/>
			<point x="332.55143" y="424.06066" type="curve"/>
			<point x="315.03778" y="522.00159"/>
			<point x="301.47265" y="595.88291"/>
			<point x="293.28945" y="693" type="curve"/>
			<point x="146.43524" y="693" type="line"/>
			<point x="156.65485" y="599.17722"/>
			<point x="186.16769" y="477.11814"/>
			<point x="212.3402" y="366.47152" type="curve"/>
			<point x="130.35757" y="366.47152" type="line"/>
			<point x="105.13463" y="276.41139" type="line"/>
			<point x="215.17046" y="276.41139" type="line"/>
			<point x="201.91709" y="201.53059" type="line"/>
			<point x="91.88126" y="201.53059" type="line"/>
			<point x="66.65832" y="111.47046" type="line"/>
			<point x="176.69415" y="111.47046" type="line"/>
		</contour>
	</outline>
</glyph>
<glyph name="brokenbar" format="2">
  <advance width="286"/>
  <unicode hex="00A6"/>
  <outline>
    <contour>
      <point x="173" y="388" type="line"/>
      <point x="299" y="388" type="line"/>
      <point x="394" y="783" type="line"/>
      <point x="268" y="783" type="line"/>
    </contour>
    <contour>
      <point x="36" y="-185" type="line"/>
      <point x="162" y="-185" type="line"/>
      <point x="257" y="213" type="line"/>
      <point x="131" y="213" type="line"/>
    </contour>
  </outline>
</glyph>
<glyph name="section" format="2">
	<advance width="414.83579"/>
	<unicode hex="00A7"/>
	<outline>
		<contour>
			<point x="161.05419" y="-109.88238" type="curve" smooth="yes"/>
			<point x="310.04874" y="-109.88238"/>
			<point x="366.40833" y="-21.70464"/>
			<point x="370.78826" y="70.05907" type="curve" smooth="yes"/>
			<point x="372.22858" y="100.23523"/>
			<point x="367.12959" y="128.23523"/>
			<point x="353.44444" y="154.2943" type="curve"/>
			<point x="416.30576" y="200.82384"/>
			<point x="453.16303" y="263.88291"/>
			<point x="456.27392" y="329.05907" type="curve" smooth="yes"/>
			<point x="458.80359" y="382.05801"/>
			<point x="447.6133" y="425.94093"/>
			<point x="392.11816" y="459.2943" type="curve" smooth="yes"/>
			<point x="301.94714" y="507.00106"/>
			<point x="308.7434" y="514.17722"/>
			<point x="310.07698" y="542.11709" type="curve" smooth="yes"/>
			<point x="311.7475" y="577.11603"/>
			<point x="332.84248" y="600.52742"/>
			<point x="371.83904" y="600.52742" type="curve" smooth="yes"/>
			<point x="398.47926" y="600.52742"/>
			<point x="428.39041" y="591.4098"/>
			<point x="462.6746" y="570.4098" type="curve"/>
			<point x="514.0352" y="669.94093" type="line"/>
			<point x="477.83554" y="696.11762"/>
			<point x="429.31058" y="708.88238"/>
			<point x="378.86394" y="708.88238" type="curve" smooth="yes"/>
			<point x="242.58356" y="708.88238"/>
			<point x="182.47306" y="629.99894"/>
			<point x="178.33179" y="543.23523" type="curve" smooth="yes"/>
			<point x="176.88021" y="512.82331"/>
			<point x="182.23562" y="485.35285"/>
			<point x="196.02944" y="462.11762" type="curve"/>
			<point x="138.8267" y="418.76477"/>
			<point x="99.42214" y="351.94093"/>
			<point x="96.30564" y="286.64715" type="curve" smooth="yes"/>
			<point x="93.7872" y="233.88344"/>
			<point x="104.66689" y="188.88291"/>
			<point x="159.97777" y="157.05907" type="curve" smooth="yes"/>
			<point x="235.42897" y="115.29378"/>
			<point x="240.82203" y="103.05854"/>
			<point x="239.01112" y="65.11814" type="curve" smooth="yes"/>
			<point x="237.30131" y="29.29589"/>
			<point x="223.24064" y="-0.93934"/>
			<point x="163.11472" y="-0.93934" type="curve" smooth="yes"/>
			<point x="132.45889" y="-0.93934"/>
			<point x="102.84823" y="10.17828"/>
			<point x="69.69415" y="33.29589" type="curve"/>
			<point x="19.07726" y="-66.82331" type="line"/>
			<point x="51.00183" y="-95.23523"/>
			<point x="108.18772" y="-109.88238"/>
		</contour>
		<contour>
			<point x="288.73116" y="209.64821" type="curve"/>
			<point x="265.00981" y="232.0596" type="line" smooth="yes"/>
			<point x="229.61849" y="254.70675"/>
			<point x="218.31299" y="280.47152"/>
			<point x="219.67469" y="309.00053" type="curve" smooth="yes"/>
			<point x="221.39576" y="345.05854"/>
			<point x="238.73472" y="380.9404"/>
			<point x="267.46129" y="406.29325" type="curve"/>
			<point x="279.32782" y="387.82331" type="line" smooth="yes"/>
			<point x="317.12212" y="364.82331"/>
			<point x="334.26378" y="335.17616"/>
			<point x="332.85714" y="305.7057" type="curve" smooth="yes"/>
			<point x="331.1866" y="270.70622"/>
			<point x="314.48656" y="236.88344"/>
		</contour>
	</outline>
</glyph>
<glyph name="dieresis" format="2">
	<advance width="477.12693"/>
	<unicode hex="00A8"/>
	<outline>
		<contour>
			<point x="475.90268" y="604.70517" type="curve" smooth="yes"/>
			<point x="506.71131" y="604.70517"/>
			<point x="551.19977" y="638.99947"/>
			<point x="553.40383" y="685.17669" type="curve" smooth="yes"/>
			<point x="555.2485" y="723.82437"/>
			<point x="527.39518" y="750.11867"/>
			<point x="495.81477" y="750.11867" type="curve" smooth="yes"/>
			<point x="461.84066" y="750.11867"/>
			<point x="421.83572" y="715.94199"/>
			<point x="419.54182" y="667.88238" type="curve" smooth="yes"/>
			<point x="417.73365" y="629.99947"/>
			<point x="442.46921" y="604.70517"/>
		</contour>
		<contour>
			<point x="286.16296" y="604.70517" type="curve" smooth="yes"/>
			<point x="316.97159" y="604.70517"/>
			<point x="361.20279" y="638.99947"/>
			<point x="363.40685" y="685.17669" type="curve" smooth="yes"/>
			<point x="365.25152" y="723.82437"/>
			<point x="337.3982" y="750.11867"/>
			<point x="306.07505" y="750.11867" type="curve" smooth="yes"/>
			<point x="272.10094" y="750.11867"/>
			<point x="231.83874" y="715.94199"/>
			<point x="229.54483" y="667.88238" type="curve" smooth="yes"/>
			<point x="227.73667" y="629.99947"/>
			<point x="252.47223" y="604.70517"/>
		</contour>
	</outline>
</glyph>
<glyph name="copyright" format="2">
  <advance width="643.933802711614"/>
  <unicode hex="00A9"/>
  <outline>
    <contour>
      <point x="374.7334697209448" y="-15.0" type="curve" smooth="yes"/>
      <point x="522.8334756618967" y="-15.0"/>
      <point x="661.114093297758" y="119.0"/>
      <point x="671.9966417800271" y="347.0" type="curve" smooth="yes"/>
      <point x="682.8791902622962" y="575.0"/>
      <point x="557.3847262755347" y="708.8823840522766"/>
      <point x="409.2847203345828" y="708.8823840522766" type="curve" smooth="yes"/>
      <point x="261.18471439363077" y="708.8823840522766"/>
      <point x="122.90971062291597" y="575.0"/>
      <point x="112.02716214064684" y="347.0" type="curve" smooth="yes"/>
      <point x="101.14461365837772" y="119.0"/>
      <point x="226.6334637799928" y="-15.0"/>
    </contour>
    <contour>
      <point x="398.581535282131" y="157.882912940979" type="curve" smooth="yes"/>
      <point x="445.16926188512434" y="157.882912940979"/>
      <point x="479.75165825185144" y="179.76529699325562"/>
      <point x="493.75115563381183" y="188.882912940979" type="curve"/>
      <point x="472.68214434278565" y="274.8254271888733" type="line"/>
      <point x="453.99520807603693" y="266.7078112411499"/>
      <point x="434.99042664812555" y="254.11973150253294"/>
      <point x="407.44784528486224" y="254.11973150253294" type="curve" smooth="yes"/>
      <point x="364.9762978491653" y="254.11973150253294"/>
      <point x="366.5835263721651" y="300.29589097976685"/>
      <point x="369.11316585720647" y="353.29430431365967" type="curve" smooth="yes"/>
      <point x="371.8786634107264" y="411.234174118042"/>
      <point x="389.8591323090344" y="443.2921887588501"/>
      <point x="417.5061814696769" y="443.2921887588501" type="curve" smooth="yes"/>
      <point x="442.9123224012576" y="443.2921887588501"/>
      <point x="457.1833894975131" y="434.35126117706295"/>
      <point x="471.5612033868084" y="423.35126117706295" type="curve"/>
      <point x="504.3973020121018" y="506.2937754249573" type="line"/>
      <point x="492.8274792657432" y="514.6466232681274"/>
      <point x="463.3694118955387" y="538.6466232681274"/>
      <point x="412.5610383278697" y="538.6466232681274" type="curve" smooth="yes"/>
      <point x="323.8151676813173" y="538.6466232681274"/>
      <point x="267.71206072281154" y="469.8233116340637"/>
      <point x="261.939492705709" y="348.8823840522766" type="curve" smooth="yes"/>
      <point x="256.10796648251403" y="226.7062245750427"/>
      <point x="299.7724526704566" y="157.882912940979"/>
    </contour>
    <contour>
      <point x="379.0741991963929" y="75.94251424789428" type="curve" smooth="yes"/>
      <point x="268.0093219937321" y="75.94251424789428"/>
      <point x="196.69802630390157" y="184.05960130691528"/>
      <point x="204.47524906047067" y="347.0" type="curve" smooth="yes"/>
      <point x="212.25247181703978" y="509.9403986930847"/>
      <point x="293.8791136564739" y="617.9398698043823"/>
      <point x="404.9439908591347" y="617.9398698043823" type="curve" smooth="yes"/>
      <point x="516.0088680617954" y="617.9398698043823"/>
      <point x="587.3257776167724" y="509.9403986930847"/>
      <point x="579.5485548602034" y="347.0" type="curve" smooth="yes"/>
      <point x="571.7713321036342" y="184.05960130691528"/>
      <point x="490.1390763990536" y="75.94251424789428"/>
    </contour>
  </outline>
</glyph>
<glyph name="ordfeminine" format="2">
	<advance width="384.38498"/>
	<unicode hex="00AA"/>
	<outline>
		<contour>
			<point x="245.35486" y="308.17563" type="curve" smooth="yes"/>
			<point x="269.42246" y="308.17563"/>
			<point x="298.19585" y="320.52848"/>
			<point x="330.00513" y="342.58755" type="curve"/>
			<point x="332.70259" y="332.2347"/>
			<point x="336.43554" y="321.46993"/>
			<point x="338.10957" y="311.2347" type="curve"/>
			<point x="423.74906" y="323.88186" type="line"/>
			<point x="404.33192" y="396.47099"/>
			<point x="419.47803" y="455.00106"/>
			<point x="430.09771" y="503.2943" type="curve"/>
			<point x="471.26456" y="689.52954" type="line"/>
			<point x="427.68371" y="702.2943"/>
			<point x="393.90724" y="707.52954"/>
			<point x="357.12938" y="707.52954" type="curve" smooth="yes"/>
			<point x="209.64836" y="707.52954"/>
			<point x="138.01667" y="578.64715"/>
			<point x="132.64278" y="466.05907" type="curve" smooth="yes"/>
			<point x="128.57164" y="380.76477"/>
			<point x="166.77667" y="308.17563"/>
		</contour>
		<contour>
			<point x="275.75274" y="402.0596" type="curve" smooth="yes"/>
			<point x="240.15671" y="402.0596"/>
			<point x="228.02179" y="433.64821"/>
			<point x="230.01522" y="475.41245" type="curve" smooth="yes"/>
			<point x="233.91225" y="557.05907"/>
			<point x="283.52637" y="614.52795"/>
			<point x="330.4275" y="614.52795" type="curve" smooth="yes"/>
			<point x="335.78166" y="614.52795"/>
			<point x="343.68121" y="613.41033"/>
			<point x="351.58075" y="612.29272" type="curve"/>
			<point x="328.87527" y="501.70622" type="line"/>
			<point x="324.41761" y="481.11814"/>
			<point x="315.69874" y="448.35338"/>
			<point x="317.78132" y="425.11814" type="curve"/>
			<point x="302.04009" y="408.64768"/>
			<point x="288.85476" y="402.0596"/>
		</contour>
	</outline>
</glyph>
<glyph name="logicalnot" format="2">
  <advance width="452.236553336746"/>
  <unicode hex="00AC"/>
  <outline>
    <contour>
      <point x="287.56666757715243" y="51.35284784317017" type="line"/>
      <point x="416.1475148946753" y="51.35284784317017" type="line"/>
      <point x="504.6066181908851" y="407.17721725463866" type="line"/>
      <point x="119.81743735849763" y="407.17721725463866" type="line"/>
      <point x="85.92802791703448" y="290.2927176475525" type="line"/>
      <point x="342.13636143189905" y="290.2927176475525" type="line"/>
    </contour>
  </outline>
</glyph>
<glyph name="registered" format="2">
  <advance width="686"/>
  <unicode hex="00AE"/>
  <outline>
    <contour>
      <point x="427" y="-15.0" type="curve" smooth="yes"/>
      <point x="612" y="-15"/>
      <point x="730" y="127"/>
      <point x="730" y="348" type="curve"/>
      <point x="730" y="569"/>
      <point x="612" y="710"/>
      <point x="427" y="710" type="curve"/>
      <point x="242" y="710"/>
      <point x="124" y="569"/>
      <point x="124" y="348" type="curve" smooth="yes"/>
      <point x="124" y="127"/>
      <point x="242" y="-15"/>
    </contour>
    <contour>
      <point x="427" y="73" type="curve" smooth="yes"/>
      <point x="299" y="73"/>
      <point x="217" y="180"/>
      <point x="217" y="348" type="curve"/>
      <point x="217" y="515"/>
      <point x="299" y="622"/>
      <point x="427" y="622" type="curve" smooth="yes"/>
      <point x="555" y="622"/>
      <point x="637" y="515"/>
      <point x="637" y="348" type="curve"/>
      <point x="637" y="180"/>
      <point x="555" y="73"/>
    </contour>
    <contour>
      <point x="317" y="167" type="line"/>
      <point x="407" y="167" type="line"/>
      <point x="407" y="293" type="line"/>
      <point x="420" y="293" type="line"/>
      <point x="422" y="293"/>
      <point x="423" y="293"/>
      <point x="424" y="293" type="curve"/>
      <point x="439" y="264"/>
      <point x="453" y="222"/>
      <point x="471" y="167" type="curve"/>
      <point x="564" y="167" type="line"/>
      <point x="545" y="228"/>
      <point x="532" y="268"/>
      <point x="503" y="320" type="curve"/>
      <point x="533" y="342"/>
      <point x="550" y="374"/>
      <point x="550" y="416" type="curve" smooth="yes"/>
      <point x="550" y="499"/>
      <point x="505" y="540"/>
      <point x="416" y="540" type="curve" smooth="yes"/>
      <point x="392" y="540"/>
      <point x="357" y="535"/>
      <point x="317" y="524" type="curve"/>
    </contour>
    <contour>
      <point x="407" y="367" type="line"/>
      <point x="407" y="459" type="line"/>
      <point x="413" y="460"/>
      <point x="419" y="461"/>
      <point x="424" y="461" type="curve" smooth="yes"/>
      <point x="448" y="461"/>
      <point x="459" y="449"/>
      <point x="459" y="416" type="curve" smooth="yes"/>
      <point x="459" y="377"/>
      <point x="443" y="367"/>
      <point x="415" y="367" type="curve" smooth="yes"/>
    </contour>
  </outline>
</glyph>
<glyph name="macron" format="2">
	<advance width="308.30105"/>
	<unicode hex="00AF"/>
	<outline>
		<contour>
			<point x="164.22761" y="625.82278" type="line"/>
			<point x="437.35904" y="625.82278" type="line"/>
			<point x="465.00957" y="722.53007" type="line"/>
			<point x="191.87814" y="722.53007" type="line"/>
		</contour>
	</outline>
</glyph>
<glyph name="degree" format="2">
	<advance width="321.57807"/>
	<unicode hex="00B0"/>
	<outline>
		<contour>
			<point x="283.95079" y="475.70464" type="curve" smooth="yes"/>
			<point x="356.68642" y="475.70464"/>
			<point x="423.14222" y="533.41086"/>
			<point x="427.65137" y="627.88186" type="curve" smooth="yes"/>
			<point x="432.16051" y="722.35285"/>
			<point x="371.2134" y="780.05907"/>
			<point x="298.47777" y="780.05907" type="curve" smooth="yes"/>
			<point x="225.74215" y="780.05907"/>
			<point x="159.28634" y="722.35285"/>
			<point x="154.7772" y="627.88186" type="curve" smooth="yes"/>
			<point x="150.26805" y="533.41086"/>
			<point x="211.21516" y="475.70464"/>
		</contour>
		<contour>
			<point x="288.33084" y="567.47099" type="curve" smooth="yes"/>
			<point x="270.62033" y="567.47099"/>
			<point x="252.50419" y="590.76477"/>
			<point x="254.2758" y="627.88186" type="curve" smooth="yes"/>
			<point x="256.04742" y="664.99894"/>
			<point x="276.38721" y="688.29272"/>
			<point x="294.09772" y="688.29272" type="curve" smooth="yes"/>
			<point x="311.80823" y="688.29272"/>
			<point x="329.92437" y="664.99894"/>
			<point x="328.15276" y="627.88186" type="curve" smooth="yes"/>
			<point x="326.38114" y="590.76477"/>
			<point x="306.04136" y="567.47099"/>
		</contour>
	</outline>
</glyph>
<glyph name="plusminus" format="2">
  <advance width="452.236553336746"/>
  <unicode hex="00B1"/>
  <outline>
    <contour>
      <point x="196.3268113664118" y="156.1186737251282" type="line"/>
      <point x="324.90765868393476" y="156.1186737251282" type="line"/>
      <point x="362.9180929931224" y="331.7642392158508" type="line"/>
      <point x="490.50773735464264" y="331.7642392158508" type="line"/>
      <point x="524.1398855981497" y="448.648738822937" type="line"/>
      <point x="396.8075024345855" y="448.648738822937" type="line"/>
      <point x="434.81232287862673" y="624.1766883659362" type="line"/>
      <point x="306.4887367590598" y="624.1766883659362" type="line"/>
      <point x="268.48391631501863" y="448.648738822937" type="line"/>
      <point x="141.15153315145443" y="448.648738822937" type="line"/>
      <point x="107.5193849079473" y="331.7642392158508" type="line"/>
      <point x="234.59450687355547" y="331.7642392158508" type="line"/>
    </contour>
    <contour>
      <point x="26.59750128462005" y="0.11761594772338867" type="line"/>
      <point x="411.1033039697067" y="0.11761594772338867" type="line"/>
      <point x="444.99271341116986" y="117.00211555480956" type="line"/>
      <point x="59.4317489849143" y="117.00211555480956" type="line"/>
    </contour>
  </outline>
</glyph>
<glyph name="twosuperior" format="2">
  <advance width="287.63789718627936"/>
  <unicode hex="00B2"/>
  <outline>
    <contour>
      <point x="88.70747048291425" y="303.76423921585086" type="curve"/>
      <point x="329.5389414909909" y="303.76423921585086" type="line"/>
      <point x="351.6571190353479" y="389.7067534637451" type="line"/>
      <point x="224.32473587178362" y="389.7067534637451" type="line"/>
      <point x="231.05533545237347" y="407.76476810455324"/>
      <point x="265.3205871256639" y="433.23523189544676"/>
      <point x="290.8198920457803" y="457.2937754249573" type="curve" smooth="yes"/>
      <point x="352.94430362647137" y="501.3528478431702"/>
      <point x="370.4328831193918" y="544.1176159477234"/>
      <point x="373.3893530643283" y="606.0585435295105" type="curve" smooth="yes"/>
      <point x="376.8736777976864" y="679.0585435295105"/>
      <point x="331.7878081410453" y="708.8823840522766"/>
      <point x="275.4985985682654" y="708.8823840522766" type="curve" smooth="yes"/>
      <point x="224.56354854936447" y="708.8823840522766"/>
      <point x="174.50813208292078" y="687.9409275817872"/>
      <point x="136.24989408096792" y="648.8818551635742" type="curve"/>
      <point x="166.86799049104903" y="574.8217249679565" type="line"/>
      <point x="207.64080755585823" y="607.822253856659"/>
      <point x="234.63498021206027" y="621.1751016998292"/>
      <point x="250.46631462508617" y="621.1751016998292" type="curve" smooth="yes"/>
      <point x="267.0171987332905" y="621.1751016998292"/>
      <point x="275.01435932338546" y="608.5870219612121"/>
      <point x="274.1131193924522" y="589.705166797638" type="curve" smooth="yes"/>
      <point x="272.7008915126461" y="560.1176159477234"/>
      <point x="273.4833438354862" y="543.7062245750427"/>
      <point x="202.86225825285334" y="502.2352318954468" type="curve" smooth="yes"/>
      <point x="100.44501245357017" y="443.8227827453613"/>
      <point x="90.94404614599664" y="388.35179006576533"/>
    </contour>
  </outline>
</glyph>
<glyph name="threesuperior" format="2">
  <advance width="287.63789718627936"/>
  <unicode hex="00B3"/>
  <outline>
    <contour>
      <point x="195.04548116032424" y="294.8818551635742" type="curve" smooth="yes"/>
      <point x="259.9627116033614" y="294.8818551635742"/>
      <point x="346.9714480665238" y="336.76318143844605"/>
      <point x="351.52555490575537" y="432.1761594772339" type="curve" smooth="yes"/>
      <point x="353.23823816938824" y="468.0585435295105"/>
      <point x="339.07975294772007" y="499.8233116340637"/>
      <point x="320.2582511029219" y="514.8233116340638" type="curve"/>
      <point x="352.39894685608596" y="534.0585435295105"/>
      <point x="371.1808832654621" y="575.4113913726807"/>
      <point x="373.04237182163973" y="614.4113913726807" type="curve" smooth="yes"/>
      <point x="376.3638944657511" y="684.0005288887023"/>
      <point x="328.2645022176955" y="708.8823840522766"/>
      <point x="277.9706510459385" y="708.8823840522766" type="curve" smooth="yes"/>
      <point x="232.85204907813903" y="708.8823840522766"/>
      <point x="181.93716470473944" y="692.588079738617"/>
      <point x="154.7838009598309" y="675.3528478431701" type="curve"/>
      <point x="170.51844088876527" y="600.0574857521057" type="line"/>
      <point x="194.46623853115867" y="612.7046379089355"/>
      <point x="223.5800100236041" y="625.7046379089355"/>
      <point x="249.65346675167345" y="625.7046379089355" type="curve" smooth="yes"/>
      <point x="273.1281945508378" y="625.7046379089355"/>
      <point x="282.3386556396997" y="611.5870219612121"/>
      <point x="281.5019877800052" y="594.0580146408081" type="curve" smooth="yes"/>
      <point x="280.31997885942184" y="569.2937754249573"/>
      <point x="263.5647386578998" y="544.0"/>
      <point x="236.71559004047018" y="544.0" type="curve" smooth="yes"/>
      <point x="194.89305804290154" y="544.0" type="line"/>
      <point x="173.12409344516973" y="470.76371032714843" type="line"/>
      <point x="225.3937750570482" y="470.76371032714843" type="line" smooth="yes"/>
      <point x="251.49725702995457" y="470.76371032714843"/>
      <point x="262.65879240130005" y="457.0580146408081"/>
      <point x="261.4543280201309" y="431.8233116340637" type="curve" smooth="yes"/>
      <point x="259.7107811202473" y="395.29430431365967"/>
      <point x="231.77103831465325" y="379.9419853591919"/>
      <point x="204.66462849926762" y="379.9419853591919" type="curve" smooth="yes"/>
      <point x="172.0029401262287" y="379.9419853591919"/>
      <point x="136.93560750084708" y="390.47152156829833"/>
      <point x="117.47767873992031" y="406.11867372512813" type="curve"/>
      <point x="76.88888888894597" y="326.8233116340637" type="line"/>
      <point x="104.87018202716551" y="306.41139137268067"/>
      <point x="149.15509559865674" y="294.8818551635742"/>
    </contour>
  </outline>
</glyph>
<glyph name="acute" format="2">
  <advance width="300"/>
  <unicode hex="00B4"/>
  <outline>
    <contour>
      <point x="256" y="578.0" type="line"/>
      <point x="423" y="710.0" type="line"/>
      <point x="348" y="785.0" type="line"/>
      <point x="200" y="636.0" type="line"/>
    </contour>
  </outline>
</glyph>
<glyph name="mu" format="2">
  <advance width="520.5386883654245"/>
  <unicode hex="00B5"/>
  <outline>
    <contour>
      <point x="18.32691245488319" y="-168.23470300674438" type="line"/>
      <point x="157.7688722807409" y="-168.23470300674438" type="line"/>
      <point x="171.47218620707426" y="-80.17880392074585" type="line" smooth="yes"/>
      <point x="185.264231938763" y="-34.94251424789429"/>
      <point x="188.2496455356508" y="-11.765825881958008"/>
      <point x="188.62165138155876" y="17.58755084991455" type="curve"/>
      <point x="207.07112179011713" y="-2.4709926795959474"/>
      <point x="227.44006270838764" y="-11.999999999999998"/>
      <point x="242.86134252288082" y="-11.999999999999998" type="curve" smooth="yes"/>
      <point x="277.2755336784144" y="-11.999999999999998"/>
      <point x="315.79859184315035" y="7.764768104553222"/>
      <point x="350.43725390306173" y="41.0585435295105" type="curve"/>
      <point x="365.2057477163504" y="11.294304313659667"/>
      <point x="388.5981873938893" y="-9.882384052276612"/>
      <point x="470.24360469661246" y="-10.764768104553223" type="curve"/>
      <point x="523.3784147460568" y="105.47257934570312" type="line"/>
      <point x="461.4052325914216" y="111.53112287521361"/>
      <point x="473.995971756439" y="158.00105777740478"/>
      <point x="490.6852173786066" y="223.47152156829833" type="curve" smooth="yes"/>
      <point x="559.6673697951773" y="524.9414564704895" type="line"/>
      <point x="419.1702482281507" y="524.9414564704895" type="line"/>
      <point x="354.80765701742087" y="252.29430431365967" type="line" smooth="yes"/>
      <point x="349.711001450563" y="219.41297803878783"/>
      <point x="343.79177661832307" y="179.53059398651124"/>
      <point x="339.2972191610985" y="146.29536209106448" type="curve"/>
      <point x="307.2410178606588" y="110.47205045700073"/>
      <point x="288.9868854052631" y="104.47257934570312"/>
      <point x="287.51385247457705" y="104.47257934570312" type="curve" smooth="yes"/>
      <point x="233.61052794045142" y="104.47257934570312"/>
      <point x="238.9319593295681" y="166.8238405227661"/>
      <point x="252.83089053661337" y="249.29271764755248" type="curve" smooth="yes"/>
      <point x="322.53420676487985" y="524.9414564704895" type="line"/>
      <point x="182.03708519785317" y="524.9414564704895" type="line"/>
    </contour>
  </outline>
</glyph>
<glyph name="paragraph" format="2">
  <advance width="596.6670354256553"/>
  <unicode hex="00B6"/>
  <outline>
    <contour>
      <point x="143.3155128283045" y="-185.0" type="line"/>
      <point x="278.2273305928409" y="-185.0" type="line"/>
      <point x="459.3406198751064" y="592.351261177063" type="line"/>
      <point x="481.98205482780753" y="592.7041090202331"/>
      <point x="499.1190878725556" y="591.4688771247863"/>
      <point x="509.75695253580346" y="588.351261177063" type="curve"/>
      <point x="329.6324856999486" y="-185.0" type="line"/>
      <point x="464.544303464485" y="-185.0" type="line"/>
      <point x="671.9376694466679" y="683.0" type="line"/>
      <point x="607.8900133166555" y="695.1176159477234"/>
      <point x="561.4308574301336" y="700.0"/>
      <point x="510.95809590845516" y="700.0" type="curve" smooth="yes"/>
      <point x="304.4063230136958" y="700.0"/>
      <point x="156.10465690632333" y="604.5305939865112"/>
      <point x="148.10834194438672" y="437.0" type="curve" smooth="yes"/>
      <point x="143.25385545365666" y="335.2937754249573"/>
      <point x="183.93563865375035" y="271.9414564704895"/>
      <point x="249.86915492210812" y="258.70569568634033" type="curve"/>
    </contour>
  </outline>
</glyph>
<glyph name="cedilla" format="2">
  <advance width="255.54296510784212"/>
  <unicode hex="00B8"/>
  <outline>
    <contour>
      <point x="67.3482840516018" y="-217.00105777740478" type="curve" smooth="yes"/>
      <point x="125.0021504621963" y="-217.00105777740478"/>
      <point x="185.92637272022853" y="-185.11867372512816"/>
      <point x="189.51461706906926" y="-109.9414564704895" type="curve" smooth="yes"/>
      <point x="190.83140924138596" y="-82.35337673187256"/>
      <point x="179.48550194080178" y="-58.52953620910644"/>
      <point x="157.58809345082426" y="-43.29430431365967" type="curve"/>
      <point x="167.38594823691292" y="-27.294304313659666"/>
      <point x="188.09859731097933" y="5.999999999999999"/>
      <point x="197.5437299475131" y="20.0" type="curve"/>
      <point x="110.44980258156829" y="20.0" type="line"/>
      <point x="103.96623831153111" y="7.1176159477233885"/>
      <point x="74.09576474511591" y="-39.0"/>
      <point x="59.56822742186612" y="-65.1176159477234" type="curve"/>
      <point x="92.55312073777436" y="-81.0"/>
      <point x="99.00527353588653" y="-90.88238405227662"/>
      <point x="98.26124707316295" y="-106.47046379089355" type="curve" smooth="yes"/>
      <point x="97.46387626949351" y="-123.17615947723388"/>
      <point x="88.50453992187626" y="-131.2937754249573"/>
      <point x="67.99027004695229" y="-131.2937754249573" type="curve" smooth="yes"/>
      <point x="51.26047558882641" y="-131.2937754249573"/>
      <point x="30.579575425382114" y="-125.64662326812744"/>
      <point x="16.87135987095346" y="-117.88185516357422" type="curve"/>
      <point x="-20.178719522760876" y="-195.29483320236207" type="line"/>
      <point x="1.989130271852909" y="-209.70675346374512"/>
      <point x="35.27946892250945" y="-217.00105777740478"/>
    </contour>
  </outline>
</glyph>
<glyph name="onesuperior" format="2">
	<advance width="287.6379"/>
	<unicode hex="00B9"/>
	<outline>
		<contour>
			<point x="160.26517" y="303.76424" type="line"/>
			<point x="266.6615" y="303.76424" type="line"/>
			<point x="362.44012" y="700.76477" type="line"/>
			<point x="279.90245" y="700.76477" type="line"/>
			<point x="239.36669" y="669.52954"/>
			<point x="186.02036" y="641.11762"/>
			<point x="135.17496" y="618.23523" type="curve"/>
			<point x="140.82372" y="536.52795" type="line"/>
			<point x="182.2248" y="550.35179"/>
			<point x="200.25166" y="561.82225"/>
			<point x="221.85874" y="578.23365" type="curve"/>
		</contour>
	</outline>
</glyph>
<glyph name="ordmasculine" format="2">
  <advance width="346.9920324806789"/>
  <unicode hex="00BA"/>
  <outline>
    <contour>
      <point x="244.33620136933138" y="308.9403986930847" type="curve" smooth="yes"/>
      <point x="366.5938948308252" y="308.9403986930847"/>
      <point x="434.93963810375726" y="436.94039869308466"/>
      <point x="441.1979695427379" y="568.0585435295104" type="curve" smooth="yes"/>
      <point x="445.2438574995056" y="652.8238405227662"/>
      <point x="407.31425695287453" y="708.5295362091064"/>
      <point x="318.15833170778933" y="708.5295362091064" type="curve" smooth="yes"/>
      <point x="195.90063824629556" y="708.5295362091064"/>
      <point x="127.55489497336357" y="580.5295362091064"/>
      <point x="121.29656353438291" y="449.41139137268067" type="curve" smooth="yes"/>
      <point x="117.25067557761517" y="364.64609437942505"/>
      <point x="155.18027612424623" y="308.9403986930847"/>
    </contour>
    <contour>
      <point x="256.40689810174956" y="394.1181448364258" type="curve" smooth="yes"/>
      <point x="238.41300630769618" y="394.1181448364258"/>
      <point x="214.06264422975318" y="406.4704637908936"/>
      <point x="216.49969280604242" y="457.52900732040405" type="curve" smooth="yes"/>
      <point x="220.85159952356454" y="548.7056956863403"/>
      <point x="266.47207766653537" y="623.3517900657653"/>
      <point x="306.08763497537126" y="623.3517900657653" type="curve" smooth="yes"/>
      <point x="324.0815267694246" y="623.3517900657653"/>
      <point x="348.3897722367146" y="610.117087059021"/>
      <point x="345.9948402710784" y="559.940927581787" type="curve" smooth="yes"/>
      <point x="341.64293355355625" y="468.7642392158508"/>
      <point x="296.02245541058545" y="394.1181448364258"/>
    </contour>
  </outline>
</glyph>
<glyph name="questiondown" format="2">
	<advance width="352.67399"/>
	<unicode hex="00BF"/>
	<outline>
		<contour>
			<point x="162.13779" y="-195.05907" type="curve" smooth="yes"/>
			<point x="221.28299" y="-195.05907"/>
			<point x="283.73721" y="-175.88238"/>
			<point x="329.64322" y="-148.05854" type="curve"/>
			<point x="316.88964" y="-38.35073" type="line"/>
			<point x="288.27784" y="-58.64504"/>
			<point x="235.12544" y="-77.05696"/>
			<point x="195.28265" y="-77.05696" type="curve" smooth="yes"/>
			<point x="168.84746" y="-77.05696"/>
			<point x="150.84632" y="-61.58649"/>
			<point x="152.646" y="-23.88133" type="curve" smooth="yes"/>
			<point x="154.58047" y="16.64768"/>
			<point x="181.86232" y="43.05907"/>
			<point x="251.47035" y="104.23576" type="curve" smooth="yes"/>
			<point x="303.33197" y="157"/>
			<point x="348.86408" y="208.23523"/>
			<point x="352.4319" y="293.76424" type="curve"/>
			<point x="227.29991" y="293.76424" type="line"/>
			<point x="219.47757" y="240.41192"/>
			<point x="186.72658" y="203.00053"/>
			<point x="146.26396" y="164.70675" type="curve"/>
			<point x="88.16459" y="111.70675"/>
			<point x="20.66338" y="61.23629"/>
			<point x="15.32595" y="-50.58808" type="curve" smooth="yes"/>
			<point x="10.68486" y="-147.82331"/>
			<point x="81.1659" y="-195.05907"/>
		</contour>
		<contour>
			<point x="304.4367" y="351.52689" type="curve" smooth="yes"/>
			<point x="348.98855" y="351.52689"/>
			<point x="397.23753" y="392.35073"/>
			<point x="399.96945" y="449.58702" type="curve" smooth="yes"/>
			<point x="402.42621" y="501.05854"/>
			<point x="370.57861" y="526.7057"/>
			<point x="329.99015" y="526.7057" type="curve" smooth="yes"/>
			<point x="285.43831" y="526.7057"/>
			<point x="237.18933" y="485.88186"/>
			<point x="234.45741" y="428.64557" type="curve" smooth="yes"/>
			<point x="232.00065" y="377.17404"/>
			<point x="263.84824" y="351.52689"/>
		</contour>
	</outline>
</glyph>
<glyph name="Aring" format="2">
	<advance width="591.36902"/>
	<unicode hex="00C5"/>
	<outline>
		<contour>
			<point x="9.8843" y="0" type="curve"/>
			<point x="162.83834" y="0" type="line"/>
			<point x="185.1414" y="53.64662"/>
			<point x="210.25162" y="105.17563"/>
			<point x="232.143" y="155.58702" type="curve"/>
			<point x="422.6179" y="155.58702" type="line"/>
			<point x="422.35746" y="104.82278"/>
			<point x="421.26261" y="53.29378"/>
			<point x="420.08353" y="0" type="curve"/>
			<point x="567.73564" y="0" type="line"/>
			<point x="563.10887" y="210.99841"/>
			<point x="547.26962" y="474.47099"/>
			<point x="522.15759" y="665.53007" type="curve"/>
			<point x="548.05469" y="683.94199"/>
			<point x="567.46138" y="716.82437"/>
			<point x="569.68787" y="763.47152" type="curve" smooth="yes"/>
			<point x="573.1666" y="836.35443"/>
			<point x="528.35019" y="876.1192"/>
			<point x="473.94016" y="876.1192" type="curve" smooth="yes"/>
			<point x="422.95288" y="876.1192"/>
			<point x="373.28532" y="836.35443"/>
			<point x="369.80658" y="763.47152" type="curve" smooth="yes"/>
			<point x="368.15847" y="728.94199"/>
			<point x="376.45578" y="702.17722"/>
			<point x="390.42087" y="682.53007" type="curve"/>
			<point x="271.81138" y="492.58914"/>
			<point x="170.77285" y="285.82543"/>
		</contour>
		<contour>
			<point x="295.33514" y="270.0596" type="line"/>
			<point x="334.64541" y="365.05854"/>
			<point x="375.93208" y="456.70464"/>
			<point x="418.62186" y="549.70358" type="curve"/>
			<point x="422.60605" y="453.58702"/>
			<point x="419.88323" y="355.52901"/>
			<point x="419.33094" y="270.0596" type="curve"/>
		</contour>
		<contour>
			<point x="466.25273" y="715.06013" type="curve" smooth="yes"/>
			<point x="450.21637" y="715.06013"/>
			<point x="434.2261" y="731.64821"/>
			<point x="435.74504" y="763.47152" type="curve" smooth="yes"/>
			<point x="437.25837" y="795.17722"/>
			<point x="454.83777" y="811.88291"/>
			<point x="470.87413" y="811.88291" type="curve" smooth="yes"/>
			<point x="487.96566" y="811.88291"/>
			<point x="503.95031" y="795.17722"/>
			<point x="502.43698" y="763.47152" type="curve" smooth="yes"/>
			<point x="500.91804" y="731.64821"/>
			<point x="483.34426" y="715.06013"/>
		</contour>
	</outline>
</glyph>
<glyph name="AE" format="2">
	<advance width="799.67329"/>
	<unicode hex="00C6"/>
	<outline>
		<contour>
			<point x="-5.4286" y="0" type="curve"/>
			<point x="144.35995" y="0" type="line"/>
			<point x="174.03681" y="52.29378"/>
			<point x="214.50865" y="114.52901"/>
			<point x="247.67172" y="167.05801" type="curve"/>
			<point x="410.70851" y="167.05801" type="line"/>
			<point x="372.10503" y="0" type="line"/>
			<point x="761.90885" y="0" type="line"/>
			<point x="798.43539" y="122.53165" type="line"/>
			<point x="545.19142" y="122.53165" type="line"/>
			<point x="578.22977" y="302.35179" type="line"/>
			<point x="785.71003" y="302.35179" type="line"/>
			<point x="820.79217" y="422.11867" type="line"/>
			<point x="613.82644" y="422.11867" type="line"/>
			<point x="639.494" y="570.46835" type="line"/>
			<point x="874.38626" y="570.46835" type="line"/>
			<point x="910.65553" y="693" type="line"/>
			<point x="494.08482" y="693" type="line"/>
			<point x="321.76782" y="477.94146"/>
			<point x="195.18358" y="286.53007"/>
		</contour>
		<contour>
			<point x="338.46065" y="283.29536" type="line"/>
			<point x="376.37481" y="368.8808"/>
			<point x="456.06048" y="494.40928"/>
			<point x="497.32399" y="557.52636" type="curve"/>
			<point x="443.2546" y="283.29536" type="line"/>
		</contour>
	</outline>
</glyph>
<glyph name="Ccedilla" format="2">
	<advance width="514.26386"/>
	<unicode hex="00C7"/>
	<outline>
		<contour>
			<point x="214.60206" y="-217.00106" type="curve" smooth="yes"/>
			<point x="272.25593" y="-217.00106"/>
			<point x="333.18015" y="-185.11867"/>
			<point x="336.7684" y="-109.94146" type="curve" smooth="yes"/>
			<point x="338.08519" y="-82.35338"/>
			<point x="326.73928" y="-58.52954"/>
			<point x="304.84187" y="-43.2943" type="curve"/>
			<point x="309.46487" y="-35.41192"/>
			<point x="316.07289" y="-24.76477"/>
			<point x="323.47881" y="-14.11762" type="curve"/>
			<point x="407.04493" y="-13.11762"/>
			<point x="451.54596" y="3"/>
			<point x="497.49661" y="30.11762" type="curve"/>
			<point x="487.55986" y="149.23735" type="line"/>
			<point x="444.20191" y="128.94304"/>
			<point x="401.11302" y="112.1788"/>
			<point x="361.36688" y="112.1788" type="curve" smooth="yes"/>
			<point x="291.19995" y="112.1788"/>
			<point x="252.80302" y="166.76635"/>
			<point x="258.44642" y="285.00106" type="curve" smooth="yes"/>
			<point x="266.32743" y="450.11603"/>
			<point x="334.12845" y="584.35073"/>
			<point x="451.55041" y="584.35073" type="curve" smooth="yes"/>
			<point x="491.72882" y="584.35073"/>
			<point x="519.30216" y="574.76265"/>
			<point x="564.39562" y="545.64504" type="curve"/>
			<point x="620.95375" y="659.7057" type="line"/>
			<point x="566.13401" y="695.88238"/>
			<point x="516.02448" y="708.88238"/>
			<point x="464.44433" y="708.88238" type="curve" smooth="yes"/>
			<point x="236.45761" y="708.88238"/>
			<point x="117.06373" y="493.99841"/>
			<point x="106.69791" y="276.82437" type="curve" smooth="yes"/>
			<point x="99.45695" y="125.1192"/>
			<point x="151.63476" y="23.82437"/>
			<point x="244.20341" y="-5.05854" type="curve"/>
			<point x="231.83777" y="-24.7057"/>
			<point x="220.71998" y="-45.7057"/>
			<point x="206.82201" y="-65.11762" type="curve"/>
			<point x="239.84902" y="-80.11762"/>
			<point x="246.25905" y="-90.88238"/>
			<point x="245.51503" y="-106.47046" type="curve" smooth="yes"/>
			<point x="244.71766" y="-123.17616"/>
			<point x="235.75832" y="-131.29378"/>
			<point x="215.24405" y="-131.29378" type="curve" smooth="yes"/>
			<point x="198.51426" y="-131.29378"/>
			<point x="177.83336" y="-125.64662"/>
			<point x="164.12514" y="-117.88186" type="curve"/>
			<point x="127.07506" y="-195.29483" type="line"/>
			<point x="149.24291" y="-209.70675"/>
			<point x="182.53325" y="-217.00106"/>
		</contour>
	</outline>
</glyph>
<glyph name="Eth" format="2">
  <advance width="577.5813811737121"/>
  <unicode hex="00D0"/>
  <outline>
    <contour>
      <point x="225.4936805443796" y="-8.647152156829835" type="curve" smooth="yes"/>
      <point x="447.75401969642513" y="-8.647152156829835"/>
      <point x="616.2720006356847" y="162.05695686340331"/>
      <point x="628.7437778365838" y="423.35284784317014" type="curve" smooth="yes"/>
      <point x="636.7259697812715" y="590.5875508499146"/>
      <point x="547.6274893847046" y="700.7647681045532"/>
      <point x="388.09961464081607" y="700.7647681045532" type="curve" smooth="yes"/>
      <point x="342.3881394290701" y="700.7647681045532"/>
      <point x="279.29816278166845" y="695.7647681045532"/>
      <point x="215.1175050481275" y="680.8823840522765" type="curve"/>
      <point x="152.5913701674268" y="413.82436941146847" type="line"/>
      <point x="87.70416496922662" y="413.82436941146847" type="line"/>
      <point x="58.462182464115465" y="305.88132627487187" type="line"/>
      <point x="122.2942259211467" y="305.88132627487187" type="line"/>
      <point x="54.22053461541699" y="12.117615947723387" type="line"/>
      <point x="114.98196955511011" y="-2.5295362091064453"/>
      <point x="180.03946653058966" y="-8.647152156829835"/>
    </contour>
    <contour>
      <point x="263.6320166732278" y="114.76688365936279" type="curve" smooth="yes"/>
      <point x="242.86048560034786" y="114.76688365936279"/>
      <point x="238.22698618390345" y="115.88449960708618"/>
      <point x="230.95936553530368" y="117.35496339797973" type="curve"/>
      <point x="267.2953726001498" y="305.88132627487187" type="line"/>
      <point x="368.6548585375318" y="305.88132627487187" type="line"/>
      <point x="398.95200278381185" y="413.82436941146847" type="line"/>
      <point x="298.6476785875988" y="413.82436941146847" type="line"/>
      <point x="329.394012616763" y="574.7626525497436" type="line"/>
      <point x="342.9178309978436" y="577.1155003929139"/>
      <point x="355.0758820988533" y="578.3507322883606"/>
      <point x="367.68949738968286" y="578.3507322883606" type="curve" smooth="yes"/>
      <point x="465.08559756034515" y="578.3507322883606"/>
      <point x="482.913221966179" y="517.0564279747009"/>
      <point x="478.12622807775324" y="416.76423921585086" type="curve" smooth="yes"/>
      <point x="469.16981595522867" y="229.11867372512816"/>
      <point x="384.94683278191644" y="114.76688365936279"/>
    </contour>
  </outline>
</glyph>
<glyph name="multiply" format="2">
	<advance width="452.23655"/>
	<unicode hex="00D7"/>
	<outline>
		<contour>
			<point x="127.96231" y="77.41086" type="line"/>
			<point x="270.07421" y="217.23417" type="line"/>
			<point x="341.58419" y="80.9404" type="line"/>
			<point x="441.79289" y="157.29483" type="line"/>
			<point x="369.7535" y="293.82384" type="line"/>
			<point x="507.96632" y="433.35285" type="line"/>
			<point x="446.96239" y="519.47205" type="line"/>
			<point x="307.38942" y="378.94304" type="line"/>
			<point x="236.94217" y="515.94251" type="line"/>
			<point x="136.72786" y="439.47046" type="line"/>
			<point x="207.96739" y="302.35338" type="line"/>
			<point x="66.70674" y="163.64768" type="line"/>
		</contour>
	</outline>
</glyph>
<glyph name="Oslash" format="2">
  <advance width="604.3260619937624"/>
  <unicode hex="00D8"/>
  <outline>
    <contour>
      <point x="143.05538149873564" y="-43.11814483642578" type="line"/>
      <point x="198.85796379662025" y="29.176159477233885" type="line"/>
      <point x="232.58422345443202" y="0.23523189544677733"/>
      <point x="273.41610039421585" y="-14.117615947723388"/>
      <point x="322.6025559261143" y="-14.117615947723388" type="curve" smooth="yes"/>
      <point x="533.8594729366243" y="-14.117615947723388"/>
      <point x="646.0317637239648" y="203.11920261383057"/>
      <point x="656.3891759960026" y="420.117087059021" type="curve" smooth="yes"/>
      <point x="659.8426118490005" y="492.4699349021912"/>
      <point x="648.5902640867972" y="552.2347030067444"/>
      <point x="625.0266762731624" y="598.8818551635742" type="curve"/>
      <point x="683.2585376568038" y="676.7642392158508" type="line"/>
      <point x="614.6163377761916" y="736.5886086273193" type="line"/>
      <point x="562.0092876480427" y="665.470992679596" type="line"/>
      <point x="528.2830279902308" y="694.411920261383"/>
      <point x="488.5119266567624" y="708.8823840522766"/>
      <point x="440.38063286603284" y="708.8823840522766" type="curve" smooth="yes"/>
      <point x="232.28920107902957" y="708.8823840522766"/>
      <point x="116.8671918468764" y="489.8807973861694"/>
      <point x="106.59962666129103" y="274.7652969932556" type="curve" smooth="yes"/>
      <point x="103.14619080829304" y="202.41244915008542"/>
      <point x="112.58197903162109" y="143.41244915008545"/>
      <point x="137.2007285864248" y="96.76529699325562" type="curve"/>
      <point x="74.67605668122584" y="16.823840522766112" type="line"/>
    </contour>
    <contour>
      <point x="337.3860946982354" y="106.88449960708617" type="curve" smooth="yes"/>
      <point x="316.76735702593214" y="106.88449960708617"/>
      <point x="301.56669419748334" y="114.7078112411499"/>
      <point x="290.4556836124558" y="129.47205045700073" type="curve"/>
      <point x="514.3851576471619" y="481.3502033996582" type="line"/>
      <point x="513.5631104983943" y="461.93881202697753"/>
      <point x="512.3024241105035" y="439.8217249679566"/>
      <point x="511.16535135520104" y="415.9989422225952" type="curve" smooth="yes"/>
      <point x="503.49494350107074" y="255.29641986846923"/>
      <point x="425.49467479313614" y="106.88449960708617"/>
    </contour>
    <contour>
      <point x="247.84224721242532" y="214.29694875717163" type="line"/>
      <point x="248.62217775053998" y="232.82595607757565"/>
      <point x="250.63303420584413" y="253.94304313659666"/>
      <point x="251.77572082629302" y="277.8834418296814" type="curve" smooth="yes"/>
      <point x="259.4040120697704" y="437.7035801315307"/>
      <point x="335.3781905166732" y="587.880268497467"/>
      <point x="424.54193235274283" y="587.880268497467" type="curve" smooth="yes"/>
      <point x="443.30760774066425" y="587.880268497467"/>
      <point x="458.25100937115707" y="580.0569568634033"/>
      <point x="469.35640609103814" y="565.175101699829" type="curve"/>
    </contour>
  </outline>
</glyph>
<glyph name="Thorn" format="2">
  <advance width="540.6350870508314"/>
  <unicode hex="00DE"/>
  <outline>
    <contour>
      <point x="55.931388872936814" y="0.0" type="line"/>
      <point x="201.98769729310882" y="0.0" type="line"/>
      <point x="231.92096141128607" y="130.46993490219117" type="line"/>
      <point x="286.9760988929756" y="130.46993490219117" type="line" smooth="yes"/>
      <point x="505.88031758511625" y="130.46993490219117"/>
      <point x="586.6257866667313" y="275.0010577774048"/>
      <point x="592.6369818187217" y="400.9414564704895" type="curve" smooth="yes"/>
      <point x="597.6149480985639" y="505.2347030067443"/>
      <point x="545.64067767116" y="593.5300650978088"/>
      <point x="411.10498096482723" y="593.5300650978088" type="curve" smooth="yes"/>
      <point x="402.7381295880182" y="593.5300650978088"/>
      <point x="358.5423990450093" y="593.4124491500854"/>
      <point x="345.5600619433167" y="590.5300650978089" type="curve"/>
      <point x="368.3143077386638" y="693.0" type="line"/>
      <point x="221.20283757732284" y="693.0" type="line"/>
    </contour>
    <contour>
      <point x="267.99475215720855" y="254.29589097976682" type="line"/>
      <point x="309.76319354541755" y="467.1160292816162" type="line"/>
      <point x="325.4072058901395" y="468.1160292816162"/>
      <point x="343.11994042140446" y="470.351261177063"/>
      <point x="351.4384661950161" y="470.351261177063" type="curve" smooth="yes"/>
      <point x="405.7257283783296" y="470.351261177063"/>
      <point x="443.14226522942613" y="450.76371032714843"/>
      <point x="440.32621764547883" y="391.7647681045532" type="curve" smooth="yes"/>
      <point x="435.5194868746576" y="291.05907241821285"/>
      <point x="370.2160974229696" y="254.29589097976682"/>
      <point x="301.9466548155197" y="254.29589097976682" type="curve" smooth="yes"/>
    </contour>
  </outline>
</glyph>
<glyph name="germandbls" format="2">
  <advance width="518.6111835285004"/>
  <unicode hex="00DF"/>
  <outline>
    <contour>
      <point x="77.24884994729558" y="-189.0" type="line"/>
      <point x="129.49327138105247" y="-137.35390562057495"/>
      <point x="182.85463924718286" y="-40.11814483642578"/>
      <point x="231.12466783661205" y="143.47205045700073" type="curve" smooth="yes"/>
      <point x="322.66555736718453" y="548.7056956863403" type="line"/>
      <point x="339.331498792879" y="628.763181438446"/>
      <point x="368.9201874482916" y="658.1155003929139"/>
      <point x="400.01609997974174" y="658.1155003929139" type="curve" smooth="yes"/>
      <point x="427.5325643936602" y="658.1155003929139"/>
      <point x="454.9434068814805" y="642.4688771247863"/>
      <point x="453.3627125590624" y="609.3517900657654" type="curve" smooth="yes"/>
      <point x="449.2186450725055" y="522.5295362091065"/>
      <point x="326.3994861675445" y="487.64715215682986"/>
      <point x="320.61566517603967" y="366.4704637908935" type="curve" smooth="yes"/>
      <point x="318.6306715866404" y="324.882912940979"/>
      <point x="315.0359097221131" y="292.0590724182129"/>
      <point x="356.76263605267906" y="253.88238405227662" type="curve" smooth="yes"/>
      <point x="418.30358788451105" y="207.0580146408081"/>
      <point x="421.33641248590385" y="195.0585435295105"/>
      <point x="419.9663012167507" y="166.35337673187254" type="curve" smooth="yes"/>
      <point x="418.15541317921924" y="128.41350692749023"/>
      <point x="400.14253144104725" y="102.70781124114991"/>
      <point x="366.4478899806921" y="102.70781124114991" type="curve" smooth="yes"/>
      <point x="346.9104309989026" y="102.70781124114991"/>
      <point x="321.7204036304761" y="111.53112287521361"/>
      <point x="289.0994020832677" y="133.94304313659669" type="curve"/>
      <point x="235.1202818540445" y="23.76476810455322" type="line"/>
      <point x="269.59128286699104" y="-0.352847843170166"/>
      <point x="311.5813487410765" y="-11.999999999999998"/>
      <point x="355.1563835211398" y="-11.999999999999998" type="curve" smooth="yes"/>
      <point x="454.50610547807105" y="-11.999999999999998"/>
      <point x="554.9126403061231" y="50.05907241821289"/>
      <point x="561.1709717451038" y="181.17721725463866" type="curve" smooth="yes"/>
      <point x="563.6107893878021" y="232.29377542495726"/>
      <point x="557.3986170846272" y="274.23523189544676"/>
      <point x="531.5064875632837" y="301.23523189544676" type="curve" smooth="yes"/>
      <point x="487.4082717996492" y="338.2357607841492"/>
      <point x="464.58205140046175" y="356.1181448364258"/>
      <point x="465.9690295091636" y="385.1766883659363" type="curve" smooth="yes"/>
      <point x="469.7622178020134" y="464.6476810455322"/>
      <point x="580.5140839033426" y="489.88185516357424"/>
      <point x="587.1963505152621" y="629.8818551635743" type="curve" smooth="yes"/>
      <point x="591.4836851615455" y="719.7056956863403"/>
      <point x="504.914154344262" y="776.0"/>
      <point x="415.39650010384145" y="776.0" type="curve" smooth="yes"/>
      <point x="322.866154040491" y="776.0"/>
      <point x="225.64947940588027" y="719.2943043136596"/>
      <point x="191.6700260844999" y="565.5300650978088" type="curve"/>
      <point x="87.4268862877841" y="110.94304313659667" type="line"/>
      <point x="66.46402681370913" y="17.413506927490232"/>
      <point x="16.47314657246481" y="-104.11814483642578"/>
      <point x="-43.35238599127625" y="-171.1761594772339" type="curve"/>
    </contour>
  </outline>
</glyph>
<glyph name="ae" format="2">
	<advance width="682.30747"/>
	<unicode hex="00E6"/>
	<outline>
		<contour>
			<point x="217.18815" y="-13.76477" type="curve" smooth="yes"/>
			<point x="269.74903" y="-13.76477"/>
			<point x="339.56498" y="18.88186"/>
			<point x="378.65596" y="74.29325" type="curve"/>
			<point x="415.29096" y="9.82278"/>
			<point x="471.22611" y="-13.76477"/>
			<point x="522.78406" y="-13.76477" type="curve" smooth="yes"/>
			<point x="566.43744" y="-13.76477"/>
			<point x="610.42879" y="-1.2943"/>
			<point x="654.77424" y="15.94093" type="curve"/>
			<point x="650.23276" y="126.23682" type="line"/>
			<point x="620.66912" y="110.29589"/>
			<point x="584.91594" y="102.70781"/>
			<point x="549.83443" y="102.70781" type="curve" smooth="yes"/>
			<point x="508.46637" y="102.70781"/>
			<point x="485.44933" y="126.8249"/>
			<point x="478.90927" y="188.76424" type="curve"/>
			<point x="618.753" y="189.82278"/>
			<point x="736.52983" y="242.64715"/>
			<point x="743.68097" y="392.47046" type="curve" smooth="yes"/>
			<point x="748.40349" y="491.41192"/>
			<point x="686.39265" y="538.70622"/>
			<point x="613.34753" y="538.70622" type="curve" smooth="yes"/>
			<point x="560.09322" y="538.70622"/>
			<point x="495.29888" y="507.7653"/>
			<point x="451.78988" y="448.76583" type="curve"/>
			<point x="418.10522" y="514.11867"/>
			<point x="359.30957" y="538.70622"/>
			<point x="305.38404" y="538.70622" type="curve" smooth="yes"/>
			<point x="261.73066" y="538.70622"/>
			<point x="215.58687" y="525.35338"/>
			<point x="175.50419" y="509.00053" type="curve"/>
			<point x="180.05689" y="398.93987" type="line"/>
			<point x="209.62053" y="414.8808"/>
			<point x="245.37371" y="422.46888"/>
			<point x="280.45522" y="422.46888" type="curve" smooth="yes"/>
			<point x="321.30876" y="422.46888"/>
			<point x="344.29211" y="397.64609"/>
			<point x="350.86586" y="336.41245" type="curve"/>
			<point x="211.0109" y="335.11867"/>
			<point x="93.74859" y="282.2943"/>
			<point x="86.59745" y="132.47099" type="curve" smooth="yes"/>
			<point x="81.71769" y="30.23523"/>
			<point x="145.45545" y="-13.76477"/>
		</contour>
		<contour>
			<point x="245.2404" y="97.29589" type="curve" smooth="yes"/>
			<point x="221.68732" y="97.29589"/>
			<point x="211.25368" y="115.47205"/>
			<point x="212.84561" y="148.82437" type="curve" smooth="yes"/>
			<point x="214.82775" y="190.35232"/>
			<point x="229.40361" y="234.11709"/>
			<point x="344.56826" y="238.99947" type="curve"/>
			<point x="330.70564" y="151.35443"/>
			<point x="296.15324" y="97.29589"/>
		</contour>
		<contour>
			<point x="485.18442" y="285.70675" type="curve"/>
			<point x="499.05264" y="373.46941"/>
			<point x="533.61066" y="427.64557"/>
			<point x="585.03802" y="427.64557" type="curve" smooth="yes"/>
			<point x="608.5911" y="427.64557"/>
			<point x="619.02474" y="409.46941"/>
			<point x="617.43282" y="376.11709" type="curve" smooth="yes"/>
			<point x="615.43944" y="334.35391"/>
			<point x="600.86359" y="290.58914"/>
		</contour>
	</outline>
</glyph>
<glyph name="ccedilla" format="2">
	<advance width="387.42379"/>
	<unicode hex="00E7"/>
	<outline>
		<contour>
			<point x="176.42561" y="-217.00106" type="curve" smooth="yes"/>
			<point x="234.07947" y="-217.00106"/>
			<point x="295.00369" y="-185.11867"/>
			<point x="298.59194" y="-109.94146" type="curve" smooth="yes"/>
			<point x="299.90873" y="-82.35338"/>
			<point x="288.56282" y="-58.52954"/>
			<point x="266.66542" y="-43.2943" type="curve"/>
			<point x="271.28841" y="-35.41192"/>
			<point x="277.6504" y="-24.52954"/>
			<point x="284.80467" y="-13.76477" type="curve"/>
			<point x="327.56659" y="-10.88238"/>
			<point x="354.92333" y="1.94093"/>
			<point x="386.0598" y="15.29378" type="curve"/>
			<point x="381.59694" y="127.23682" type="line"/>
			<point x="356.10474" y="115.1192"/>
			<point x="331.99126" y="104.47258"/>
			<point x="305.50384" y="104.47258" type="curve" smooth="yes"/>
			<point x="245.04231" y="104.47258"/>
			<point x="231.99212" y="151.41351"/>
			<point x="235.35007" y="221.76583" type="curve" smooth="yes"/>
			<point x="241.02995" y="340.76477"/>
			<point x="286.07174" y="420.46888"/>
			<point x="354.00166" y="420.46888" type="curve" smooth="yes"/>
			<point x="390.05998" y="420.46888"/>
			<point x="409.33273" y="411.17457"/>
			<point x="429.31635" y="400.05696" type="curve"/>
			<point x="481.40029" y="509.35285" type="line"/>
			<point x="449.60057" y="527.41192"/>
			<point x="410.60635" y="538.70622"/>
			<point x="356.30079" y="538.70622" type="curve" smooth="yes"/>
			<point x="204.10681" y="538.70622"/>
			<point x="98.02333" y="387.94199"/>
			<point x="89.3785" y="206.82437" type="curve" smooth="yes"/>
			<point x="84.52404" y="105.11867"/>
			<point x="115.33218" y="19.88291"/>
			<point x="204.18034" y="-5.47046" type="curve"/>
			<point x="193.1159" y="-25.35285"/>
			<point x="181.23672" y="-45.58808"/>
			<point x="168.64555" y="-65.11762" type="curve"/>
			<point x="201.63044" y="-81"/>
			<point x="208.0826" y="-90.88238"/>
			<point x="207.33857" y="-106.47046" type="curve" smooth="yes"/>
			<point x="206.5412" y="-123.17616"/>
			<point x="197.58186" y="-131.29378"/>
			<point x="177.06759" y="-131.29378" type="curve" smooth="yes"/>
			<point x="160.3378" y="-131.29378"/>
			<point x="139.6569" y="-125.64662"/>
			<point x="125.94868" y="-117.88186" type="curve"/>
			<point x="88.8986" y="-195.29483" type="line"/>
			<point x="111.06645" y="-209.70675"/>
			<point x="144.35679" y="-217.00106"/>
		</contour>
	</outline>
</glyph>
<glyph name="eth" format="2">
  <advance width="468"/>
  <unicode hex="00F0"/>
  <outline>
    <contour>
      <point x="243" y="-14" type="curve" smooth="yes"/>
      <point x="418" y="-14"/>
      <point x="514" y="207"/>
      <point x="514" y="459" type="curve" smooth="yes"/>
      <point x="514" y="520"/>
      <point x="506" y="574"/>
      <point x="491" y="623" type="curve"/>
      <point x="571" y="658" type="line"/>
      <point x="542" y="733" type="line"/>
      <point x="462" y="699" type="line"/>
      <point x="448" y="727"/>
      <point x="433" y="753"/>
      <point x="417" y="776" type="curve"/>
      <point x="302" y="716" type="line"/>
      <point x="317" y="695"/>
      <point x="330" y="671"/>
      <point x="340" y="647" type="curve"/>
      <point x="257" y="611" type="line"/>
      <point x="287" y="535" type="line"/>
      <point x="365" y="569" type="line"/>
      <point x="371" y="540"/>
      <point x="374" y="514"/>
      <point x="375" y="483" type="curve" smooth="yes"/>
      <point x="375" y="483"/>
      <point x="375" y="482"/>
      <point x="375" y="482" type="curve"/>
      <point x="362" y="487"/>
      <point x="348" y="489"/>
      <point x="333" y="489" type="curve" smooth="yes"/>
      <point x="186" y="489"/>
      <point x="80" y="333"/>
      <point x="80" y="156" type="curve" smooth="yes"/>
      <point x="80" y="46"/>
      <point x="139" y="-14"/>
    </contour>
    <contour>
      <point x="259" y="105" type="curve" smooth="yes"/>
      <point x="235" y="105"/>
      <point x="221" y="124"/>
      <point x="221" y="167" type="curve" smooth="yes"/>
      <point x="221" y="255"/>
      <point x="256" y="379"/>
      <point x="325" y="379" type="curve" smooth="yes"/>
      <point x="340" y="379"/>
      <point x="351" y="377"/>
      <point x="361" y="373" type="curve"/>
      <point x="341" y="208"/>
      <point x="301" y="105.0"/>
    </contour>
  </outline>
</glyph>
<glyph name="divide" format="2">
  <advance width="452.236553336746"/>
  <unicode hex="00F7"/>
  <outline>
    <contour>
      <point x="74.47085945236822" y="239.52847843170164" type="line"/>
      <point x="454.1148163256352" y="239.52847843170164" type="line"/>
      <point x="489.0593875082673" y="356.41297803878786" type="line"/>
      <point x="109.41543063500029" y="356.41297803878786" type="line"/>
    </contour>
    <contour>
      <point x="217.4226692701017" y="16.29271764755249" type="curve" smooth="yes"/>
      <point x="260.867119303441" y="16.29271764755249"/>
      <point x="303.29469566076824" y="50.52847843170166"/>
      <point x="304.43531333631165" y="106.76476810455321" type="curve" smooth="yes"/>
      <point x="304.94523418316857" y="155.17721725463866"/>
      <point x="276.1255496481976" y="177.9419853591919"/>
      <point x="237.95690832070292" y="177.9419853591919" type="curve" smooth="yes"/>
      <point x="194.2551970894077" y="177.9419853591919"/>
      <point x="151.57035953412438" y="143.7062245750427"/>
      <point x="150.68138919139056" y="87.35231895446778" type="curve" smooth="yes"/>
      <point x="149.91982101172405" y="39.05748575210571"/>
      <point x="178.99676674465104" y="16.29271764755249"/>
    </contour>
    <contour>
      <point x="315.4885131483561" y="416.9994711112976" type="curve" smooth="yes"/>
      <point x="358.93296318169524" y="416.9994711112976"/>
      <point x="401.61780073697855" y="451.23523189544676"/>
      <point x="402.50677107971245" y="507.5891375160217" type="curve" smooth="yes"/>
      <point x="403.268339259379" y="555.8839707183838"/>
      <point x="374.191393526452" y="578.6487388229369"/>
      <point x="336.0227521989574" y="578.6487388229369" type="curve" smooth="yes"/>
      <point x="292.3210409676621" y="578.6487388229369"/>
      <point x="249.8934646103348" y="544.4129780387879"/>
      <point x="248.75284693479142" y="488.1766883659363" type="curve" smooth="yes"/>
      <point x="248.24292608793442" y="439.7642392158508"/>
      <point x="277.0626106229054" y="416.9994711112976"/>
    </contour>
  </outline>
</glyph>
<glyph name="oslash" format="2">
  <advance width="468.3434493060884"/>
  <unicode hex="00F8"/>
  <outline>
    <contour>
      <point x="112.59244833434978" y="-38.529536209106446" type="line"/>
      <point x="154.3624815965493" y="17.470463790893554" type="line"/>
      <point x="179.48610073964542" y="-1.8823840522766113"/>
      <point x="210.03707008050148" y="-13.764768104553221"/>
      <point x="253.55987096187522" y="-13.764768104553221" type="curve" smooth="yes"/>
      <point x="425.8724547555304" y="-13.764768104553221"/>
      <point x="500.4590087856697" y="156.94304313659666"/>
      <point x="508.5646300312507" y="326.76371032714843" type="curve" smooth="yes"/>
      <point x="510.9090624546784" y="375.8818551635742"/>
      <point x="503.4661529298992" y="420.0"/>
      <point x="484.4079037907675" y="453.7062245750427" type="curve"/>
      <point x="525.1066922952326" y="513.1176159477234" type="line"/>
      <point x="468.96618988883256" y="563.6476810455322" type="line"/>
      <point x="431.7462283461467" y="509.70675346374514" type="line"/>
      <point x="408.14174330970417" y="528.0005288887023"/>
      <point x="379.61320274112086" y="538.5886086273193"/>
      <point x="343.9649394944969" y="538.5886086273193" type="curve" smooth="yes"/>
      <point x="177.98332614785517" y="538.5886086273193"/>
      <point x="97.0658016707023" y="367.88079738616943"/>
      <point x="88.96579429026774" y="198.17774614334107" type="curve" smooth="yes"/>
      <point x="86.70280077762747" y="150.765825881958"/>
      <point x="92.50689256004898" y="110.58913751602172"/>
      <point x="106.04134714928547" y="76.53006509780883" type="curve"/>
      <point x="56.45755979309614" y="12.118144836425781" type="line"/>
    </contour>
    <contour>
      <point x="268.5940047356976" y="101.7078112411499" type="curve" smooth="yes"/>
      <point x="259.7126309629765" y="101.7078112411499"/>
      <point x="250.1830038737184" y="104.29589097976685"/>
      <point x="240.5934932889795" y="110.47205045700073" type="curve"/>
      <point x="375.2827249609022" y="335.0569568634033" type="line"/>
      <point x="374.36495562911733" y="331.9984133338928"/>
      <point x="373.65110315434265" y="327.8222538566589"/>
      <point x="373.4882758209866" y="324.4108624839783" type="curve" smooth="yes"/>
      <point x="365.93121569702413" y="210.29641986846923"/>
      <point x="351.7806885291046" y="101.7078112411499"/>
    </contour>
    <contour>
      <point x="215.83162089112722" y="192.94410091400147" type="line"/>
      <point x="217.54924314251235" y="196.5907241821289"/>
      <point x="218.80568733893128" y="201.35496339797973"/>
      <point x="219.0134255934589" y="205.7072823524475" type="curve" smooth="yes"/>
      <point x="226.57048571742123" y="319.8217249679565"/>
      <point x="240.72101288534083" y="428.41033359527586"/>
      <point x="323.9076966787478" y="428.41033359527586" type="curve" smooth="yes"/>
      <point x="331.5027644616888" y="428.41033359527586"/>
      <point x="339.72363010058103" y="425.3517900657654"/>
      <point x="348.7593212333827" y="418.35231895446776" type="curve"/>
    </contour>
  </outline>
</glyph>
<glyph name="thorn" format="2">
  <advance width="476"/>
  <unicode hex="00FE"/>
  <outline>
    <contour>
      <point x="19" y="-185" type="line"/>
      <point x="157" y="-185" type="line"/>
      <point x="200" y="-6" type="line"/>
      <point x="212" y="-11"/>
      <point x="230" y="-14"/>
      <point x="245" y="-14" type="curve" smooth="yes"/>
      <point x="378" y="-14"/>
      <point x="516" y="165"/>
      <point x="516" y="380" type="curve" smooth="yes"/>
      <point x="516" y="480"/>
      <point x="472" y="542"/>
      <point x="346" y="542" type="curve" smooth="yes"/>
      <point x="341" y="542"/>
      <point x="336" y="542"/>
      <point x="331" y="542" type="curve"/>
      <point x="387" y="776" type="line"/>
      <point x="244" y="754" type="line"/>
    </contour>
    <contour>
      <point x="250" y="101" type="curve" smooth="yes"/>
      <point x="244" y="101"/>
      <point x="235" y="102"/>
      <point x="226" y="105" type="curve"/>
      <point x="302" y="420" type="line"/>
      <point x="316" y="425"/>
      <point x="326" y="426"/>
      <point x="337" y="426" type="curve" smooth="yes"/>
      <point x="366" y="426"/>
      <point x="376" y="406"/>
      <point x="376" y="367" type="curve" smooth="yes"/>
      <point x="376" y="232"/>
      <point x="310" y="101"/>
    </contour>
  </outline>
</glyph>
<glyph name="Aogonek" format="2">
  <advance width="591.369018065958"/>
  <unicode hex="0104"/>
  <outline>
    <contour>
      <point x="450.00663831745317" y="-216.88344182968137" type="curve" smooth="yes"/>
      <point x="482.3065976951567" y="-216.88344182968137"/>
      <point x="513.1072692691416" y="-209.47152156829833"/>
      <point x="537.4937895059155" y="-198.41244915008545" type="curve"/>
      <point x="550.6892023787337" y="-105.29324653625488" type="line"/>
      <point x="543.3705199275659" y="-108.17563058853149"/>
      <point x="519.7304501582985" y="-115.46993490219117"/>
      <point x="502.76951145156147" y="-115.46993490219117" type="curve" smooth="yes"/>
      <point x="490.4915082067224" y="-115.46993490219117"/>
      <point x="487.9542268765472" y="-110.35231895446778"/>
      <point x="488.53540076180525" y="-98.17615947723388" type="curve" smooth="yes"/>
      <point x="489.39734363671346" y="-80.1176159477234"/>
      <point x="505.1763099613512" y="-51.52953620910644"/>
      <point x="567.7356411812584" y="0.0" type="curve"/>
      <point x="560.9604657202905" y="221.52742065429686"/>
      <point x="547.65288757528" y="499.76476810455324"/>
      <point x="520.2510229951035" y="693.0" type="curve"/>
      <point x="392.3636084234142" y="693.0" type="line"/>
      <point x="272.21820131642886" y="499.47099267959595"/>
      <point x="171.11987338320787" y="292.0015866661072"/>
      <point x="9.884301615200355" y="0.0" type="curve"/>
      <point x="162.83833677698755" y="0.0" type="line"/>
      <point x="185.14140191166373" y="53.646623268127435"/>
      <point x="210.25161625514534" y="105.1756305885315"/>
      <point x="232.14300103417426" y="155.58702196121217" type="curve"/>
      <point x="422.6179032044284" y="155.58702196121217" type="line"/>
      <point x="422.35745929408745" y="104.82278274536134"/>
      <point x="421.26261209502695" y="53.293775424957275"/>
      <point x="420.08353167466055" y="0.0" type="curve"/>
      <point x="458.35273250404236" y="0.0" type="line"/>
      <point x="376.48104100988814" y="-45.882912940979"/>
      <point x="360.1501967902765" y="-93.53006509780883"/>
      <point x="358.20168070227436" y="-134.35337673187257" type="curve" smooth="yes"/>
      <point x="355.2676409738142" y="-195.8243694114685"/>
      <point x="400.66738938497804" y="-216.88344182968137"/>
    </contour>
    <contour>
      <point x="295.335140675469" y="270.0596013069153" type="line"/>
      <point x="334.64540553906465" y="365.05854352951053"/>
      <point x="375.9320778115052" y="456.7046379089356"/>
      <point x="418.6218620436543" y="549.7035801315308" type="curve"/>
      <point x="422.60605166605717" y="453.58702196121214"/>
      <point x="419.88322605306547" y="355.52900732040405"/>
      <point x="419.3309448565894" y="270.0596013069153" type="curve"/>
    </contour>
  </outline>
</glyph>
<glyph name="aogonek" format="2">
  <advance width="484.1447584742772"/>
  <unicode hex="0105"/>
  <outline>
    <contour>
      <point x="348.6993862787608" y="-216.88344182968137" type="curve" smooth="yes"/>
      <point x="380.99934565646436" y="-216.88344182968137"/>
      <point x="411.80001723044927" y="-209.47152156829833"/>
      <point x="436.18653746722316" y="-198.41244915008545" type="curve"/>
      <point x="449.38195034004144" y="-105.29324653625488" type="line"/>
      <point x="445.89973039762816" y="-108.64609437942505"/>
      <point x="432.79614201426494" y="-116.1756305885315"/>
      <point x="412.93332648188806" y="-112.29430431365967" type="curve" smooth="yes"/>
      <point x="395.1415373758239" y="-109.23628967285157"/>
      <point x="379.65796476943103" y="-100.47257934570312"/>
      <point x="361.35338436489724" y="-85.12078927993774" type="curve" smooth="yes"/>
      <point x="366.656133986815" y="-65.65085437774658"/>
      <point x="393.90033549541886" y="-35.65085437774658"/>
      <point x="488.4285027615655" y="21.52636287689209" type="curve"/>
      <point x="466.79062323701413" y="76.64503660202027"/>
      <point x="457.2622549243582" y="152.52900732040405"/>
      <point x="478.63835838237884" y="223.47152156829833" type="curve"/>
      <point x="540.6163894738994" y="500.0585435295105" type="line"/>
      <point x="470.78176963243266" y="534.3533767318726"/>
      <point x="372.51408848760644" y="536.9414564704895"/>
      <point x="356.6827540745806" y="536.9414564704895" type="curve" smooth="yes"/>
      <point x="213.98523329070508" y="536.9414564704895"/>
      <point x="98.08505899025779" y="389.23523189544676"/>
      <point x="89.09773274326373" y="200.9419853591919" type="curve" smooth="yes"/>
      <point x="83.33359814593547" y="80.17774614334107"/>
      <point x="113.90336167611245" y="-13.88238405227661"/>
      <point x="233.6850943644409" y="-13.88238405227661" type="curve" smooth="yes"/>
      <point x="278.88204718027487" y="-13.88238405227661"/>
      <point x="313.7739386436477" y="8.0"/>
      <point x="342.5391468227527" y="40.64662326812744" type="curve"/>
      <point x="346.56202053510816" y="25.176159477233885"/>
      <point x="349.89734387490154" y="11.470463790893556"/>
      <point x="354.8930403723592" y="-0.8823840522766113" type="curve"/>
      <point x="275.1737889711959" y="-45.882912940979"/>
      <point x="258.8429447515842" y="-93.53006509780883"/>
      <point x="256.89442866358206" y="-134.35337673187257" type="curve" smooth="yes"/>
      <point x="253.9603889351219" y="-195.8243694114685"/>
      <point x="299.3601373462857" y="-216.88344182968137"/>
    </contour>
    <contour>
      <point x="276.52665864240834" y="103.47257934570312" type="curve" smooth="yes"/>
      <point x="230.78906648131758" y="103.47257934570312"/>
      <point x="225.51693381764545" y="143.0021155548096"/>
      <point x="228.818694335252" y="212.17721725463866" type="curve" smooth="yes"/>
      <point x="233.93703248786463" y="319.41139137268067"/>
      <point x="289.27934079373" y="421.351261177063"/>
      <point x="343.1082227753134" y="421.351261177063" type="curve" smooth="yes"/>
      <point x="358.8089724416152" y="421.351261177063"/>
      <point x="366.52399236838545" y="420.1160292816162"/>
      <point x="378.1330540596213" y="416.88079738616943" type="curve"/>
      <point x="342.76079802119307" y="252.29430431365967" type="line"/>
      <point x="336.176688673954" y="220.58860862731933"/>
      <point x="331.51290619524354" y="180.05960130691528"/>
      <point x="326.7554736749164" y="146.70675346374512" type="curve"/>
      <point x="306.8244458089831" y="116.35443450927734"/>
      <point x="295.34456792901943" y="103.47257934570312"/>
    </contour>
  </outline>
</glyph>
<glyph name="dcroat" format="2">
	<advance width="481.62438"/>
	<unicode hex="0111"/>
	<outline>
		<contour>
			<point x="234.74587" y="-13.76477" type="curve" smooth="yes"/>
			<point x="272.99677" y="-13.76477"/>
			<point x="309.30213" y="10.2347"/>
			<point x="343.36316" y="40.64662" type="curve"/>
			<point x="349.05941" y="21.41139"/>
			<point x="352.90169" y="7"/>
			<point x="358.79531" y="-8.64715" type="curve"/>
			<point x="482.75167" y="9.2943" type="line"/>
			<point x="468.22826" y="67.94146"/>
			<point x="460.65229" y="147.00106"/>
			<point x="480.39037" y="221.35443" type="curve"/>
			<point x="563.75124" y="599.17563" type="line"/>
			<point x="621.25231" y="599.17563" type="line"/>
			<point x="645.5875" y="687.35338" type="line"/>
			<point x="589.14159" y="687.35338" type="line"/>
			<point x="609.09961" y="776" type="line"/>
			<point x="461.96513" y="753.41139" type="line"/>
			<point x="448.38721" y="687.35338" type="line"/>
			<point x="348.98135" y="687.35338" type="line"/>
			<point x="324.64616" y="599.17563" type="line"/>
			<point x="423.25412" y="599.17563" type="line"/>
			<point x="408.77899" y="525.64715" type="line"/>
			<point x="392.51338" y="530.52954"/>
			<point x="377.20747" y="533.41192"/>
			<point x="357.28607" y="533.41192" type="curve" smooth="yes"/>
			<point x="221.48237" y="533.41192"/>
			<point x="97.6752" y="380.64821"/>
			<point x="89.07246" y="200.41245" type="curve" smooth="yes"/>
			<point x="83.42901" y="82.17669"/>
			<point x="123.73713" y="-13.76477"/>
		</contour>
		<contour>
			<point x="278.10196" y="103.5902" type="curve" smooth="yes"/>
			<point x="236.7378" y="103.5902"/>
			<point x="225.63201" y="145.41298"/>
			<point x="228.77096" y="211.17722" type="curve" smooth="yes"/>
			<point x="233.7012" y="314.47046"/>
			<point x="289.54705" y="417.82172"/>
			<point x="340.88167" y="417.82172" type="curve" smooth="yes"/>
			<point x="367.90582" y="417.82172"/>
			<point x="363.53127" y="416.70411"/>
			<point x="376.43786" y="413.70411" type="curve"/>
			<point x="343.58482" y="252.2943" type="line"/>
			<point x="337.71635" y="219.41245"/>
			<point x="332.3257" y="179.82437"/>
			<point x="327.57388" y="146.58914" type="curve"/>
			<point x="304.38266" y="118.00106"/>
			<point x="293.83273" y="103.5902"/>
		</contour>
	</outline>
</glyph>
<glyph name="Eogonek" format="2">
  <advance width="489.96120652537866"/>
  <unicode hex="0118"/>
  <outline>
    <contour>
      <point x="334.4677612476529" y="-216.88344182968137" type="curve" smooth="yes"/>
      <point x="366.76772062535633" y="-216.88344182968137"/>
      <point x="397.56839219934136" y="-209.47152156829833"/>
      <point x="421.9549124361152" y="-198.41244915008545" type="curve"/>
      <point x="435.15032530893353" y="-105.29324653625488" type="line"/>
      <point x="427.8316428577656" y="-108.17563058853149"/>
      <point x="404.1915730884983" y="-115.46993490219117"/>
      <point x="387.2306343817612" y="-115.46993490219117" type="curve" smooth="yes"/>
      <point x="374.9526311369222" y="-115.46993490219117"/>
      <point x="372.4153498067469" y="-110.35231895446778"/>
      <point x="372.996523692005" y="-98.17615947723388" type="curve" smooth="yes"/>
      <point x="373.8584665669132" y="-80.1176159477234"/>
      <point x="395.12382465066054" y="-47.11761594772339"/>
      <point x="452.1967641114582" y="0.0" type="curve"/>
      <point x="488.6390662712665" y="120.76688365936279" type="line"/>
      <point x="239.485161194086" y="120.76688365936279" type="line"/>
      <point x="272.6498587733018" y="303.234174118042" type="line"/>
      <point x="476.0400547400466" y="303.234174118042" type="line"/>
      <point x="511.0379702636245" y="421.23628967285157" type="line"/>
      <point x="308.16229669279176" y="421.23628967285157" type="line"/>
      <point x="333.9983287225015" y="573.1155003929139" type="line"/>
      <point x="564.8005213057855" y="573.1155003929139" type="line"/>
      <point x="600.9434456569847" y="693.0" type="line"/>
      <point x="222.51526051644774" y="693.0" type="line"/>
      <point x="56.98655061410573" y="0.0" type="line"/>
      <point x="342.8138554342421" y="0.0" type="line"/>
      <point x="261.0263971613939" y="-44.11814483642578"/>
      <point x="244.6113197204763" y="-93.53006509780883"/>
      <point x="242.6628036324742" y="-134.35337673187257" type="curve" smooth="yes"/>
      <point x="239.72876390401404" y="-195.8243694114685"/>
      <point x="285.1285123151778" y="-216.88344182968137"/>
    </contour>
  </outline>
</glyph>
<glyph name="eogonek" format="2">
  <advance width="431.69225821698507"/>
  <unicode hex="0119"/>
  <outline>
    <contour>
      <point x="266.4673047246356" y="-216.88344182968137" type="curve" smooth="yes"/>
      <point x="298.76726410233914" y="-216.88344182968137"/>
      <point x="329.5679356763241" y="-209.47152156829833"/>
      <point x="353.95445591309795" y="-198.41244915008545" type="curve"/>
      <point x="367.1498687859163" y="-105.29324653625488" type="line"/>
      <point x="359.83118633474845" y="-108.17563058853149"/>
      <point x="336.191116565481" y="-115.46993490219117"/>
      <point x="319.23017785874396" y="-115.46993490219117" type="curve" smooth="yes"/>
      <point x="306.9521746139049" y="-115.46993490219117"/>
      <point x="304.41489328372967" y="-110.35231895446778"/>
      <point x="304.99606716898774" y="-98.17615947723388" type="curve" smooth="yes"/>
      <point x="305.90853483021385" y="-79.05907241821289"/>
      <point x="321.52087086633134" y="-44.82384052276611"/>
      <point x="400.48096733937143" y="16.52900732040405" type="curve"/>
      <point x="395.93949192739143" y="126.82489830017089" type="line"/>
      <point x="364.80983081720814" y="110.41350692749023"/>
      <point x="329.8228158409336" y="102.70781124114991"/>
      <point x="296.2848760766473" y="102.70781124114991" type="curve" smooth="yes"/>
      <point x="256.7176443710089" y="102.70781124114991"/>
      <point x="234.5902786281775" y="129.29483320236204"/>
      <point x="227.14931467802938" y="188.52900732040405" type="curve"/>
      <point x="371.655476895864" y="189.70516679763793"/>
      <point x="483.85652646232575" y="242.64715215682983"/>
      <point x="491.00766441246526" y="392.4704637908935" type="curve" smooth="yes"/>
      <point x="495.3736184149082" y="483.94145647048947"/>
      <point x="435.3935037831353" y="538.7062245750427"/>
      <point x="361.18875326433636" y="538.7062245750427" type="curve" smooth="yes"/>
      <point x="209.58765005388716" y="538.7062245750427"/>
      <point x="97.307374580765" y="372.9419853591919"/>
      <point x="89.1819659645697" y="202.70675346374512" type="curve" smooth="yes"/>
      <point x="83.57783914596963" y="85.29483320236207"/>
      <point x="127.31234816504396" y="-11.117615947723388"/>
      <point x="256.08415733823796" y="-13.764768104553221" type="curve" smooth="yes"/>
      <point x="255.1334633944483" y="-13.764768104553221"/>
      <point x="252.88157424182663" y="-13.529536209106444"/>
      <point x="251.94210802832987" y="-13.294304313659667" type="curve"/>
      <point x="193.952016348216" y="-51.11814483642578"/>
      <point x="176.58840773687325" y="-94.00052888870238"/>
      <point x="174.6623471094569" y="-134.35337673187257" type="curve" smooth="yes"/>
      <point x="171.72830738099674" y="-195.8243694114685"/>
      <point x="217.12805579216047" y="-216.88344182968137"/>
    </contour>
    <contour>
      <point x="233.70417865193122" y="285.9419853591919" type="curve"/>
      <point x="247.63318204931485" y="369.58807973861695"/>
      <point x="288.1406715430905" y="427.6455654907226"/>
      <point x="332.10746056332613" y="427.6455654907226" type="curve" smooth="yes"/>
      <point x="356.17506160643705" y="427.6455654907226"/>
      <point x="366.3570498852774" y="409.58702196121214"/>
      <point x="364.75951396742" y="376.117087059021" type="curve" smooth="yes"/>
      <point x="362.77175131161164" y="334.47152156829833"/>
      <point x="349.1260901267234" y="290.8243694114685"/>
    </contour>
  </outline>
</glyph>
<glyph name="Hbar" format="2">
	<advance width="577.73417"/>
	<unicode hex="0126"/>
	<outline>
		<contour>
			<point x="54.41394" y="0" type="line"/>
			<point x="200.47025" y="0" type="line"/>
			<point x="269.09965" y="299.46941" type="line"/>
			<point x="436.56993" y="299.46941" type="line"/>
			<point x="367.94053" y="0" type="line"/>
			<point x="515.052" y="0" type="line"/>
			<point x="634.44077" y="505.52848" type="line"/>
			<point x="696.67701" y="505.52848" type="line"/>
			<point x="725.7028" y="608.94199" type="line"/>
			<point x="663.46656" y="608.94199" type="line"/>
			<point x="681.89313" y="693" type="line"/>
			<point x="534.78166" y="693" type="line"/>
			<point x="516.35509" y="608.94199" type="line"/>
			<point x="348.88481" y="608.94199" type="line"/>
			<point x="367.05412" y="693" type="line"/>
			<point x="219.94265" y="693" type="line"/>
			<point x="201.51608" y="608.94199" type="line"/>
			<point x="137.94129" y="608.94199" type="line"/>
			<point x="108.91551" y="505.52848" type="line"/>
			<point x="172.49029" y="505.52848" type="line"/>
		</contour>
		<contour>
			<point x="305.6683" y="422.88344" type="line"/>
			<point x="319.85902" y="505.52848" type="line"/>
			<point x="487.3293" y="505.52848" type="line"/>
			<point x="472.88132" y="422.88344" type="line"/>
		</contour>
	</outline>
</glyph>
<glyph name="hbar" format="2">
  <advance width="453.9590308744036"/>
  <unicode hex="0127"/>
  <outline>
    <contour>
      <point x="51.71074190826116" y="0.0" type="line"/>
      <point x="192.20786347528778" y="0.0" type="line"/>
      <point x="284.5447592838336" y="400.351261177063" type="line"/>
      <point x="295.8245232619514" y="405.2921887588501"/>
      <point x="305.50176184624075" y="408.99788444519044"/>
      <point x="317.88423288845905" y="408.99788444519044" type="curve" smooth="yes"/>
      <point x="355.7472874148002" y="408.99788444519044"/>
      <point x="354.3358545236239" y="377.70358013153077"/>
      <point x="352.3228168526019" y="335.52847843170167" type="curve" smooth="yes"/>
      <point x="351.1239663365792" y="310.41139137268067"/>
      <point x="346.6054799474837" y="283.7062245750427"/>
      <point x="343.91021929351825" y="261.765825881958" type="curve" smooth="yes"/>
      <point x="278.03502632891343" y="0.0" type="line"/>
      <point x="418.5321478959401" y="0.0" type="line"/>
      <point x="485.1211099800622" y="270.2357607841492" type="line" smooth="yes"/>
      <point x="491.53675288468935" y="298.41192026138305"/>
      <point x="494.50353241850877" y="326.58807973861695"/>
      <point x="495.7108163543058" y="351.8818551635742" type="curve" smooth="yes"/>
      <point x="500.50349984020625" y="452.29324653625486"/>
      <point x="463.0885375655606" y="523.7056956863403"/>
      <point x="371.2294155941911" y="523.7056956863403" type="curve" smooth="yes"/>
      <point x="352.5159741049593" y="523.7056956863403"/>
      <point x="334.0559471720567" y="518.2352318954468"/>
      <point x="315.8082705159386" y="511.8238405227661" type="curve"/>
      <point x="333.62027310036274" y="599.1756305885315" type="line"/>
      <point x="439.97609789178057" y="599.1756305885315" type="line"/>
      <point x="465.36644934153605" y="687.3533767318726" type="line"/>
      <point x="357.9554628089493" y="687.3533767318726" type="line"/>
      <point x="377.91347493119605" y="776.0" type="line"/>
      <point x="230.779001473595" y="753.4113913726807" type="line"/>
      <point x="217.20108004396658" y="687.3533767318726" type="line"/>
      <point x="168.76029115659142" y="687.3533767318726" type="line"/>
      <point x="143.36993970683602" y="599.1756305885315" type="line"/>
      <point x="192.06798979216717" y="599.1756305885315" type="line"/>
    </contour>
  </outline>
</glyph>
<glyph name="Iogonek" format="2">
  <advance width="268.0403877148158"/>
  <unicode hex="012E"/>
  <outline>
    <contour>
      <point x="73.44981581965834" y="-216.88344182968137" type="curve" smooth="yes"/>
      <point x="101.52912823268623" y="-216.88344182968137"/>
      <point x="143.81022912757027" y="-212.1186737251282"/>
      <point x="169.20979449486006" y="-201.94198535919188" type="curve"/>
      <point x="184.55764746066913" y="-107.94039869308472" type="line"/>
      <point x="161.24307244935562" y="-114.35231895446776"/>
      <point x="146.33911288401052" y="-115.46993490219117"/>
      <point x="136.76430636545584" y="-115.46993490219117" type="curve" smooth="yes"/>
      <point x="122.37597963827899" y="-115.46993490219117"/>
      <point x="121.99113840109457" y="-109.46993490219116"/>
      <point x="122.57231228635264" y="-97.29377542495726" type="curve" smooth="yes"/>
      <point x="123.98177109974966" y="-67.76423921585082"/>
      <point x="179.26500456482015" y="-29.469934902191163"/>
      <point x="202.78559783632176" y="0.0" type="curve"/>
      <point x="369.6267306777887" y="693.0" type="line"/>
      <point x="222.51526051644774" y="693.0" type="line"/>
      <point x="56.98655061410573" y="0.0" type="line"/>
      <point x="92.34752741793675" y="0.0" type="line"/>
      <point x="43.64913261720178" y="-36.17668836593628"/>
      <point x="-5.5180754106051975" y="-86.47099267959595"/>
      <point x="-8.140457269055112" y="-141.41244915008545" type="curve" smooth="yes"/>
      <point x="-10.316398005761467" y="-187.00052888870238"/>
      <point x="17.779596440169737" y="-216.88344182968137"/>
    </contour>
  </outline>
</glyph>
<glyph name="iogonek" format="2">
	<advance width="236.15439"/>
	<unicode hex="012F"/>
	<outline>
		<contour>
			<point x="62.87208" y="-216.88344" type="curve" smooth="yes"/>
			<point x="90.95139" y="-216.88344"/>
			<point x="133.23249" y="-212.11867"/>
			<point x="158.63206" y="-201.94199" type="curve"/>
			<point x="173.97991" y="-107.9404" type="line"/>
			<point x="150.66534" y="-114.35232"/>
			<point x="135.76138" y="-115.46993"/>
			<point x="126.18657" y="-115.46993" type="curve" smooth="yes"/>
			<point x="111.79825" y="-115.46993"/>
			<point x="111.4134" y="-109.46993"/>
			<point x="111.99458" y="-97.29378" type="curve" smooth="yes"/>
			<point x="113.36192" y="-68.64662"/>
			<point x="168.68727" y="-29.46993"/>
			<point x="191.1527" y="0" type="curve"/>
			<point x="317.00114" y="524.94146" type="line"/>
			<point x="176.50402" y="524.94146" type="line"/>
			<point x="51.71074" y="0" type="line"/>
			<point x="81.25527" y="0" type="line"/>
			<point x="32.55688" y="-36.17669"/>
			<point x="-16.09581" y="-86.47099"/>
			<point x="-18.71819" y="-141.41245" type="curve" smooth="yes"/>
			<point x="-20.89413" y="-187.00053"/>
			<point x="7.20186" y="-216.88344"/>
		</contour>
		<contour>
			<point x="263.07252" y="594.23417" type="curve" smooth="yes"/>
			<point x="315.70393" y="594.23417"/>
			<point x="361.40193" y="636.05854"/>
			<point x="363.94011" y="689.23576" type="curve" smooth="yes"/>
			<point x="366.23402" y="737.29536"/>
			<point x="329.26119" y="760.70728"/>
			<point x="292.68835" y="760.70728" type="curve" smooth="yes"/>
			<point x="240.3142" y="760.70728"/>
			<point x="193.83879" y="718.7653"/>
			<point x="191.28939" y="665.35285" type="curve" smooth="yes"/>
			<point x="189.0011" y="617.41086"/>
			<point x="226.49968" y="594.23417"/>
		</contour>
	</outline>
</glyph>
<glyph name="dotlessi" format="2">
	<advance width="236.15439"/>
	<unicode hex="0131"/>
	<outline>
		<contour>
			<point x="51.71074" y="0" type="line"/>
			<point x="191.1527" y="0" type="line"/>
			<point x="317.00114" y="524.94146" type="line"/>
			<point x="176.50402" y="524.94146" type="line"/>
		</contour>
	</outline>
</glyph>
<glyph name="kgreenlandic" format="2">
  <advance width="474.00319566112097"/>
  <unicode hex="0138"/>
  <outline>
    <contour>
      <point x="51.71074190826116" y="0.0" type="line"/>
      <point x="191.15270173411886" y="0.0" type="line"/>
      <point x="244.4706980793524" y="234.82225385665893" type="line"/>
      <point x="271.14516759018005" y="174.52794954299927"/>
      <point x="298.1479333174585" y="76.35126117706298"/>
      <point x="304.9063836001957" y="0.0" type="curve"/>
      <point x="462.05494877731377" y="0.0" type="line"/>
      <point x="444.24062063791246" y="90.0"/>
      <point x="408.9852440325651" y="209.9409275817871"/>
      <point x="376.8520057040739" y="278.8233116340637" type="curve"/>
      <point x="481.6870921156216" y="360.9425142478943"/>
      <point x="526.025252660523" y="444.6466232681274"/>
      <point x="596.9036175372427" y="524.9414564704895" type="curve"/>
      <point x="427.29813876536406" y="524.9414564704895" type="line"/>
      <point x="385.1642826650368" y="476.94145647048947"/>
      <point x="328.5086915185126" y="395.53059398651124"/>
      <point x="273.92210950900966" y="331.53059398651124" type="curve"/>
      <point x="318.05629860224815" y="524.9414564704895" type="line"/>
      <point x="177.5591770352215" y="524.9414564704895" type="line"/>
    </contour>
  </outline>
</glyph>
<glyph name="Lslash" format="2">
  <advance width="462.6797946555636"/>
  <unicode hex="0141"/>
  <outline>
    <contour>
      <point x="48.49693108155698" y="0.0" type="line"/>
      <point x="439.5087062680864" y="0.0" type="line"/>
      <point x="475.81448319675127" y="123.29641986846923" type="line"/>
      <point x="230.85901643039378" y="123.29641986846923" type="line"/>
      <point x="275.9278348932096" y="334.6471521568298" type="line"/>
      <point x="436.53219093499297" y="417.1181448364258" type="line"/>
      <point x="418.32295830130664" y="512.8254271888733" type="line"/>
      <point x="308.86679365489886" y="453.1782750320434" type="line"/>
      <point x="361.394372343196" y="693.0" type="line"/>
      <point x="214.282902181855" y="693.0" type="line"/>
      <point x="140.28937294908468" y="380.3533767318726" type="line"/>
      <point x="32.587931969683936" y="322.94145647048947" type="line"/>
      <point x="49.74200286220122" y="227.234174118042" type="line"/>
      <point x="107.05103637878652" y="260.93986980438234" type="line"/>
    </contour>
  </outline>
</glyph>
<glyph name="lslash" format="2">
	<advance width="256.79925"/>
	<unicode hex="0142"/>
	<outline>
		<contour>
			<point x="217.45572" y="-9.88238" type="curve"/>
			<point x="250.50034" y="105.47258" type="line"/>
			<point x="207.87618" y="112.58967"/>
			<point x="198.0648" y="151.76477"/>
			<point x="205.59384" y="206.46888" type="curve" smooth="yes"/>
			<point x="256.43081" y="394.23576" type="line"/>
			<point x="391.66129" y="460.11867" type="line"/>
			<point x="375.41618" y="546.82596" type="line"/>
			<point x="287.50058" y="501.64927" type="line"/>
			<point x="347.54493" y="776" type="line"/>
			<point x="200.15319" y="753.41139" type="line"/>
			<point x="126.77237" y="432.58914" type="line"/>
			<point x="48.63041" y="389.47152" type="line"/>
			<point x="64.61826" y="302.76424" type="line"/>
			<point x="96.75214" y="325.05801" type="line"/>
			<point x="73.72098" y="222.17616" type="line" smooth="yes"/>
			<point x="44.66889" y="98.29378"/>
			<point x="54.32838" y="-8.82384"/>
		</contour>
	</outline>
</glyph>
<glyph name="Eng" format="2">
  <advance width="583"/>
  <unicode hex="014A"/>
  <outline>
    <contour>
      <point x="333" y="-188" type="curve" smooth="yes"/>
      <point x="433" y="-188"/>
      <point x="484" y="-124"/>
      <point x="509" y="-18" type="curve" smooth="yes"/>
      <point x="679" y="693" type="line"/>
      <point x="544" y="693" type="line"/>
      <point x="452" y="310" type="line"/>
      <point x="420" y="453"/>
      <point x="385" y="582"/>
      <point x="348" y="693" type="curve"/>
      <point x="236" y="693" type="line"/>
      <point x="70" y="0" type="line"/>
      <point x="205" y="0" type="line"/>
      <point x="308" y="428" type="line"/>
      <point x="351" y="275"/>
      <point x="378" y="146"/>
      <point x="394" y="48" type="curve"/>
      <point x="378" y="-18" type="line" smooth="yes"/>
      <point x="369" y="-54"/>
      <point x="352" y="-68"/>
      <point x="328" y="-68" type="curve" smooth="yes"/>
      <point x="316" y="-68"/>
      <point x="304" y="-66"/>
      <point x="293" y="-63" type="curve"/>
      <point x="258" y="-176" type="line"/>
      <point x="281" y="-185"/>
      <point x="306" y="-188"/>
    </contour>
  </outline>
</glyph>
<glyph name="eng" format="2">
	<advance width="455.81209"/>
	<unicode hex="014B"/>
	<outline>
		<contour>
			<point x="246.16191" y="-187.11762" type="curve" smooth="yes"/>
			<point x="300.44917" y="-187.11762"/>
			<point x="380.35521" y="-149.53059"/>
			<point x="407.98162" y="-23.17828" type="curve" smooth="yes"/>
			<point x="487.47957" y="280.82437" type="line"/>
			<point x="526.57783" y="437.23629"/>
			<point x="474.96193" y="536.70622"/>
			<point x="354.34836" y="536.70622" type="curve" smooth="yes"/>
			<point x="257.1651" y="536.70622"/>
			<point x="208.54879" y="515.76477"/>
			<point x="172.71509" y="501.64715" type="curve"/>
			<point x="51.71074" y="0" type="line"/>
			<point x="192.20786" y="0" type="line"/>
			<point x="286.20162" y="412.41033" type="line"/>
			<point x="298.77135" y="416.8808"/>
			<point x="310.47384" y="419.35126"/>
			<point x="321.51777" y="419.35126" type="curve" smooth="yes"/>
			<point x="368.37058" y="419.35126"/>
			<point x="358.58844" y="349.2347"/>
			<point x="346.26868" y="272.35443" type="curve" smooth="yes"/>
			<point x="275.61491" y="-1.64768" type="line" smooth="yes"/>
			<point x="264.61621" y="-57.88186"/>
			<point x="246.71875" y="-80.70411"/>
			<point x="233.04606" y="-80.70411" type="curve" smooth="yes"/>
			<point x="223.67629" y="-80.70411"/>
			<point x="211.8782" y="-76.58649"/>
			<point x="198.64434" y="-69.11603" type="curve"/>
			<point x="157.59187" y="-170" type="line"/>
			<point x="182.84791" y="-179"/>
			<point x="215.04379" y="-187.11762"/>
		</contour>
	</outline>
</glyph>
<glyph name="OE" format="2">
	<advance width="793.4507"/>
	<unicode hex="0152"/>
	<outline>
		<contour>
			<point x="347.50279" y="-8" type="curve" smooth="yes"/>
			<point x="377.7969" y="-8"/>
			<point x="407.71967" y="-5"/>
			<point x="435.37032" y="0" type="curve"/>
			<point x="755.68626" y="0" type="line"/>
			<point x="792.21279" y="122.53165" type="line"/>
			<point x="551.86191" y="122.53165" type="line"/>
			<point x="584.90026" y="302.35179" type="line"/>
			<point x="779.48743" y="302.35179" type="line"/>
			<point x="814.56958" y="422.11867" type="line"/>
			<point x="620.49693" y="422.11867" type="line"/>
			<point x="646.16449" y="570.46835" type="line"/>
			<point x="868.16366" y="570.46835" type="line"/>
			<point x="904.43294" y="693" type="line"/>
			<point x="593.43455" y="693" type="line"/>
			<point x="563.91412" y="697.88238"/>
			<point x="524.50801" y="700"/>
			<point x="495.29519" y="700" type="curve" smooth="yes"/>
			<point x="290.71925" y="700"/>
			<point x="119.40826" y="543.11867"/>
			<point x="106.57994" y="274.35285" type="curve" smooth="yes"/>
			<point x="95.98934" y="52.46941"/>
			<point x="235.12158" y="-8"/>
		</contour>
		<contour>
			<point x="362.49136" y="113.00212" type="curve" smooth="yes"/>
			<point x="280.25146" y="113.00212"/>
			<point x="250.58938" y="186.70834"/>
			<point x="255.24159" y="284.17669" type="curve" smooth="yes"/>
			<point x="261.88722" y="423.40928"/>
			<point x="327.14375" y="578.23312"/>
			<point x="460.45319" y="578.23312" type="curve" smooth="yes"/>
			<point x="474.58426" y="578.23312"/>
			<point x="489.46549" y="577.23312"/>
			<point x="505.30643" y="574.23312" type="curve"/>
			<point x="408.29371" y="119.11973" type="line"/>
			<point x="391.78305" y="115.11973"/>
			<point x="376.16014" y="113.00212"/>
		</contour>
	</outline>
</glyph>
<glyph name="oe" format="2">
	<advance width="697.29258"/>
	<unicode hex="0153"/>
	<outline>
		<contour>
			<point x="253.55987" y="-13.76477" type="curve" smooth="yes"/>
			<point x="313.91693" y="-13.76477"/>
			<point x="365.12446" y="21"/>
			<point x="395.36412" y="72.11656" type="curve"/>
			<point x="423.90988" y="20.41192"/>
			<point x="462.07308" y="-13.76477"/>
			<point x="530.89756" y="-13.76477" type="curve" smooth="yes"/>
			<point x="587.21288" y="-13.76477"/>
			<point x="636.56427" y="0.47046"/>
			<point x="666.05322" y="15.94093" type="curve"/>
			<point x="661.51174" y="126.23682" type="line"/>
			<point x="631.94811" y="110.29589"/>
			<point x="596.19492" y="102.70781"/>
			<point x="561.11341" y="102.70781" type="curve" smooth="yes"/>
			<point x="520.25988" y="102.70781"/>
			<point x="496.75077" y="127.29536"/>
			<point x="490.17702" y="188.52901" type="curve"/>
			<point x="631.08714" y="189.82278"/>
			<point x="749.45685" y="242.64715"/>
			<point x="756.60799" y="392.47046" type="curve" smooth="yes"/>
			<point x="761.02446" y="485"/>
			<point x="704.08096" y="538.70622"/>
			<point x="626.01729" y="538.70622" type="curve" smooth="yes"/>
			<point x="565.09347" y="538.70622"/>
			<point x="516.87672" y="506.7653"/>
			<point x="472.6111" y="449.17775" type="curve"/>
			<point x="446.03739" y="508.7653"/>
			<point x="395.45015" y="538.70622"/>
			<point x="346.08088" y="538.70622" type="curve" smooth="yes"/>
			<point x="187.73875" y="538.70622"/>
			<point x="96.66158" y="359.41192"/>
			<point x="88.94611" y="197.7653" type="curve" smooth="yes"/>
			<point x="83.10051" y="75.2943"/>
			<point x="138.27826" y="-13.76477"/>
		</contour>
		<contour>
			<point x="272.93539" y="104.23735" type="curve" smooth="yes"/>
			<point x="233.9127" y="104.23735"/>
			<point x="225.35511" y="145.00159"/>
			<point x="228.64287" y="213.88344" type="curve" smooth="yes"/>
			<point x="232.92449" y="303.58755"/>
			<point x="264.14449" y="420.46888"/>
			<point x="324.58381" y="420.46888" type="curve" smooth="yes"/>
			<point x="367.97993" y="420.46888"/>
			<point x="374.55242" y="381.23365"/>
			<point x="371.29272" y="312.93987" type="curve" smooth="yes"/>
			<point x="366.6462" y="215.59072"/>
			<point x="341.34981" y="104.23735"/>
		</contour>
		<contour>
			<point x="496.47463" y="285.94199" type="curve"/>
			<point x="509.30258" y="373.46941"/>
			<point x="546.53768" y="427.64557"/>
			<point x="597.96504" y="427.64557" type="curve" smooth="yes"/>
			<point x="621.51812" y="427.64557"/>
			<point x="631.95176" y="409.46941"/>
			<point x="630.35984" y="376.11709" type="curve" smooth="yes"/>
			<point x="628.37769" y="334.58914"/>
			<point x="612.1538" y="290.82437"/>
		</contour>
	</outline>
</glyph>
<glyph name="Scedilla" format="2">
  <advance width="462.5492099088396"/>
  <unicode hex="015E"/>
  <outline>
    <contour>
      <point x="130.58745426468656" y="-217.00105777740478" type="curve" smooth="yes"/>
      <point x="188.24132067528106" y="-217.00105777740478"/>
      <point x="249.16554293331322" y="-185.11867372512816"/>
      <point x="252.75378728215395" y="-109.9414564704895" type="curve" smooth="yes"/>
      <point x="254.07057945447065" y="-82.35337673187256"/>
      <point x="242.72467215388656" y="-58.52953620910644"/>
      <point x="220.82726366390904" y="-43.29430431365967" type="curve"/>
      <point x="227.64481422282228" y="-33.64715215682983"/>
      <point x="233.2032861835565" y="-22.88238405227661"/>
      <point x="239.2602808788945" y="-13.0" type="curve"/>
      <point x="361.71586735772183" y="-7.2943043136596675"/>
      <point x="461.8050872391051" y="68.1165581703186"/>
      <point x="468.5098850439387" y="208.58860862731933" type="curve" smooth="yes"/>
      <point x="473.77987328783337" y="319.0"/>
      <point x="418.97967445070515" y="365.3533767318726"/>
      <point x="350.8932355789932" y="407.76529699325556" type="curve" smooth="yes"/>
      <point x="316.355111448305" y="432.11814483642576"/>
      <point x="284.6724985393757" y="448.8823840522766"/>
      <point x="287.2920355990883" y="503.76423921585086" type="curve" smooth="yes"/>
      <point x="290.3158466816726" y="567.1160292816162"/>
      <point x="327.7898470411349" y="589.1155003929138"/>
      <point x="369.7729890302646" y="589.1155003929138" type="curve" smooth="yes"/>
      <point x="414.6865636987977" y="589.1155003929138"/>
      <point x="456.02458772586715" y="570.2916598701477"/>
      <point x="477.80080658803934" y="544.9388120269775" type="curve"/>
      <point x="542.5455783739984" y="653.1170870590211" type="line"/>
      <point x="516.8174699835246" y="680.3523189544678"/>
      <point x="450.5927299362393" y="708.8823840522766"/>
      <point x="374.51270847920614" y="708.8823840522766" type="curve" smooth="yes"/>
      <point x="222.7588118681801" y="708.8823840522766"/>
      <point x="141.78098234660376" y="614.9414564704896"/>
      <point x="136.05609431708174" y="494.99947111129757" type="curve" smooth="yes"/>
      <point x="131.44871886923258" y="398.4704637908935"/>
      <point x="169.18690418287846" y="349.99947111129757"/>
      <point x="226.4495752258933" y="307.82278274536134" type="curve"/>
      <point x="267.8310294261425" y="276.9403986930847"/>
      <point x="320.20126680591875" y="255.76423921585084"/>
      <point x="317.511543809821" y="199.41192026138305" type="curve" smooth="yes"/>
      <point x="314.004814104096" y="125.94251424789428"/>
      <point x="266.3555096294508" y="107.53165176391602"/>
      <point x="226.43045722396923" y="107.53165176391602" type="curve" smooth="yes"/>
      <point x="169.85786950388848" y="107.53165176391602"/>
      <point x="118.96593759230775" y="138.12026039123535"/>
      <point x="97.33636124931576" y="160.06118797302247" type="curve"/>
      <point x="31.356733549282858" y="48.118144836425785" type="line"/>
      <point x="46.79180656525698" y="27.941985359191897"/>
      <point x="91.00305058776507" y="1.3533767318725585"/>
      <point x="157.06437545100295" y="-9.588079738616944" type="curve"/>
      <point x="145.53314201623667" y="-28.470463790893554"/>
      <point x="131.2189820567703" y="-50.11761594772339"/>
      <point x="122.80739763495086" y="-65.1176159477234" type="curve"/>
      <point x="155.79229095085907" y="-81.0"/>
      <point x="162.24444374897126" y="-90.88238405227662"/>
      <point x="161.50041728624768" y="-106.47046379089355" type="curve" smooth="yes"/>
      <point x="160.70304648257826" y="-123.17615947723388"/>
      <point x="151.74371013496093" y="-131.2937754249573"/>
      <point x="131.22944026003702" y="-131.2937754249573" type="curve" smooth="yes"/>
      <point x="114.49964580191116" y="-131.2937754249573"/>
      <point x="93.81874563846685" y="-125.64662326812744"/>
      <point x="80.1105300840382" y="-117.88185516357422" type="curve"/>
      <point x="43.06045069032387" y="-195.29483320236207" type="line"/>
      <point x="65.22830048493765" y="-209.70675346374512"/>
      <point x="98.51863913559419" y="-217.00105777740478"/>
    </contour>
  </outline>
</glyph>
